<?xml version="1.0" standalone="no"?>
<!DOCTYPE svg PUBLIC "-//W3C//DTD SVG 1.1//EN" "http://www.w3.org/Graphics/SVG/1.1/DTD/svg11.dtd" >
<svg>
<metadata>
Created by FontForge 20120731 at Fri Aug 26 20:12:47 2016
 By ,,,
(c) 1997, 2000 Adobe Systems Incorporated. All rights reserved.
</metadata>
<defs>
<font id="ChaparralPro-Regular" horiz-adv-x="337" >
  <font-face 
    font-family="Chaparral Pro"
    font-weight="400"
    font-stretch="normal"
    units-per-em="1000"
    panose-1="2 6 5 3 4 5 5 2 2 3"
    ascent="740"
    descent="-260"
    x-height="419"
    cap-height="650"
    bbox="-163 -316.8 1073 870"
    underline-thickness="54"
    underline-position="-46"
    unicode-range="U+0020-FB04"
  />
<missing-glyph horiz-adv-x="500" 
d="M0 0v700h500v-700h-500zM250 395l170 255h-340zM280 350l170 -255v510zM80 50h340l-170 255zM50 605v-510l170 255z" />
    <glyph glyph-name="T_h" unicode="Th" horiz-adv-x="1015" 
d="M327 600l-3 -551l92 -3q0 -7 -0.5 -23t-0.5 -24q-17 0 -61 0.5t-65 0.5t-65 -0.5t-65 -0.5q0 32 1 47l81 3q4 0 4 4v548q-84 0 -130 -4q-22 -2 -25 -19l-16 -97q-9 1 -28 2.5t-28 2.5q2 27 5 82.5t5 82.5q7 0 38 -0.5t54 -0.5h170h202q19 0 76 0.5t68 1.5q0 -83 -2 -281
l4 -1q74 40 103 50t60 10q69 0 112 -72q14 -25 14 -74q0 -38 -1 -118.5t-1 -119.5l66 -2q0 -7 -0.5 -22t-0.5 -22h-103q-17 0 -51.5 -0.5t-49.5 -0.5q0 29 1 44l59 3q3 0 3 4q1 55 1 183q0 79 -15 105q-20 32 -63 32q-60 0 -137 -56q-2 -156 -2 -268l77 -2q0 -7 -0.5 -22
t-0.5 -22h-116q-11 0 -47.5 -0.5t-49.5 -0.5q0 30 1 44l57 3q3 0 3 4q1 165 1 529q0 18 -27 19q-26 2 -204 2z" />
    <glyph glyph-name="Tcaron_h" unicode="&#x164;h" horiz-adv-x="1015" 
d="M327 600l-3 -551l92 -3q0 -7 -0.5 -23t-0.5 -24q-17 0 -61 0.5t-65 0.5t-65 -0.5t-65 -0.5q0 32 1 47l81 3q4 0 4 4v548q-84 0 -130 -4q-22 -2 -25 -19l-16 -97q-9 1 -28 2.5t-28 2.5q2 27 5 82.5t5 82.5q7 0 38 -0.5t54 -0.5h170h202q19 0 76 0.5t68 1.5q0 -83 -2 -281
l4 -1q74 40 103 50t60 10q69 0 112 -72q14 -25 14 -74q0 -38 -1 -118.5t-1 -119.5l66 -2q0 -7 -0.5 -22t-0.5 -22h-103q-17 0 -51.5 -0.5t-49.5 -0.5q0 29 1 44l59 3q3 0 3 4q1 55 1 183q0 79 -15 105q-20 32 -63 32q-60 0 -137 -56q-2 -156 -2 -268l77 -2q0 -7 -0.5 -22
t-0.5 -22h-116q-11 0 -47.5 -0.5t-49.5 -0.5q0 30 1 44l57 3q3 0 3 4q1 165 1 529q0 18 -27 19q-26 2 -204 2zM287 771q21 13 59 39t51 34q13 -12 27 -31q-12 -10 -36.5 -30.5t-45.5 -38t-38 -31.5q-24 0 -35 1q-88 74 -118 97q18 24 26 32q6 -4 47.5 -31t62.5 -41z" />
    <glyph glyph-name="uni021A_h" unicode="&#x21a;h" horiz-adv-x="1015" 
d="M327 600l-3 -551l92 -3q0 -7 -0.5 -23t-0.5 -24q-17 0 -61 0.5t-65 0.5t-65 -0.5t-65 -0.5q0 32 1 47l81 3q4 0 4 4v548q-84 0 -130 -4q-22 -2 -25 -19l-16 -97q-9 1 -28 2.5t-28 2.5q2 27 5 82.5t5 82.5q7 0 38 -0.5t54 -0.5h170h202q19 0 76 0.5t68 1.5q0 -83 -2 -281
l4 -1q74 40 103 50t60 10q69 0 112 -72q14 -25 14 -74q0 -38 -1 -118.5t-1 -119.5l66 -2q0 -7 -0.5 -22t-0.5 -22h-103q-17 0 -51.5 -0.5t-49.5 -0.5q0 29 1 44l59 3q3 0 3 4q1 55 1 183q0 79 -15 105q-20 32 -63 32q-60 0 -137 -56q-2 -156 -2 -268l77 -2q0 -7 -0.5 -22
t-0.5 -22h-116q-11 0 -47.5 -0.5t-49.5 -0.5q0 30 1 44l57 3q3 0 3 4q1 165 1 529q0 18 -27 19q-26 2 -204 2zM283 -57q23 0 41.5 -20t18.5 -46q0 -83 -92 -136q-3 3 -8 9.5t-9 11.5t-7 9q55 33 55 74q0 25 -40 34q-4 27 8.5 45.5t32.5 18.5z" />
    <glyph glyph-name="f_f_j" unicode="ffj" horiz-adv-x="837" 
d="M41 43l57 3q4 0 4 4q0 215 -1 317h-75q0 20 2 50q44 2 68 2q5 0 5 6q1 64 13.5 105.5t43.5 75.5q69 73 161 73q48 0 84 -15q0 -13 -12 -34t-22 -28q-33 19 -79 19q-49 0 -74 -32q-39 -48 -38 -170h214q5 0 5 8q0 78 13.5 115.5t45.5 70.5q68 72 161 72q72 0 126 -26
q0 -13 -13 -35t-25 -29q-73 32 -121 32q-45 0 -71 -31q-15 -18 -22 -32t-12 -50t-5 -95q86 0 134 1q24 0 62 2.5t66 5t31 2.5q2 0 2 -3q0 -50 -0.5 -171t-0.5 -172q0 -67 -8.5 -109.5t-31.5 -86.5q-41 -82 -106 -120q-13 1 -33 16.5t-23 28.5q70 32 94 76q33 56 33 175
l-1 302q-60 2 -90 2q-89 0 -128 -1q0 -43 -0.5 -155.5t-0.5 -165.5l89 -2v-44h-126q-15 0 -49.5 -0.5t-50.5 -0.5q0 7 0.5 22t0.5 22l58 3q3 0 3 4v317q-116 2 -220 0q0 -43 -0.5 -155.5t-0.5 -165.5l90 -2v-44h-128q-15 0 -49 -0.5t-50 -0.5q-1 15 1 44z" />
    <glyph glyph-name="f_j" unicode="fj" horiz-adv-x="542" 
d="M321 685q71 0 126 -26q0 -13 -13 -35t-25 -29q-78 32 -121 32q-47 0 -72 -30q-14 -18 -21 -32t-12 -50.5t-5 -95.5q87 0 134 1q24 0 62 2.5t66.5 5t31.5 2.5q2 0 2 -3q-1 -50 -1.5 -171t-0.5 -172q0 -67 -8.5 -109.5t-31.5 -86.5q-41 -82 -106 -120q-12 1 -32.5 16.5
t-23.5 28.5q70 32 94 76q33 56 33 175l-2 302q-54 2 -87 2q-92 0 -130 -1q0 -43 -0.5 -155.5t-0.5 -165.5l89 -2q0 -30 -1 -44h-126q-15 0 -49 -0.5t-50 -0.5q-1 15 1 44l57 3q4 0 4 4q0 215 -1 317h-75q0 20 2 50q44 2 68 2q5 0 5 7q0 78 13.5 116t44.5 71q68 72 162 72z
" />
    <glyph glyph-name="f_f" unicode="ff" horiz-adv-x="631" 
d="M319 679q50 0 84 -15q0 -13 -11.5 -34t-21.5 -27q-44 18 -81 18q-48 0 -72 -32q-39 -49 -38 -170h214q5 0 5 8q0 78 11.5 115.5t41.5 70.5q66 72 152 72q34 0 64 -12q0 -13 -10.5 -35t-20.5 -30q-40 15 -68 15q-40 0 -62 -30q-19 -25 -25 -57.5t-5 -116.5q24 0 73 0.5
t73 0.5q1 -11 -2 -52q-102 0 -145 -1q0 -218 -1 -321l98 -2q0 -30 -1 -44h-135q-15 0 -49 -0.5t-50 -0.5q-1 14 1 44l57 3q4 0 4 4q0 215 -1 317q-113 2 -220 0q0 -218 -1 -321l90 -2v-44h-128q-15 0 -49 -0.5t-50 -0.5q-1 15 1 44l57 3q4 0 4 4q0 215 -1 317h-75q0 20 2 50
q44 2 68 2q5 0 5 6q1 64 13.5 105.5t43.5 75.5q69 73 161 73z" />
    <glyph glyph-name="f_f_i" unicode="ffi" horiz-adv-x="856" 
d="M41 43l57 3q4 0 4 4q0 215 -1 317h-75q0 20 2 50q44 2 68 2q5 0 5 6q1 64 13.5 105.5t43.5 75.5q69 73 161 73q48 0 84 -15q0 -13 -12 -34t-22 -28q-33 19 -79 19q-49 0 -74 -32q-39 -48 -38 -170h214q5 0 5 8q0 78 13.5 115.5t45.5 70.5q68 72 161 72q72 0 126 -26
q0 -13 -13 -35t-25 -29q-73 32 -121 32q-45 0 -71 -31q-15 -18 -22 -32t-12 -50t-5 -95q87 0 134 1q24 0 62 2.5t66 5t31 2.5q2 0 2 -3q0 -56 -1 -192t-1 -189l70 -2q0 -30 -1 -44h-111q-17 0 -51 -0.5t-50 -0.5v44l65 3q3 0 3 4v316q-58 2 -90 2q-89 0 -128 -1
q0 -43 -0.5 -155.5t-0.5 -165.5l89 -2v-44h-126q-15 0 -49.5 -0.5t-50.5 -0.5q0 7 0.5 22t0.5 22l58 3q3 0 3 4v317q-116 2 -220 0q0 -43 -0.5 -155.5t-0.5 -165.5l90 -2v-44h-128q-15 0 -49 -0.5t-50 -0.5q-1 15 1 44z" />
    <glyph glyph-name="f_f_l" unicode="ffl" horiz-adv-x="859" 
d="M615 685q85 0 153 -22q3 -1 3 -6q0 -72 -1.5 -289.5t-2.5 -321.5l79 -2q0 -7 -0.5 -22t-0.5 -22h-116q-18 0 -55 -0.5t-51 -0.5q0 7 0.5 22t0.5 22l66 3q3 0 3 5q1 96 1 316q-113 2 -220 0q0 -115 -2 -321l91 -2q0 -29 -1 -44h-126q-16 0 -50 -0.5t-50 -0.5q0 7 0.5 22
t0.5 22l58 3q3 0 3 4v317q-114 2 -220 0q0 -43 -0.5 -155.5t-0.5 -165.5l91 -2q0 -8 -0.5 -22.5t-0.5 -21.5h-128q-15 0 -49 -0.5t-50 -0.5q-1 15 1 44l57 3q4 0 4 4q0 215 -1 317h-75q0 20 2 50q44 2 68 2q5 0 5 6q1 120 57 181q69 73 161 73q52 0 84 -15
q0 -12 -12.5 -33.5t-21.5 -27.5q-41 18 -80 18q-48 0 -73 -32q-39 -48 -38 -170h214q5 0 5 8q0 80 11 117.5t43 70.5q66 70 164 70zM594 632q-62 0 -90 -38q-19 -23 -25 -56t-5 -119q152 0 220 1v65.5v73.5v58q-33 15 -100 15z" />
    <glyph glyph-name="f_i" unicode="fi" horiz-adv-x="561" 
d="M321 685q71 0 126 -26q0 -13 -13 -35t-25 -29q-78 32 -121 32q-47 0 -72 -30q-14 -18 -21 -32t-12 -50.5t-5 -95.5q86 0 134 1q24 0 62 2.5t66.5 5t31.5 2.5q2 0 2 -3q-2 -222 -2 -381l70 -2q0 -30 -1 -44h-111q-17 0 -51.5 -0.5t-50.5 -0.5v44l65 3q3 0 3 4v316
q-52 2 -88 2q-91 0 -130 -1q0 -43 -0.5 -155.5t-0.5 -165.5l89 -2q0 -30 -1 -44h-126q-15 0 -49 -0.5t-50 -0.5q-1 15 1 44l57 3q4 0 4 4q0 215 -1 317h-75q0 20 2 50q44 2 68 2q5 0 5 7q0 78 13.5 116t44.5 71q68 72 162 72z" />
    <glyph glyph-name="f_l" unicode="fl" horiz-adv-x="564" 
d="M177 46l90 -2q0 -8 -0.5 -22.5t-0.5 -21.5h-126q-16 0 -50 -0.5t-50 -0.5q0 29 1 44l58 3q3 0 3 4q0 215 -1 317h-75q0 20 2 50q44 2 68 2q5 0 5 8q0 80 11 117.5t43 70.5q66 70 161 70q90 0 157 -23q3 -2 3 -6q0 -71 -1.5 -288t-2.5 -322l78 -2v-44h-117
q-18 0 -54.5 -0.5t-51.5 -0.5q0 16 2 44l65 3q3 0 3 5q1 96 1 316h-220q0 -43 -0.5 -155.5t-0.5 -165.5zM297 631q-58 0 -90 -35q-18 -23 -24 -57t-5 -120h220q0 36 0.5 103t0.5 95q-40 14 -102 14z" />
    <glyph glyph-name="uni0162_h" unicode="&#x162;h" horiz-adv-x="1015" 
d="M925 46l66 -2q0 -7 -0.5 -22t-0.5 -22h-103q-17 0 -51.5 -0.5t-49.5 -0.5q0 29 1 44l59 3q3 0 3 4q1 55 1 183q0 79 -15 105q-20 32 -63 32q-60 0 -137 -56q-2 -156 -2 -268l77 -2q0 -7 -0.5 -22t-0.5 -22h-116q-11 0 -47.5 -0.5t-49.5 -0.5q0 30 1 44l57 3q3 0 3 4
q1 165 1 529q0 18 -27 19q-26 2 -204 2l-3 -551l92 -3q0 -7 -0.5 -23t-0.5 -24q-47 0 -73 1l-66 -66q34 -6 51 -24t17 -44q0 -39 -38 -64.5t-103 -25.5q-3 19 -5 36q83 3 83 48q0 18 -14 28q-13 11 -51 11l-8 24l78 77q-20 0 -63 -0.5t-64 -0.5q0 32 1 47l81 3q4 0 4 4v548
q-84 0 -130 -4q-22 -2 -25 -19l-16 -97q-9 1 -28 2.5t-28 2.5q2 27 5 82.5t5 82.5q7 0 38 -0.5t54 -0.5h170h202q19 0 76 0.5t68 1.5q0 -83 -2 -281l4 -1q74 40 103 50t60 10q69 0 112 -72q14 -25 14 -74q0 -38 -1 -118.5t-1 -119.5z" />
    <glyph glyph-name=".notdef" horiz-adv-x="500" 
d="M0 0v700h500v-700h-500zM250 395l170 255h-340zM280 350l170 -255v510zM80 50h340l-170 255zM50 605v-510l170 255z" />
    <glyph glyph-name=".null" horiz-adv-x="0" 
 />
    <glyph glyph-name="nonmarkingreturn" horiz-adv-x="333" 
 />
    <glyph glyph-name="space" unicode=" " horiz-adv-x="220" 
 />
    <glyph glyph-name="exclam" unicode="!" horiz-adv-x="273" 
d="M183 659q1 0 1 -3q-2 -65 -10 -239.5t-11 -246.5q-15 -4 -52 -7q-1 30 -5.5 113t-5.5 113q-3 121 -13 251q14 6 50 12.5t46 6.5zM137 94q25 0 39 -16.5t14 -37.5q0 -19 -15.5 -34t-37.5 -15q-23 0 -38 14t-15 36q0 20 15 36.5t38 16.5z" />
    <glyph glyph-name="quotedbl" unicode="&#x22;" horiz-adv-x="321" 
d="M131 697q-7 -118 -11 -224q-21 -7 -47 -7q-11 152 -18 218q39 13 76 13zM270 697q-8 -138 -10 -224q-23 -7 -48 -7q-11 152 -18 218q39 13 76 13z" />
    <glyph glyph-name="numbersign" unicode="#" horiz-adv-x="524" 
d="M229 466h110q8 47 30 179q35 2 54 1q-4 -23 -14.5 -84.5t-16.5 -94.5q70 0 100 1q0 -28 -3 -50h-107q-4 -24 -11.5 -70t-11.5 -67h108q0 -31 -2 -47h-115q-4 -25 -16 -96t-18 -102q-32 -2 -50 -1q16 90 33 198h-110q-4 -25 -11.5 -67t-13 -74.5t-9.5 -56.5h-15h-18.5
h-16.5q18 102 33 198q-16 0 -51 -0.5t-50 -0.5q-1 24 2 50q19 0 55 -0.5t53 -0.5q4 25 11.5 71t10.5 66h-109q0 19 2 47q20 0 58.5 0.5t56.5 0.5q20 114 30 180q38 2 55 2q-5 -28 -16.5 -91t-16.5 -91zM330 418l-110 1q-3 -19 -10.5 -66t-11.5 -72h110q2 14 22 137z" />
    <glyph glyph-name="dollar" unicode="$" horiz-adv-x="524" 
d="M74 449q0 34 18.5 65.5t48.5 51.5q49 33 111 37q0 18 0.5 52t0.5 49q22 7 51 7q0 -30 -2 -106q83 1 139 -29q0 -11 -10.5 -31.5t-21.5 -26.5q-62 35 -108 39q-1 -33 -2.5 -101.5t-2.5 -101.5q80 -25 120.5 -59t40.5 -93q0 -76 -55 -122q-48 -41 -125 -48
q0 -17 -0.5 -50.5t-0.5 -50.5q-14 -2 -48 -4q1 34 1 103q-43 -2 -95 9t-85 30q13 40 37 55q81 -46 144 -48q2 66 4 222q-80 28 -120 59.5t-40 91.5zM143 460q0 -37 23.5 -56t81.5 -38q2 143 3 191q-48 -4 -74 -26q-34 -25 -34 -71zM390 183q0 43 -25 64t-83 40
q-2 -146 -4 -209q50 6 78 29q34 28 34 76z" />
    <glyph glyph-name="percent" unicode="%" horiz-adv-x="760" 
d="M511 602l-3 3q-62 -2 -219 -4q21 -15 35.5 -46.5t14.5 -71.5q0 -82 -51 -133q-40 -40 -101 -40q-52 0 -88 29q-58 49 -58 134q0 79 53 127q41 38 107 38q63 0 191.5 4t166.5 8q12 -13 22 -30q-151 -264 -176 -310q-30 -56 -95.5 -171.5t-92.5 -164.5q-32 14 -43 20
q23 42 62 110.5t70 124t58 105.5q20 38 70.5 128.5t76.5 139.5zM193 598q-37 0 -56 -22q-32 -35 -32 -101q0 -72 32 -102q23 -23 54 -23q29 0 49 18q35 31 35 109q0 65 -30 100q-15 21 -52 21zM576 317q59 0 94 -32q49 -47 49 -127t-49 -129q-40 -39 -101 -39q-55 0 -89 27
q-58 44 -58 131q0 83 56 133q41 36 98 36zM573 278q-34 0 -55 -24q-32 -34 -32 -103q0 -71 31 -100q22 -22 54 -22t53 20q31 31 31 106q0 64 -29 100q-18 23 -53 23z" />
    <glyph glyph-name="ampersand" unicode="&#x26;" horiz-adv-x="712" 
d="M301 360l-1 -5q93 -63 194 -184q23 28 41.5 76.5t21.5 86.5q1 8 -4 8l-58 3q0 31 1 44h104q14 0 44 0.5t44 0.5q2 -22 0 -46l-59 -2q-34 -130 -100 -209q17 -19 63 -75q11 -12 25 -12l76 -2q0 -29 -1 -43q-64 -4 -141 -6q-10 11 -34 42t-38 46q-96 -93 -229 -93
q-86 0 -141 37q-76 52 -76 137q0 59 37 109.5t106 86.5v4q-84 59 -84 138q0 68 55 112q49 41 123 41q68 0 111 -34q49 -39 49 -98q0 -103 -129 -163zM165 510q0 -40 22.5 -67t68.5 -57q104 50 104 127q0 43 -27 70q-26 26 -69 26q-42 0 -70 -26q-29 -28 -29 -73zM271 41
q100 0 177 79q-115 137 -227 211q-43 -21 -75.5 -60.5t-32.5 -93.5q0 -63 47 -102q43 -34 111 -34z" />
    <glyph glyph-name="quotesingle" unicode="'" horiz-adv-x="181" 
d="M130 697q-8 -138 -10 -224q-23 -7 -48 -7q-11 152 -18 218q39 13 76 13z" />
    <glyph glyph-name="parenleft" unicode="(" horiz-adv-x="328" 
d="M70 280q0 143 67 260t159 172q15 -18 23 -35q-71 -53 -124 -157.5t-53 -236.5q0 -238 176 -397q-14 -16 -30 -33q-43 35 -75 68t-68 85t-55.5 122t-19.5 152z" />
    <glyph glyph-name="parenright" unicode=")" horiz-adv-x="328" 
d="M258 287q0 -263 -221 -433q-8 7 -29 33q177 150 177 396q0 134 -51 236t-123 159q20 27 25 33q91 -55 156.5 -169t65.5 -255z" />
    <glyph glyph-name="asterisk" unicode="*" horiz-adv-x="357" 
d="M196 510q4 -83 5 -128q-23 -2 -47 0q1 22 3 64t3 64q-20 -15 -58 -41.5t-46 -32.5q-16 23 -24 39q45 28 112 66q-19 11 -56.5 33t-56.5 33q10 19 24 38q32 -20 105 -72q-1 44 -5 125q3 0 11 0.5t12 0.5q5 0 12.5 -0.5t10.5 -0.5q-1 -40 -5 -125q36 25 106 73
q14 -19 23 -39q-74 -44 -112 -66q76 -44 112 -67q-15 -26 -25 -38q-54 40 -104 74z" />
    <glyph glyph-name="plus" unicode="+" horiz-adv-x="524" 
d="M460 208h-170q-1 -69 -1 -196q-25 -3 -56 -3q1 64 1 199h-171q0 19 2 53q25 0 81.5 0.5t86.5 0.5q1 64 1 186q29 3 57 3q0 -25 -0.5 -88.5t-0.5 -99.5q30 0 88 0.5t84 0.5q2 -24 -2 -56z" />
    <glyph glyph-name="comma" unicode="," horiz-adv-x="245" 
d="M110 100q29 0 51 -25.5t22 -58.5q0 -53 -31.5 -95.5t-80.5 -70.5q-16 17 -29 35q68 43 68 93q0 33 -50 47q-4 31 11.5 53t38.5 22z" />
    <glyph glyph-name="hyphen" unicode="-" horiz-adv-x="315" 
d="M132 213h-30h-38.5h-31.5q0 36 1 53h102q26 0 74.5 0.5t73.5 1.5q0 -29 -3 -55h-148z" />
    <glyph glyph-name="period" unicode="." horiz-adv-x="245" 
d="M124 102q27 0 40.5 -17.5t13.5 -38.5q0 -22 -14.5 -38.5t-38.5 -16.5q-25 0 -41 15.5t-16 39.5q0 21 15 38.5t41 17.5z" />
    <glyph glyph-name="slash" unicode="/" horiz-adv-x="392" 
d="M60 -56q-9 2 -49 14q87 199 172 398q16 38 68 160t77 179q20 -3 55 -15q-16 -38 -71 -163t-80 -181q-137 -314 -172 -392z" />
    <glyph glyph-name="zero" unicode="0" horiz-adv-x="524" 
d="M479 327q0 -192 -90 -284q-52 -53 -134 -53q-77 0 -127 50q-82 82 -82 257q0 201 93 294q56 54 135 54t130 -55q75 -81 75 -263zM265 598q-48 0 -80 -40q-58 -70 -58 -256q0 -151 46 -219q35 -48 90 -48q46 0 78 38q57 69 57 237q0 175 -46 243q-34 45 -87 45z" />
    <glyph glyph-name="one" unicode="1" horiz-adv-x="524" 
d="M312 48l156 -3q1 -15 -1 -45h-195q-32 0 -99 -0.5t-104 -0.5q-1 16 1 46l162 3q5 0 5 4v494q-29 -8 -86 -24t-87 -24q-2 7 -5 21.5t-5 21.5q51 19 115.5 45t102.5 42.5t40 16.5q3 0 3 -5q0 -86 -0.5 -184.5t-1.5 -219.5t-1 -188z" />
    <glyph glyph-name="two" unicode="2" horiz-adv-x="524" 
d="M456 463q0 -132 -183 -296q-40 -40 -118 -106l1 -4q180 0 312 3h3q0 -37 -4 -61q-15 0 -119.5 0.5t-147.5 0.5h-143q-7 18 -14 41q113 93 175 154q43 41 71 72.5t56 84t28 101.5q0 69 -36 105q-33 36 -98 36q-62 0 -99 -30q-4 -4 -5 -12l-21 -97q-8 1 -26 3t-27 2
q1 16 5.5 66.5t6.5 76.5q72 42 174 42q95 0 147 -43q62 -50 62 -139z" />
    <glyph glyph-name="three" unicode="3" horiz-adv-x="524" 
d="M135 560l-18 -94q-23 1 -54 5q4 43 10 137q74 37 174 37q94 0 146 -39q24 -18 39.5 -47t15.5 -58q0 -60 -38 -100t-97 -57v-6q73 -11 113.5 -52.5t40.5 -98.5q0 -88 -80 -148q-63 -49 -192 -49q-77 0 -131 15q-19 126 -21 140q25 6 54 11l25 -92q1 -5 8 -10
q29 -14 82 -14q79 0 124 36q47 40 47 104q0 59 -47 91.5t-120 32.5h-69q-2 16 -2 51q109 -2 165.5 34t56.5 98q0 49 -32 78q-31 31 -100 31q-57 0 -94 -25q-5 -5 -6 -11z" />
    <glyph glyph-name="four" unicode="4" horiz-adv-x="524" 
d="M388 46l79 -3q0 -7 -0.5 -21.5t-0.5 -21.5h-118q-25 0 -72 -0.5t-68 -0.5q0 30 2 44l103 3q4 0 4 4q1 41 1 121h-273q-19 38 -25 58q41 61 141 197q139 185 165 217q35 0 66 -3q-1 -79 -2 -235.5t-1 -179.5q84 0 110 1q0 -28 -3 -54q-7 0 -51.5 0.5t-55.5 0.5
q-1 -42 -1 -127zM318 548l-4 1q-19 -26 -117 -162q-25 -36 -104 -154q-4 -7 2 -7q48 -1 222 -1z" />
    <glyph glyph-name="five" unicode="5" horiz-adv-x="524" 
d="M462 221q0 -58 -23 -103.5t-60 -72.5q-74 -55 -194 -55q-72 0 -118 13q-4 24 -22 138q27 8 53 11l25 -90q3 -8 9 -10q26 -13 67 -13q84 0 135 43q49 41 49 115q0 73 -50 112.5t-145 39.5q-33 0 -101 -8l-8 7q19 156 37 286h163h172q0 -23 -4 -61q-184 0 -276 1
q-6 -39 -27 -170q38 5 84 5q114 0 174 -55.5t60 -132.5z" />
    <glyph glyph-name="six" unicode="6" horiz-adv-x="524" 
d="M127 316h5q76 70 164 70q78 0 122 -44q60 -56 60 -141q0 -105 -81 -170q-51 -41 -132 -41q-85 0 -137 52q-37 37 -57.5 86t-20.5 133q0 186 87 293q74 91 198 91q60 0 94 -15q9 -60 15 -129q-40 -8 -52 -10l-19 84q-2 7 -6 10q-20 11 -54 11q-39 0 -72 -20.5t-53 -51.5
q-50 -79 -61 -208zM274 35q52 0 87 36q40 44 40 113q0 65 -38 111q-33 36 -88 36q-36 0 -77.5 -22.5t-65.5 -62.5q-2 -103 46 -165q34 -46 96 -46z" />
    <glyph glyph-name="seven" unicode="7" horiz-adv-x="524" 
d="M420 567l-3 5q-230 1 -267 -1q-22 -1 -27 -22l-22 -79q-12 2 -52 9q16 104 23 155q4 0 35.5 -0.5t52.5 -0.5h318q9 -20 20 -56q-159 -262 -220 -457q-14 -43 -16 -118q-21 -3 -80 -3q0 73 20 127q19 51 55 125t63 126t100 190z" />
    <glyph glyph-name="eight" unicode="8" horiz-adv-x="524" 
d="M346 343v-4q140 -51 140 -162q0 -92 -79 -146q-60 -41 -155 -41q-89 0 -147 39q-67 46 -67 130q0 109 140 176v5q-106 49 -106 140q0 36 18.5 68t45.5 53q58 44 144 44q84 0 132 -42t48 -103q0 -98 -114 -157zM147 490q0 -49 30 -74.5t113 -53.5q51 25 74 54.5t23 73.5
q0 48 -27 76q-33 33 -86 33q-55 0 -92 -31q-35 -32 -35 -78zM409 163q0 59 -38.5 89t-138.5 62q-115 -52 -115 -150q0 -59 40 -93q38 -35 102 -35q62 0 102 28q48 36 48 99z" />
    <glyph glyph-name="nine" unicode="9" horiz-adv-x="524" 
d="M397 316h-5q-74 -62 -158 -62q-76 0 -127 47q-59 57 -59 133q0 100 80 166q56 45 136 45q86 0 137 -54q74 -81 74 -226q0 -188 -84 -289q-71 -86 -198 -86q-58 0 -98 10q-14 75 -23 126q28 8 52 11l24 -80q2 -6 9 -11q18 -10 57 -10t73 19.5t53 47.5q53 80 57 213z
M256 600q-52 0 -86 -35q-43 -42 -43 -119q0 -64 34 -103q34 -38 92 -38q39 0 77 20t63 54q3 110 -44 173q-34 48 -93 48z" />
    <glyph glyph-name="colon" unicode=":" horiz-adv-x="245" 
d="M125 419q27 0 40.5 -18t13.5 -38q0 -22 -15 -38.5t-39 -16.5q-25 0 -41 15.5t-16 38.5q0 22 15 39.5t42 17.5zM125 102q26 0 39.5 -17.5t13.5 -37.5q0 -23 -14.5 -39.5t-38.5 -16.5q-25 0 -41 15.5t-16 38.5q0 22 15 39.5t42 17.5z" />
    <glyph glyph-name="semicolon" unicode=";" horiz-adv-x="245" 
d="M125 419q27 0 40 -17.5t13 -38.5q0 -23 -14.5 -39t-38.5 -16q-25 0 -41 15.5t-16 38.5q0 22 15 39.5t42 17.5zM110 100q28 0 50.5 -25.5t22.5 -58.5q0 -53 -31.5 -95.5t-80.5 -70.5q-16 17 -29 35q68 43 68 93q0 35 -50 47q-4 31 11 53t39 22z" />
    <glyph glyph-name="less" unicode="&#x3c;" horiz-adv-x="524" 
d="M173 238q167 -140 233 -194q-15 -24 -31 -41q-98 77 -271 210q-1 15 -1 47q14 11 117.5 87t156.5 114q17 -21 30 -42q-144 -110 -234 -181z" />
    <glyph glyph-name="equal" unicode="=" horiz-adv-x="524" 
d="M63 283q0 21 2 53q18 0 399 3q0 -31 -3 -56h-398zM62 132q0 32 3 56h398q0 -17 -2 -53q-210 0 -399 -3z" />
    <glyph glyph-name="greater" unicode="&#x3e;" horiz-adv-x="524" 
d="M332 234q-171 140 -234 190q15 24 30 40q57 -42 273 -205v-47q-94 -71 -272 -205q-12 12 -32 40q22 17 235 187z" />
    <glyph glyph-name="question" unicode="?" horiz-adv-x="426" 
d="M385 505q0 -60 -38 -110t-116 -105q-27 -20 -27 -35q0 -22 20 -80q-20 -11 -51 -17q-14 19 -30.5 59.5t-16.5 65.5q95 66 133.5 111t38.5 106q0 49 -28.5 78.5t-77.5 29.5q-44 0 -73 -21q-5 -5 -6 -12l-19 -86q-10 1 -29 3.5t-26 3.5q4 59 11 132q66 32 155 32
q88 0 134 -46.5t46 -108.5zM196 92q24 0 38.5 -16.5t14.5 -36.5q0 -19 -15.5 -33.5t-37.5 -14.5q-23 0 -38.5 14t-15.5 35q0 20 15 36t39 16z" />
    <glyph glyph-name="at" unicode="@" horiz-adv-x="623" 
d="M394 343h4l16 30q8 -1 46 -11q-16 -58 -54 -217q-1 -7 7 -7q41 0 70 29q47 43 47 117q0 78 -50 132.5t-145 54.5q-98 0 -169.5 -77.5t-71.5 -198.5q0 -100 58.5 -150t137.5 -50q71 0 123 35q11 -14 17 -31q-62 -40 -156 -40t-161.5 61t-67.5 172q0 139 89 226.5t214 87.5
q101 0 165.5 -59.5t64.5 -151.5q0 -99 -64 -153q-52 -44 -136 -44q-6 0 -16.5 6t-15.5 12q2 20 11 50l-6 2q-73 -69 -120 -69q-12 0 -33 12t-28 26q-2 5 -2 20q0 42 15 85q16 49 53 89t84 40q44 0 74 -28zM232 169q0 -23 22 -23q21 0 61.5 33t51.5 57q5 15 18 67
q-20 28 -61 28q-47 0 -76 -78q-16 -45 -16 -84z" />
    <glyph glyph-name="A" unicode="A" horiz-adv-x="606" 
d="M-13 46l56 3q4 0 5 4q38 97 120 312.5t112 292.5q22 2 54 2q40 -108 127.5 -354t91.5 -257l61 -3q0 -31 -1 -46h-94q-24 0 -68.5 -0.5t-63.5 -0.5q0 8 0.5 24t0.5 23l78 3q4 0 2 5q-2 7 -22 63t-29 81q-1 5 -7 5l-239 -1q-5 -15 -53 -153l90 -3q0 -31 -1 -46h-133
q-15 0 -45 -0.5t-43 -0.5q0 8 0.5 24t0.5 23zM299 547h-4q-17 -45 -53 -145t-53 -145q-1 -6 2 -6l210 -1q-40 120 -102 297z" />
    <glyph glyph-name="B" unicode="B" horiz-adv-x="574" 
d="M47 0q0 31 1 46l70 2q5 0 5 5v548l-75 2q0 32 1 46q86 2 176 2q132 0 190 -27q35 -17 57 -50t22 -71q0 -52 -33.5 -92t-85.5 -59v-6q68 -8 114 -53t46 -105q0 -84 -68 -136.5t-181 -52.5q-13 0 -63 0.5t-59 0.5h-117zM202 602l-1 -239q12 -2 48 -2q69 0 117.5 35t48.5 90
q0 54 -39.5 86.5t-115.5 32.5q-31 0 -58 -3zM201 313l-1 -231q0 -22 17.5 -29.5t67.5 -7.5q68 0 117.5 33.5t49.5 101.5q0 54 -46 94.5t-145 40.5q-53 0 -60 -2z" />
    <glyph glyph-name="C" unicode="C" horiz-adv-x="585" 
d="M50 288q0 187 131 296q92 76 227 76q80 0 128 -21q6 -84 9 -170q-9 -1 -56 -6l-17 108q-1 12 -8 15q-28 18 -82 18q-95 0 -158 -64q-90 -90 -90 -228q0 -66 14 -111t48 -85q28 -31 73 -49.5t95 -18.5q83 0 177 42q10 -39 12 -51q-120 -49 -204 -49q-114 0 -193 60
q-49 38 -77.5 100.5t-28.5 137.5z" />
    <glyph glyph-name="D" unicode="D" horiz-adv-x="691" 
d="M48 -1q0 32 1 47l69 2q4 0 4 5l1 547l-75 3q0 8 0.5 23.5t0.5 22.5q108 2 206 2q159 0 247 -53q63 -37 101 -104.5t38 -148.5q0 -88 -32 -162t-93 -119q-89 -65 -232 -65q-22 0 -65.5 0.5t-53.5 0.5q-17 0 -57.5 -0.5t-59.5 -0.5zM204 601l-2 -519q0 -21 13.5 -28.5
t62.5 -7.5q131 0 200 63q36 33 57.5 88.5t21.5 117.5q0 82 -21 133.5t-69 94.5q-72 62 -203 62q-47 0 -60 -4z" />
    <glyph glyph-name="E" unicode="E" horiz-adv-x="555" 
d="M50 46l70 3q3 0 3 3v549l-74 3q0 16 2 46h115h221q42 1 87 1q6 -75 9 -152q-44 -6 -53 -6l-16 87q-3 15 -23 17q-43 5 -158 5h-30l-1 -246q103 0 157 1q22 1 23 20l5 48h51q-1 -16 -1.5 -48t-0.5 -48v-92q-32 -2 -51 -2l-4 53q-1 19 -24 19q-45 1 -155 1l-1 -240
q0 -13 8.5 -16.5t47.5 -3.5q125 0 155 7q12 3 18 20l32 91q12 -2 52 -10q-14 -64 -35 -157q-12 0 -122 0.5t-189 0.5q-22 0 -61.5 -0.5t-56.5 -0.5v47z" />
    <glyph glyph-name="F" unicode="F" horiz-adv-x="531" 
d="M123 601l-74 2q0 17 2 47h114h222q42 1 89 1q8 -98 11 -159q-8 -1 -26 -3.5t-28 -3.5l-19 95q-3 16 -22 18q-54 4 -168 4h-20l-2 -261q110 2 157 2q22 1 25 19l7 51q34 0 50 -1q-1 -16 -1 -49.5t-1 -50.5v-92q-9 0 -26 -0.5t-26 -0.5l-4 54q-1 18 -25 19q-90 2 -156 2
l-1 -245l117 -3q1 -15 -1 -46h-149q-21 0 -61 -0.5t-57 -0.5q0 32 1 47l68 3q4 0 4 4v548z" />
    <glyph glyph-name="G" unicode="G" horiz-adv-x="665" 
d="M513 461l-13 100q-2 13 -9 19q-34 27 -103 27q-98 0 -163 -64q-88 -83 -88 -223q0 -136 71 -208q70 -74 187 -74q25 0 46.5 4t33.5 9.5t12 10.5l1 170l-108 2q0 16 2 48q19 0 68 -0.5t76 -0.5q17 0 49.5 0.5t47.5 0.5q0 -33 -1 -48l-51 -2q-4 0 -4 -4l-2 -205
q-56 -33 -178 -33q-145 0 -227 68q-110 94 -110 251q0 91 39 165.5t106 121.5q89 64 216 64q95 0 151 -28q6 -99 8 -165q-8 -1 -17.5 -2t-21.5 -2t-18 -2z" />
    <glyph glyph-name="H" unicode="H" horiz-adv-x="731" 
d="M54 46l65 3q4 0 4 4v548l-71 3q-1 16 1 46h114h123q0 -31 -1 -47l-82 -2q-3 0 -3 -4l-1 -231q0 -3 5 -3l321 -1v239l-85 2q0 32 1 47h125h108q0 -31 -1 -46l-64 -3q-3 0 -3 -4l-2 -548l74 -3q0 -7 -0.5 -22.5t-0.5 -23.5h-115q-20 0 -62 -0.5t-59 -0.5q0 7 0.5 23t0.5 24
l78 3q5 0 5 4v256q0 4 -5 4l-321 -1l-1 -263l89 -3q0 -32 -1 -47q-17 0 -60 0.5t-65 0.5q-19 0 -57.5 -0.5t-54.5 -0.5q0 32 1 47z" />
    <glyph glyph-name="I" unicode="I" horiz-adv-x="324" 
d="M123 601l-79 3q0 31 1 46h124h117q1 -16 -1 -46l-79 -3q-2 0 -2 -4l-3 -548l86 -3q0 -32 -1 -47q-16 0 -57.5 0.5t-62.5 0.5q-20 0 -61 -0.5t-59 -0.5q0 32 1 47l72 3q4 0 4 4v548z" />
    <glyph glyph-name="J" unicode="J" horiz-adv-x="493" 
d="M462 606l-71 -3q-2 0 -2 -4q-1 -57 -1 -173.5v-174.5q0 -69 -10.5 -111.5t-38.5 -80.5q-61 -79 -185 -79q-61 0 -113 12q-5 39 -16 154q24 6 53 9l19 -99q1 -8 8 -13q25 -12 66 -12q76 0 111 56q18 28 22.5 61.5t4.5 99.5q0 57 -0.5 176t-0.5 178l-126 4q0 7 0.5 22.5
t0.5 21.5h170h110q0 -30 -1 -44z" />
    <glyph glyph-name="K" unicode="K" horiz-adv-x="631" 
d="M123 601l-72 3q0 8 0.5 23.5t0.5 22.5h116h110q0 -32 -1 -47l-70 -2q-3 0 -3 -6l-2 -241q48 3 69 8q66 63 197 234q4 4 -2 4l-67 3q0 32 1 47h129h80q0 -31 -1 -46l-53 -3q-78 -91 -220 -249v-5q57 -41 116 -137q62 -97 89 -136q15 -23 33 -24l72 -3q0 -17 -2 -47
q-24 -1 -80 -1q-11 0 -34.5 -0.5t-32.5 -0.5q-11 13 -108 169q-89 142 -125 142q-33 0 -61 -2l-1 -258l81 -3q0 -32 -1 -47q-15 0 -55.5 0.5t-60.5 0.5q-19 0 -58 -0.5t-56 -0.5q0 32 1 47l67 3q3 0 3 4z" />
    <glyph glyph-name="L" unicode="L" horiz-adv-x="523" 
d="M123 601l-74 2q0 17 2 47h117h127q0 -32 -1 -47l-88 -2q-2 0 -2 -4l-3 -529q0 -14 6.5 -17.5t36.5 -3.5q128 0 160 6q12 3 18 21l36 105q32 -5 52 -12q-11 -54 -39 -168q-13 0 -119 0.5t-185 0.5q-22 0 -61.5 -0.5t-56.5 -0.5q0 7 0.5 23t0.5 24l69 3q3 0 3 4z" />
    <glyph glyph-name="M" unicode="M" horiz-adv-x="869" 
d="M121 600l-70 2q0 33 1 48h177q14 -35 89 -224.5t119 -298.5h5l101.5 255.5t107.5 267.5h167q0 -16 -2 -48l-64 -2q-3 0 -3 -5q0 -196 2 -546l70 -3q0 -31 -1 -46h-108q-21 0 -60.5 -0.5t-54.5 -0.5q-1 16 1 47l76 3q4 0 4 4q0 26 -3 503h-5q-112 -293 -219 -525
q-3 0 -18 -0.5t-27 -0.5q-119 271 -217 530h-7q0 -81 -2 -255.5t-3 -255.5l88 -3q1 -15 -1 -46h-123q-18 0 -49.5 -0.5t-44.5 -0.5q0 32 1 47l66 3q3 0 3 4q1 85 2.5 275.5t1.5 271.5z" />
    <glyph glyph-name="N" unicode="N" horiz-adv-x="716" 
d="M48 46l64 3q3 0 3 4v548l-73 3q0 32 1 46h145q222 -331 358 -540l5 1q-2 328 -4 490l-94 2q0 7 0.5 23t0.5 24h124h96v-14v-17.5v-14.5l-61 -3q-3 0 -3 -4l-3 -593q-24 -11 -53 -11q-172 237 -372 538h-6q0 -81 -0.5 -241t-0.5 -241l99 -2q0 -32 -1 -47h-131
q-17 0 -49.5 -0.5t-45.5 -0.5q0 32 1 47z" />
    <glyph glyph-name="O" unicode="O" horiz-adv-x="718" 
d="M346 -10q-126 0 -208 84q-88 90 -88 245q0 92 39 167.5t100 117.5q83 56 189 56q97 0 167 -50q56 -39 89.5 -109.5t33.5 -155.5q0 -172 -105 -274q-83 -81 -217 -81zM360 40q95 0 149 62q73 84 73 222q0 146 -72 224q-55 62 -145 62q-83 0 -141 -52q-88 -79 -88 -232
q0 -147 73 -224q58 -62 151 -62z" />
    <glyph glyph-name="P" unicode="P" horiz-adv-x="547" 
d="M123 601l-69 2q0 31 1 46q92 2 164 2q104 0 162 -17q60 -17 94.5 -64.5t34.5 -102.5q0 -64 -36 -115.5t-89 -74.5q-58 -25 -142 -25q-34 0 -42 1l-1 -203l112 -3q0 -32 -1 -47h-149q-74 0 -108 -1q0 32 1 47l64 3q4 2 4 4v548zM203 600l-2 -291q8 -8 53 -8q67 0 107 25
q68 42 68 128q0 73 -47 111.5t-128 38.5q-42 0 -51 -4z" />
    <glyph glyph-name="Q" unicode="Q" horiz-adv-x="718" 
d="M50 316q0 95 40 171.5t105 120.5q79 52 184 52q88 0 154 -41q65 -41 100.5 -115.5t35.5 -161.5q0 -85 -28.5 -155.5t-76.5 -115.5q-50 -49 -110 -67v-5q81 -51 148 -80q34 -14 74 -14t86 14q5 -17 7 -48q-91 -29 -135 -29q-34 0 -75 22q-75 38 -184 127q-7 -1 -23 -1
q-130 0 -214 84q-88 88 -88 242zM135 324q0 -148 77 -224q58 -60 150 -60t147 63q73 83 73 215q0 160 -76 235q-57 57 -139 57q-88 0 -146 -55q-37 -34 -61.5 -94.5t-24.5 -136.5z" />
    <glyph glyph-name="R" unicode="R" horiz-adv-x="600" 
d="M123 600l-69 3q0 31 1 46q112 2 193 2q82 0 137 -16q51 -14 86.5 -56t35.5 -94q0 -63 -37.5 -109.5t-98.5 -70.5v-5q9 -4 17.5 -10t15 -12t14.5 -17.5t13.5 -19.5t15 -25t14.5 -26t16.5 -31.5t17.5 -34.5q25 -47 35.5 -60.5t19.5 -13.5l61 -3q0 -32 -1 -47q-45 0 -66 -1
q-10 0 -34.5 -0.5t-30.5 -0.5q-19 26 -66.5 119t-61.5 114q-18 27 -37.5 37t-55.5 10q-50 0 -58 -2v-226l84 -4q0 -31 -1 -46h-121q-76 0 -109 -1q0 8 0.5 24t0.5 23l64 3q4 0 4 4zM203 600l-2 -274q5 -2 53 -2q87 0 129 43t42 97q0 69 -44.5 105t-120.5 36q-47 0 -57 -5z
" />
    <glyph glyph-name="S" unicode="S" horiz-adv-x="492" 
d="M98 180l18 -105q2 -8 8 -11q34 -23 93 -23q77 0 114 39q32 33 32 80q0 56 -26 80.5t-98 57.5q-13 6 -20 9q-74 34 -112.5 73t-38.5 100q0 39 18 74.5t47 58.5q60 47 163 47q80 0 122 -22q7 -66 12 -148q-8 -1 -27 -3.5t-29 -3.5l-17 94q-3 9 -7 12q-25 20 -74 20
q-60 0 -94 -30q-38 -33 -38 -83q0 -49 26 -71.5t111 -60.5q82 -36 120 -75.5t38 -103.5q0 -88 -59 -139q-61 -56 -179 -56q-89 0 -147 24q-3 34 -13 158q36 6 57 8z" />
    <glyph glyph-name="T" unicode="T" horiz-adv-x="567" 
d="M160 46l81 3q4 0 4 4v548q-84 0 -130 -4q-22 -2 -25 -19l-16 -97q-9 1 -28 2.5t-28 2.5q2 27 5 82.5t5 82.5q7 0 38 -0.5t54 -0.5h170h169q41 1 87 1q6 -106 8 -164q-9 -1 -56 -6l-16 98q-2 17 -24 18q-27 3 -131 3l-3 -551l92 -3q0 -7 -0.5 -23t-0.5 -24q-17 0 -61 0.5
t-65 0.5t-65 -0.5t-65 -0.5q0 32 1 47z" />
    <glyph glyph-name="U" unicode="U" horiz-adv-x="669" 
d="M184 601l-1 -330q-1 -70 9 -108t32 -66q40 -53 119 -53q70 0 116 46q48 50 48 176v99.5v128v103.5q0 4 -4 4l-84 2q0 32 1 47h116h104q1 -14 -1 -47l-63 -3l-2 -335q-1 -141 -71 -213q-58 -62 -163 -62q-112 0 -171 58q-40 39 -53 88.5t-13 126.5v332q0 6 -5 6l-61 2
q0 32 1 47h108h128q0 -31 -2 -47z" />
    <glyph glyph-name="V" unicode="V" horiz-adv-x="624" 
d="M630 604l-56 -3q-38 -104 -106 -274q-106 -271 -135 -336q-8 -1 -57 -1q-48 125 -127 347q-13 37 -28 81.5t-33 98t-27 81.5q0 3 -6 3l-57 3q-1 16 1 46h102h150q1 -15 -1 -47l-98 -3q28 -103 70 -228q67 -207 93 -279h5q42 106 96 258q68 192 82 245q0 4 -3 4l-87 3v47
h131h92q0 -31 -1 -46z" />
    <glyph glyph-name="W" unicode="W" horiz-adv-x="880" 
d="M885 604l-56 -3q-2 -7 -73 -271q-52 -197 -99 -339q-22 -2 -59 -2q-79 244 -148 494h-6q-90 -267 -175 -492q-22 -2 -56 -2q-34 127 -87 356q-11 47 -30 134.5t-26 118.5q0 3 -5 3l-58 3q0 31 1 46h100h147q0 -31 -1 -47l-96 -2q16 -107 41 -225q30 -157 54 -272h6
q23 68 85 256t87 261q14 2 54 2q20 -69 71 -250.5t77 -272.5h7q35 142 63 258q43 186 51 238q2 5 -3 5l-87 2q-1 16 1 47h129q64 0 92 1q0 -32 -1 -47z" />
    <glyph glyph-name="X" unicode="X" horiz-adv-x="589" 
d="M-11 46l58 3q3 0 6 4q29 39 96 131.5t103 140.5v7q-97 145 -176 266q-3 3 -7 3l-60 3q0 32 1 46h105h141q2 -22 0 -46l-88 -4q64 -110 135 -218h7q23 34 70.5 110t61.5 104q3 5 -2 5l-80 3q0 32 1 46h126h93q1 -15 -1 -46l-56 -3q-144 -206 -183 -260v-6q33 -46 194 -286
l64 -3q0 -31 -2 -46h-104h-137q0 31 1 46l78 3q5 0 3 6q-115 182 -148 227h-6q-57 -77 -154 -233l83 -3q0 -31 -1 -46h-129q-16 0 -48 -0.5t-46 -0.5q0 32 1 47z" />
    <glyph glyph-name="Y" unicode="Y" horiz-adv-x="562" 
d="M160 46l79 3q5 0 5 5v196q-19 34 -88.5 160t-105.5 188q-3 3 -4 3l-52 3q0 32 1 46h98h141q0 -7 -0.5 -22.5t-0.5 -23.5l-90 -4q74 -145 152 -292h5q95 171 149 288q0 5 -3 5l-81 2q0 32 1 47h123h86q0 -31 -1 -46l-51 -3q-34 -58 -103.5 -181.5t-95.5 -167.5l-1 -203
l91 -3q1 -15 -1 -47q-17 0 -61 0.5t-66 0.5q-21 0 -64 -0.5t-63 -0.5q0 32 1 47z" />
    <glyph glyph-name="Z" unicode="Z" horiz-adv-x="583" 
d="M494 191q28 -3 57 -10q-17 -84 -42 -182q-4 0 -53.5 0.5t-117 0.5h-115.5h-176q-3 7 -9 21.5t-9 21.5q74 93 410 550l-2 5q-40 0 -96 0.5t-73 0.5q-77 0 -102 -4q-15 -3 -21 -24l-33 -106q-2 0 -23 3.5t-32 5.5q15 87 32 178q21 0 91 -2h337q8 -19 18 -54
q-294 -398 -407 -540l1 -3q263 -2 305 9q21 5 28 27z" />
    <glyph glyph-name="bracketleft" unicode="[" horiz-adv-x="323" 
d="M107 -128v829q33 1 98 2t88 1q2 -22 0 -43l-112 -3q-7 0 -7 -8l-2 -733l122 -3q0 -30 -1 -44q-68 0 -186 2z" />
    <glyph glyph-name="backslash" unicode="\" horiz-adv-x="392" 
d="M329 -51q-28 64 -92 212t-80 184q-20 47 -72.5 168t-74.5 172q34 17 54 24q25 -59 79.5 -189t64.5 -154q28 -64 84 -195.5t86 -199.5q-32 -16 -49 -22z" />
    <glyph glyph-name="bracketright" unicode="]" horiz-adv-x="323" 
d="M217 701l-3 -829q-116 -2 -184 -2q-1 14 -1 44l121 3v733q0 8 -7 8l-112 3q-2 21 0 43q20 0 86.5 -1t99.5 -2z" />
    <glyph glyph-name="asciicircum" unicode="^" horiz-adv-x="524" 
d="M242 632q15 1 46 1q66 -98 183 -273q-16 -15 -41 -32q-112 153 -166 228q-68 -98 -160 -227q-26 17 -43 31q71 105 181 272z" />
    <glyph glyph-name="underscore" unicode="_" horiz-adv-x="500" 
d="M0 -73h500v-54h-500v54z" />
    <glyph glyph-name="grave" unicode="`" horiz-adv-x="333" 
d="M119 640q14 -13 61.5 -62t71.5 -72q-15 -19 -29 -31q-15 12 -45 37t-55.5 46t-46.5 38q13 17 43 44z" />
    <glyph glyph-name="a" unicode="a" horiz-adv-x="454" 
d="M293 35h-5q-86 -45 -145 -45q-40 0 -77 28.5t-37 69.5q0 49 51.5 92t143.5 43q35 -1 69 -1q2 79 -17.5 113.5t-65.5 34.5q-59 0 -120 -66q-18 19 -35 38q90 88 178 88q59 0 96.5 -41t37.5 -121q0 -126 -2 -210q0 -15 9 -15l67 2q2 -19 0 -42q-42 -13 -115 -13
q-9 8 -33 45zM111 97q0 -24 18.5 -39t47.5 -15q53 0 111 41q3 1 3 8v85q-10 2 -55 2q-63 0 -94 -23t-31 -59z" />
    <glyph glyph-name="b" unicode="b" horiz-adv-x="509" 
d="M67 -5q7 61 7 117q1 161 1 518l-73 3q0 29 1 42q18 2 53.5 8.5t63.5 11.5t31 5q2 0 2 -3q0 -155 -3 -316l5 -1q67 33 94.5 41.5t58.5 8.5q67 0 114 -57.5t47 -128.5q0 -72 -24 -129q-27 -61 -81 -96q-44 -29 -114 -29q-60 0 -113 31l-23 -34q-15 0 -47 8zM387 210
q0 71 -25 113q-28 47 -82 47q-64 0 -129 -47q0 -38 -0.5 -117t-0.5 -116q0 -19 31.5 -36t69.5 -17q54 0 90 37q46 48 46 136z" />
    <glyph glyph-name="c" unicode="c" horiz-adv-x="403" 
d="M40 184q0 108 68 177t175 69q61 0 92 -21q0 -11 -12 -33.5t-21 -28.5q-1 0 -12 5t-21.5 9t-26.5 7.5t-30 3.5q-53 0 -85 -37q-46 -50 -46 -131q0 -79 37 -122q30 -38 90 -38q47 0 123 30q8 -20 11 -43q-80 -41 -158 -41q-77 0 -130.5 52t-53.5 142z" />
    <glyph glyph-name="d" unicode="d" horiz-adv-x="521" 
d="M365 35h-5q-59 -29 -85 -37t-55 -8q-75 0 -121 49q-59 56 -59 151q0 101 67 176q57 64 149 64q46 0 99 -20l4 3q0 71 -2 217l-83 2q0 30 1 43q21 3 59.5 9t67 11t32.5 5q2 0 2 -3q0 -51 -3 -630q0 -21 11 -21l68 3v-43q-51 -16 -117 -16q-16 13 -30 45zM357 96
q0 180 -1 256q-47 26 -97 26q-64 0 -100 -48q-36 -52 -36 -130q0 -73 32 -116q31 -41 85 -41q57 0 111 39q6 4 6 14z" />
    <glyph glyph-name="e" unicode="e" horiz-adv-x="445" 
d="M40 191q0 101 59 170t154 69q77 0 118 -52q38 -47 38 -129q-4 -10 -15.5 -23t-18.5 -14q-88 -3 -253 -3q-3 -83 32 -124q35 -40 103 -40q53 0 133 32q8 -21 11 -45q-87 -42 -159 -42q-95 0 -148.5 56t-53.5 145zM242 383q-47 0 -75 -31q-39 -45 -42 -97q109 0 195 3
q13 2 13 11q0 52 -27 84q-25 30 -64 30z" />
    <glyph glyph-name="f" unicode="f" horiz-adv-x="334" 
d="M177 46l98 -2q0 -30 -1 -44h-135q-15 0 -49 -0.5t-50 -0.5q-1 15 1 44l57 3q4 0 4 4v317h-76q0 20 2 50q46 2 68 2q5 0 5 7q1 79 12.5 116.5t41.5 70.5q66 72 152 72q34 0 64 -12q0 -13 -11 -35t-21 -30q-35 15 -67 15q-42 0 -63 -30q-19 -24 -25 -57t-5 -117
q24 0 73 0.5t72 0.5q0 -7 -3 -52q-99 0 -142 -1q-1 -46 -1.5 -158.5t-0.5 -162.5z" />
    <glyph glyph-name="g" unicode="g" horiz-adv-x="466" 
d="M138 114v6q-93 43 -93 142q0 68 53 118t139 50q43 0 68 -9q9 -2 22 -2q15 1 43.5 2t51 2t36.5 2q2 -26 0 -51h-95l-1 -4q36 -33 36 -95q0 -68 -45 -114q-60 -60 -165 -54q-48 -40 -48 -52q0 -19 25.5 -25t104.5 -8q116 -6 145 -27q25 -16 35.5 -33t10.5 -46
q0 -42 -26.5 -77.5t-76.5 -56.5q-69 -28 -153 -28q-91 0 -141 30t-50 85q0 26 21 45q15 11 43 31.5t41 31.5v6q-59 16 -59 68q0 7 10.5 15t67.5 48zM124 265q0 -60 27 -88t69 -28q43 0 71.5 32.5t28.5 91.5q0 53 -24 83q-24 31 -70 31q-47 0 -74.5 -32t-27.5 -90zM386 -101
q0 34 -23 46t-89 17q-83 5 -104 5q-56 -49 -68 -66q-10 -16 -10 -32q0 -35 38 -53t87 -18q70 0 114 24q55 28 55 77z" />
    <glyph glyph-name="h" unicode="h" horiz-adv-x="545" 
d="M26 -1q0 30 1 44l57 3q4 0 4 4v583l-76 1q-1 16 1 43q17 2 53 7.5t65.5 10.5t32.5 5t3 -4q0 -41 -0.5 -95t-1.5 -123.5t-1 -106.5l4 -1q74 40 103 50t60 10q69 0 112 -72q14 -25 14 -74q0 -82 -2 -238l66 -2q0 -7 -0.5 -22t-0.5 -22h-103q-16 0 -51 -0.5t-50 -0.5
q0 29 1 44l59 3q3 0 3 4q1 55 1 183q0 79 -15 105q-20 32 -63 32q-60 0 -137 -56q-2 -156 -2 -268l77 -2q0 -7 -0.5 -22t-0.5 -22h-116q-14 0 -48 -0.5t-49 -0.5z" />
    <glyph glyph-name="i" unicode="i" horiz-adv-x="266" 
d="M135 631q26 0 38.5 -16t11.5 -36q0 -23 -15 -38t-38 -15t-38 15.5t-15 36.5q0 22 15 37.5t41 15.5zM102 360l-78 3q0 7 0.5 21t0.5 21q18 2 54.5 8.5t65.5 11.5t32 5q2 0 2 -3q0 -56 -1 -192t-1 -189l70 -2q0 -30 -1 -44h-111q-17 0 -52.5 -0.5t-52.5 -0.5q0 30 1 44
l67 3q4 0 4 5v309z" />
    <glyph glyph-name="j" unicode="j" horiz-adv-x="244" 
d="M121 632q27 0 39.5 -16.5t12.5 -37.5t-14.5 -36.5t-37.5 -15.5q-24 0 -39 15.5t-15 37.5q0 20 14.5 36.5t39.5 16.5zM94 359l-81 1q0 7 0.5 21.5t0.5 20.5q15 3 55 10t69.5 12.5t32.5 5.5q2 0 2 -3q-2 -222 -1 -343q0 -66 -8.5 -109t-31.5 -87q-42 -83 -106 -120
q-13 1 -33.5 16.5t-23.5 28.5q70 31 95 76q33 60 32 175z" />
    <glyph glyph-name="k" unicode="k" horiz-adv-x="499" 
d="M22 -1q0 30 1 44l62 3q2 0 2 4q1 175 1 583h-76q0 29 1 42q16 2 53 8.5t66 11.5t32 5t3 -4q0 -59 -1 -212t-1 -231q39 0 62 4q60 56 107 110q2 1 1 3t-3 2l-47 2q0 32 1 45h100q14 0 41 0.5t40 0.5v-46l-47 -3q-59 -56 -135 -126v-6q41 -34 84 -104q40 -65 53 -80
q9 -9 18 -9l59 -2q0 -29 -1 -44q-18 0 -68 -0.5t-64 -1.5q-28 36 -67 111q-48 83 -82 100q-29 0 -53 -2q0 -24 -0.5 -81t-0.5 -80l63 -2q0 -30 -1 -44h-101q-18 0 -52.5 -0.5t-49.5 -0.5z" />
    <glyph glyph-name="l" unicode="l" horiz-adv-x="256" 
d="M18 -1q0 30 1 44l67 3q3 0 3 4q1 176 1 582l-80 2q0 29 1 43q19 2 56 7.5t66.5 10.5t32.5 5t3 -4q0 -22 -2 -277t-2 -373l78 -2q0 -30 -1 -44h-116q-18 0 -55 -0.5t-53 -0.5z" />
    <glyph glyph-name="m" unicode="m" horiz-adv-x="812" 
d="M101 360l-76 2q0 7 0.5 21t0.5 20q17 3 50.5 9.5t59 11.5t28.5 5t3 -3q5 -31 8 -54l4 -1q66 39 93.5 49t56.5 10q63 0 107 -67h3q67 43 97 54t63 11q64 0 106 -65q21 -34 21 -76q0 -10 -3 -241l64 -2q0 -30 -1 -44h-103q-18 0 -50 -0.5t-45 -0.5q0 30 1 44l57 3q3 0 3 4
q0 35 0.5 104t0.5 94q0 57 -12 83q-19 39 -68 39t-119 -52q1 -44 0 -143.5t-1 -127.5l68 -3q0 -30 -1 -44h-111q-16 0 -47.5 -0.5t-43.5 -0.5q0 30 1 44l56 4q3 0 3 4q1 66 1 204q0 61 -12 83q-19 34 -63 34q-25 0 -59 -15.5t-63 -38.5q-1 -51 -2 -156.5t-1 -114.5l71 -3
q0 -30 -1 -44h-110q-16 0 -50 -0.5t-48 -0.5q0 8 0.5 23t0.5 22l59 3q4 0 4 4z" />
    <glyph glyph-name="n" unicode="n" horiz-adv-x="558" 
d="M101 360l-77 1q0 17 2 41q16 3 49.5 10t59 12t28.5 5q2 0 2 -3q5 -33 11 -60l5 -1q70 43 99.5 54t64.5 11q67 0 107 -68q19 -34 19 -74q0 -17 -3 -242l64 -2q0 -30 -1 -44h-105q-16 0 -49 -0.5t-47 -0.5q0 30 1 44l58 3q3 0 3 4q1 54 1 180q0 79 -13 101q-21 38 -68 38
q-27 0 -64.5 -17t-67.5 -41q-3 -114 -3 -265l72 -2q0 -30 -1 -44h-113q-16 0 -49 -0.5t-48 -0.5q0 30 1 44l60 3q3 0 3 4z" />
    <glyph glyph-name="o" unicode="o" horiz-adv-x="505" 
d="M245 -10q-86 0 -138 47q-67 61 -67 164q0 114 85 183q56 46 137 46q73 0 124 -38q78 -59 78 -173q0 -120 -86 -187q-53 -42 -133 -42zM251 34q52 0 84 33q45 49 45 148q0 89 -40 133q-34 37 -85 37t-84 -34q-46 -47 -46 -142t46 -142q31 -33 80 -33z" />
    <glyph glyph-name="p" unicode="p" horiz-adv-x="522" 
d="M23 -227q0 29 1 43l58 4q4 0 4 6v534l-76 1q0 28 1 40q16 3 50 10.5t59.5 13.5t28.5 6q2 0 2 -2q5 -27 8 -53l5 -1q73 37 98.5 46t57.5 9q72 0 117 -60t44 -131q0 -72 -24 -123q-27 -62 -79 -97q-43 -29 -111 -29q-56 0 -102 23l-4 -2v-191l93 -2q0 -29 -1 -44h-130
q-17 0 -51 -0.5t-49 -0.5zM399 214q0 62 -21 104q-29 51 -87 51q-62 0 -126 -47q-2 -150 -2 -233q0 -17 32.5 -34t68.5 -17q53 0 87 34q48 50 48 142z" />
    <glyph glyph-name="q" unicode="q" horiz-adv-x="507" 
d="M359 33l-7 1q-52 -29 -75.5 -36t-51.5 -7q-76 0 -126 49q-59 59 -59 153q0 98 65 171q56 65 154 65q47 0 109 -22l28 29q13 -1 43 -9q-4 -48 -4 -91q-3 -432 -3 -515l64 -1q0 -16 -2 -44q-16 -1 -50 -1.5t-51 -0.5q-42 0 -126 -2q0 29 1 43l86 6q4 0 4 5zM259 378
q-64 0 -100 -48q-35 -47 -35 -129q0 -75 34 -117q30 -40 86 -40q45 0 107 40q6 4 6 16v251q-45 27 -98 27z" />
    <glyph glyph-name="r" unicode="r" horiz-adv-x="375" 
d="M38 -1q0 17 2 43l58 3q3 0 3 3v314l-73 1q0 7 0.5 21t0.5 20q17 3 51 9.5t60 11.5t28 5t2 -3q0 -10 1.5 -57t2.5 -77h4q41 79 71 108t64 29t60 -11q0 -16 -9.5 -41.5t-18.5 -32.5q-36 8 -51 8t-34 -15q-29 -23 -66 -93q-15 -32 -17 -92q0 -18 -0.5 -54.5t-0.5 -52.5
l95 -3q0 -29 -2 -43h-127q-17 0 -52.5 -0.5t-51.5 -0.5z" />
    <glyph glyph-name="s" unicode="s" horiz-adv-x="401" 
d="M87 134l14 -65q3 -8 8 -12q29 -21 69 -21q51 0 75 16q29 21 29 56q0 34 -19 46.5t-82 31.5q-9 3 -13 4q-60 19 -86 45t-26 67q0 66 63 101q48 27 118 27q62 0 98 -18q5 -39 11 -110q-24 -5 -51 -8l-13 63q-3 9 -8 12q-19 14 -58 14q-38 0 -63 -18q-24 -18 -24 -53
q0 -29 17.5 -40.5t81.5 -30.5t95.5 -43.5t31.5 -76.5q0 -69 -64 -106q-40 -25 -120 -25q-72 0 -121 19q-3 34 -14 116q42 8 51 9z" />
    <glyph glyph-name="t" unicode="t" horiz-adv-x="358" 
d="M202 -9q-50 0 -78 26q-18 16 -23 33t-5 44q0 108 2 158q0 16 0.5 60t0.5 56h-69q0 34 1 49q24 0 64 2q5 0 7 7q0 5 3 92q12 8 29 16t28.5 13t13.5 5q3 0 3 -3q-2 -68 -2 -130q106 0 157 1q0 -7 -3 -52h-156v-112q-1 -41 -1 -150q0 -31 18.5 -46.5t46.5 -15.5q34 0 96 16
q2 -10 7 -44q-69 -25 -140 -25z" />
    <glyph glyph-name="u" unicode="u" horiz-adv-x="528" 
d="M512 47q0 -29 -1 -42q-11 -4 -46.5 -9.5t-66.5 -5.5q-16 16 -32 53l-5 1q-61 -36 -88.5 -45t-60.5 -9q-50 0 -89.5 42.5t-39.5 94.5q0 45 0.5 126.5t0.5 115.5l-61 2q0 7 0.5 22.5t0.5 22.5q13 0 46.5 1t59 2t30.5 1q2 0 2 -3q-2 -152 -2 -239q-2 -69 15 -96
q23 -36 68 -36q52 0 119 51v272l-65 2q0 17 2 47q21 0 78 1t61 1q2 0 2 -3q0 -56 -1 -177t-1 -180q0 -14 7 -14z" />
    <glyph glyph-name="v" unicode="v" horiz-adv-x="473" 
d="M475 376l-47 -3q-28 -59 -86 -192q-34 -78 -89 -190q-14 -1 -57 -1q-61 157 -82 219q-16 49 -34.5 100.5t-21.5 60.5q-3 3 -5 3l-51 2q0 31 1 44h95h113q0 -30 -1 -44l-67 -2q8 -33 42 -142q50 -153 51 -155h6q30 71 58 141q44 111 56 152q0 4 -3 4l-57 2q0 31 1 44h102
h77q0 -29 -1 -43z" />
    <glyph glyph-name="w" unicode="w" horiz-adv-x="680" 
d="M681 376l-44 -3q-7 -19 -27.5 -82t-34.5 -105q-39 -114 -71 -195q-15 -1 -58 -1q-64 183 -97 303h-6q-57 -152 -127 -302q-14 -1 -54 -1q-26 86 -61 215q-10 37 -24 92t-19 72q-2 4 -5 4l-46 3v43h86h115q0 -29 -1 -44l-70 -1q4 -22 30 -142q16 -75 35 -153l5 -1
q15 40 59.5 155t61.5 160q10 1 58 1q7 -22 45.5 -149t51.5 -168h6q27 88 42 144q22 76 38 148q1 4 -3 4l-57 2q0 8 0.5 23t0.5 21h101q13 0 37 0.5t34 0.5q1 -14 -1 -44z" />
    <glyph glyph-name="x" unicode="x" horiz-adv-x="474" 
d="M0 43l41 3q3 0 11 5q25 29 143 160v7q-21 27 -61 77.5t-58 73.5q-4 4 -6 4l-48 2q0 30 1 44h94h107q0 -29 -1 -44l-59 -2q53 -76 85 -118h6q69 89 85 114q4 4 -1 4l-50 2q0 30 1 44h96q53 0 75 1q0 -16 -2 -44l-45 -3q-10 -12 -54 -63t-77 -88v-6q129 -166 132 -170
l53 -2q0 -7 -0.5 -22t-0.5 -22h-91h-111q0 30 1 44l52 2q3 0 4.5 2t-0.5 3q-30 47 -93 125h-5q-33 -38 -104 -130l56 -2q0 -30 -1 -44h-98q-54 0 -78 -1q0 30 1 44z" />
    <glyph glyph-name="y" unicode="y" horiz-adv-x="462" 
d="M466 376l-44 -3q-1 -3 -82 -202q-91 -216 -158 -319q-52 -78 -87 -98q-13 0 -37.5 17.5t-24.5 26.5q50 34 90 80q52 61 75 119q-72 182 -85 218q-12 31 -31.5 82.5t-27.5 72.5q0 3 -5 3l-49 3q0 7 0.5 22t0.5 21h87h121q0 -29 -1 -44l-71 -2q9 -30 46 -138
q25 -76 56 -160h6q32 77 55 140q24 65 51 153q0 5 -3 5l-61 2q0 31 1 44h101h78q0 -29 -1 -43z" />
    <glyph glyph-name="z" unicode="z" horiz-adv-x="441" 
d="M366 148q23 -3 51 -10q-5 -20 -16.5 -66.5t-17.5 -72.5q-4 0 -23 0.5t-49.5 0.5h-62.5h-117h-88q-11 28 -15 39q25 30 85.5 100t110.5 129.5t84 100.5l-1 5q-88 0 -160 -2q-22 0 -27 -15l-26 -79q-21 2 -53 10q5 22 15 66.5t15 66.5q28 -2 93 -2h221q11 -33 15 -49
q-68 -81 -279 -320l1 -4q139 0 184 4q26 2 31 20z" />
    <glyph glyph-name="braceleft" unicode="{" horiz-adv-x="334" 
d="M135 297v-6q30 -9 46.5 -33t16.5 -54q0 -37 -10 -93.5t-10 -89.5q0 -54 32.5 -85.5t94.5 -30.5q2 -27 1 -42q-89 0 -142.5 44.5t-53.5 115.5q0 37 12.5 95t12.5 82q0 33 -17.5 51.5t-68.5 17.5q-1 13 -1 43q51 0 69 16t18 45q0 22 -11.5 76.5t-11.5 90.5q0 78 50.5 122.5
t146.5 45.5q0 -29 -1 -42q-128 -1 -128 -118q0 -33 9.5 -86.5t9.5 -82.5q0 -62 -64 -82z" />
    <glyph glyph-name="bar" unicode="|" horiz-adv-x="524" 
d="M236 750h53v-1000h-53v1000z" />
    <glyph glyph-name="braceright" unicode="}" horiz-adv-x="334" 
d="M197 289v7q-63 18 -63 82q0 29 11 83t11 87q0 58 -30 87.5t-98 29.5q-1 14 -1 43q97 0 147 -44.5t50 -123.5q0 -36 -13.5 -90.5t-13.5 -76.5q0 -29 19 -45t69 -16q2 -25 -1 -43q-51 1 -69.5 -17.5t-18.5 -51.5q0 -24 13.5 -82t13.5 -95q0 -70 -54.5 -115t-142.5 -45
q0 29 1 43q62 -1 95.5 30.5t33.5 84.5q0 33 -11 89.5t-11 93.5q0 29 17 53t46 32z" />
    <glyph glyph-name="asciitilde" unicode="~" horiz-adv-x="524" 
d="M178 302q42 0 99 -36q2 -1 17 -10.5t21 -13t18 -7.5t23 -4q22 0 37 21t17 52q24 2 50 0q-2 -51 -31 -93t-74 -42q-9 0 -19 2t-17 4t-18 7.5l-15 7.5t-15 8.5t-12 7.5q-3 2 -14 9t-16 10t-14.5 7.5t-18.5 6.5t-19 2q-24 0 -40 -20t-22 -51q-7 0 -23.5 0.5t-25.5 0.5
q5 55 36.5 93t75.5 38z" />
    <glyph glyph-name="uni00A0" unicode="&#xa0;" horiz-adv-x="220" 
 />
    <glyph glyph-name="exclamdown" unicode="&#xa1;" horiz-adv-x="273" 
d="M90 -235q-1 0 -1 3q19 428 21 483q13 4 52 7q10 -207 11 -227q5 -125 13 -248q-14 -5 -50 -11.5t-46 -6.5zM136 327q-26 0 -39.5 16.5t-13.5 36.5q0 19 15.5 34.5t37.5 15.5q23 0 38 -14.5t15 -35.5t-14.5 -37t-38.5 -16z" />
    <glyph glyph-name="cent" unicode="&#xa2;" horiz-adv-x="524" 
d="M69 297q0 89 55.5 155t147.5 80q0 18 0.5 52t0.5 50q22 5 52 7q-1 -17 -1.5 -52t-0.5 -53q10 2 19 2q60 0 112 -25q0 -13 -10.5 -33t-21.5 -26q-62 31 -101 31q-1 -53 -2.5 -164t-1.5 -163q60 3 133 34q10 -32 12 -42q-81 -36 -145 -42q-1 -37 -1 -106q-14 -2 -49 -4
q0 15 0.5 51.5t0.5 56.5q-85 2 -142 51.5t-57 139.5zM143 315q0 -77 39 -118q32 -33 86 -38q0 52 1 162t2 162q-58 -9 -93 -59.5t-35 -108.5z" />
    <glyph glyph-name="sterling" unicode="&#xa3;" horiz-adv-x="524" 
d="M344 644q58 0 92 -15q7 -64 12 -142l-54 -6l-16 94q-4 11 -10 13q-20 7 -50 7q-48 0 -79 -32q-33 -35 -33 -103q0 -16 2 -36.5t5.5 -49t5.5 -45.5q47 0 181 2q0 -29 -3 -51h-172q2 -24 2 -35q0 -106 -62 -187q-7 -10 8 -10q196 0 220 7q12 1 20 21l33 98q15 -3 50 -12
q-12 -59 -38 -163q-13 0 -129.5 0.5t-194.5 0.5q-19 0 -59 -0.5t-61 -0.5q0 8 0.5 24.5t0.5 23.5l69 3q10 0 16 6q52 53 52 165q0 31 -4 59h-100q0 17 2 47q14 0 43.5 0.5t43.5 0.5q5 0 5 5q-14 96 -14 116q0 91 61 144q60 51 155 51z" />
    <glyph glyph-name="currency" unicode="&#xa4;" horiz-adv-x="524" 
d="M270 497q57 0 100 -27q20 24 69 80q19 -16 40 -39q-30 -35 -69 -78q37 -47 37 -112q0 -83 -48 -129q17 -18 46.5 -52t32.5 -37q-20 -18 -40 -34q-46 54 -78 88q-41 -28 -102 -28q-56 0 -94 23q-52 -58 -75 -84q-25 21 -39 34q20 24 73 83q-44 46 -44 120q0 71 45 123
q-27 31 -73 81q14 15 41 40q13 -14 38.5 -44t34.5 -40q43 32 105 32zM265 449q-49 0 -80 -29q-45 -43 -45 -109q0 -69 41 -107q30 -27 80 -27q51 0 80 26q45 38 45 114q0 70 -43 106q-29 26 -78 26z" />
    <glyph glyph-name="yen" unicode="&#xa5;" horiz-adv-x="524" 
d="M233 53v90q-108 0 -154 -1q-1 16 1 44h153v61h-156q0 29 1 43h139q-114 211 -157 291q-4 4 -7 4l-41 3q-1 16 1 45h81q26 0 72 0.5t64 0.5q0 -8 -0.5 -23.5t-0.5 -22.5l-87 -3q60 -124 136 -276h5q89 180 131 271q2 5 -4 5l-80 2q0 31 1 46h117q13 0 39 0.5t35 0.5v-46
l-42 -3q-35 -68 -159 -294q23 0 69 0.5t67 0.5q0 -30 -1 -45h-155v-61h153q0 -28 -1 -42q-104 0 -152 -1l-1 -95l96 -3q0 -31 -1 -46q-17 0 -61 0.5t-66 0.5q-21 0 -63.5 -0.5t-62.5 -0.5q0 16 2 46l83 3q6 0 6 5z" />
    <glyph glyph-name="brokenbar" unicode="&#xa6;" horiz-adv-x="524" 
d="M236 675h53v-350h-53v350zM236 175h53v-350h-53v350z" />
    <glyph glyph-name="section" unicode="&#xa7;" horiz-adv-x="452" 
d="M396 201q0 -76 -50 -131q20 -28 20 -72q0 -75 -52 -124q-51 -49 -127 -49q-101 0 -166 62q6 14 19.5 27.5t27.5 17.5q23 -24 57.5 -41t68.5 -17q50 0 79 32q26 29 26 74q0 40 -24 68.5t-87 67.5q-65 40 -96.5 82t-31.5 98q0 71 55 130q-29 34 -29 83q0 66 58 112
q47 37 119 37q88 0 142 -49q-4 -13 -17.5 -27t-26.5 -19q-17 18 -49 32.5t-60 14.5q-45 0 -68 -22q-32 -29 -32 -69q0 -38 26.5 -66t98.5 -74q61 -40 90 -81.5t29 -96.5zM119 318q0 -46 24 -77t79 -67q71 -48 93 -72q22 30 22 78q0 47 -23 76.5t-80 69.5q-70 51 -89 69
q-26 -29 -26 -77z" />
    <glyph glyph-name="dieresis" unicode="&#xa8;" horiz-adv-x="333" 
d="M88 582q22 0 32.5 -14t10.5 -31q0 -16 -11.5 -29t-30.5 -13t-31.5 12t-12.5 31q0 17 11.5 30.5t31.5 13.5zM246 582q20 0 31 -13.5t11 -30.5q0 -19 -12 -31t-31 -12q-20 0 -31.5 13t-11.5 29q0 17 11 31t33 14z" />
    <glyph glyph-name="copyright" unicode="&#xa9;" horiz-adv-x="761" 
d="M383 660q140 0 233 -96t93 -236t-96 -239t-235 -99q-140 0 -233 95.5t-93 236.5q0 139 96.5 238.5t234.5 99.5zM381 622q-120 0 -199.5 -87t-79.5 -211q0 -125 79 -210.5t200 -85.5q120 0 199.5 87.5t79.5 210.5q0 124 -79 210t-200 86zM461 385l-9 64q0 5 -5 8
q-15 10 -43 10q-46 0 -78 -29q-48 -46 -48 -124q0 -62 33 -97q32 -33 90 -33q48 0 98 24q4 -14 8 -40q-63 -28 -118 -28q-69 0 -115 34q-61 46 -61 132q0 98 73 158q53 45 133 45q53 0 77 -12q5 -51 6 -107q-22 -4 -41 -5z" />
    <glyph glyph-name="ordfeminine" unicode="&#xaa;" horiz-adv-x="361" 
d="M227 353h-3q-60 -32 -108 -32q-29 0 -57 21t-28 51q0 37 38 69.5t104 32.5h53q1 56 -13 80t-47 24q-43 0 -88 -47q-20 20 -29 30q63 65 135 65q44 0 74 -31t30 -90q0 -18 -0.5 -77.5t-0.5 -73.5q0 -5 1.5 -8t3.5 -2l52 1v-35q-53 -10 -95 -10q-12 12 -22 32zM97 401
q0 -18 14 -27.5t36 -9.5q35 0 75 28q3 1 3 4v61q-4 1 -35 1q-46 0 -69.5 -15.5t-23.5 -41.5z" />
    <glyph glyph-name="guillemotleft" unicode="&#xab;" horiz-adv-x="411" 
d="M118 223q36 -55 98 -144q-16 -16 -31 -27q-92 100 -141 149q-1 12 -1 38q60 62 141 151q17 -12 31 -28q-66 -92 -97 -139zM274 222q51 -77 97 -137q-12 -13 -29 -27q-70 76 -137 146v33q20 21 42.5 45.5t49.5 54.5t43 47q20 -16 31 -27q-59 -80 -97 -135z" />
    <glyph glyph-name="logicalnot" unicode="&#xac;" horiz-adv-x="524" 
d="M403 33v189h-344q0 20 2 54q65 1 199.5 2t195.5 1q3 0 3 -4q0 -37 -1 -122.5t-1 -116.5q-25 -3 -54 -3z" />
    <glyph glyph-name="uni00AD" unicode="&#xad;" horiz-adv-x="315" 
d="M132 213h-30h-38.5h-31.5q0 36 1 53h102q26 0 74.5 0.5t73.5 1.5q0 -29 -3 -55h-148z" />
    <glyph glyph-name="registered" unicode="&#xae;" horiz-adv-x="475" 
d="M239 660q78 0 130.5 -53.5t52.5 -132.5q0 -78 -54 -133.5t-132 -55.5q-79 0 -131 53.5t-52 132.5q0 78 54 133.5t132 55.5zM237 630q-64 0 -106.5 -46t-42.5 -112q0 -67 42 -112t107 -45t107.5 46t42.5 112q0 67 -42.5 112t-107.5 45zM172 400v147h-22q1 10 1 26
q12 0 34.5 0.5t32.5 0.5q40 0 59 -5t30 -18t11 -27q0 -40 -42 -55v-4q15 -8 37 -52q7 -13 15 -13h14v-26h-55q-6 8 -18.5 35t-16.5 33q-7 10 -24 10h-13v-52h24v-26h-88v26h21zM215 547v-68h13q45 0 45 36q0 32 -44 32h-14z" />
    <glyph glyph-name="macron" unicode="&#xaf;" horiz-adv-x="333" 
d="M267 555q2 -24 0 -48q-136 0 -201 1q-2 22 0 45q134 2 201 2z" />
    <glyph glyph-name="degree" unicode="&#xb0;" horiz-adv-x="314" 
d="M159 655q50 0 80 -29t30 -74t-32.5 -75.5t-78.5 -30.5q-47 0 -79 28t-32 74q0 42 32.5 74.5t79.5 32.5zM159 614q-26 0 -41 -19.5t-15 -45.5q0 -27 16 -44.5t40 -17.5q26 0 40 18t14 45q0 28 -14 46t-40 18z" />
    <glyph glyph-name="plusminus" unicode="&#xb1;" horiz-adv-x="524" 
d="M234 314l1 153q27 3 56 3q0 -19 -0.5 -71t-0.5 -84q31 0 89 0.5t84 0.5q2 -26 -2 -56h-171q-1 -54 -1 -146q-24 -3 -54 -3v149h-171q0 36 1 53q53 1 169 1zM460 1l-397 -1q0 21 2 53q248 2 398 2q0 -29 -3 -54z" />
    <glyph glyph-name="twosuperior" unicode="&#xb2;" 
d="M279 663q0 -67 -98 -146q-22 -19 -51 -38l2 -5q19 0 79 2t71 2q3 0 3 -2q0 -24 -3 -45h-151h-79q-1 3 -5.5 14.5t-6.5 17.5q55 37 94 71q27 24 38.5 36t27 38t15.5 51q0 26 -16 44q-15 16 -45 16t-47 -13l-3 -6l-8 -53q-15 0 -43 2q3 40 6 89q42 20 101 20q60 0 88 -26
q31 -26 31 -69z" />
    <glyph glyph-name="threesuperior" unicode="&#xb3;" 
d="M88 523l12 -48l3 -6q18 -9 43 -9q33 0 55 15t22 43t-23 43.5t-61 15.5h-39v38q115 -1 115 59q0 21 -14 32q-13 13 -47 13q-30 0 -45 -11q-3 -3 -3 -5l-8 -48q-28 2 -43 2q1 12 2.5 39.5t2.5 41.5q41 18 103 18t88 -21q28 -24 28 -52q0 -59 -72 -78v-5q40 -5 60.5 -27.5
t20.5 -49.5q0 -48 -42 -75q-36 -24 -106 -24q-54 0 -85 7q-1 8 -4.5 38t-5.5 48q3 0 19 2.5t24 3.5z" />
    <glyph glyph-name="acute" unicode="&#xb4;" horiz-adv-x="333" 
d="M223 640q20 -17 43 -44q-22 -17 -73.5 -59t-76.5 -62q-14 15 -28 31l67.5 67.5t67.5 66.5z" />
    <glyph glyph-name="mu" unicode="&#xb5;" horiz-adv-x="530" 
d="M516 54q6 -18 8 -41q-44 -23 -110 -23q-24 16 -46 61l-5 2q-50 -39 -79 -51t-56 -12q-40 0 -78 35l-4 -1q3 -195 4 -243q-13 -11 -37 -17t-37 -6q4 129 4 368q0 115 2 275q36 21 75 21q2 0 2 -3q-2 -154 -2 -240q0 -66 16 -93q25 -40 75 -40q32 0 72.5 26t40.5 47v281
q33 22 77 22q1 0 1 -3q0 -149 -2 -305q0 -71 32 -71q18 0 47 11z" />
    <glyph glyph-name="paragraph" unicode="&#xb6;" horiz-adv-x="536" 
d="M448 602l-3 -721q-23 -6 -52 -9l-1 731h-67l-3 -724q-16 -5 -52 -11l-1 360h-14q-51 0 -89 15q-56 22 -92.5 69t-36.5 117q0 66 36 117.5t86 74.5q64 30 181 30q23 0 167 -3q1 -15 1 -47z" />
    <glyph glyph-name="periodcentered" unicode="&#xb7;" horiz-adv-x="245" 
d="M124 317q27 0 40.5 -18t13.5 -38q0 -23 -15 -39.5t-39 -16.5q-25 0 -40.5 15.5t-15.5 39.5q0 21 15 39t41 18z" />
    <glyph glyph-name="cedilla" unicode="&#xb8;" horiz-adv-x="333" 
d="M150 -71l74 72h51l-61 -63q27 -5 42 -22t15 -41q0 -37 -34.5 -60t-90.5 -24q-1 5 -2.5 17t-2.5 17q73 5 73 44q0 17 -13 28q-14 11 -42 11z" />
    <glyph glyph-name="onesuperior" unicode="&#xb9;" 
d="M64 431q0 24 1 37l83 2q2 0 2 2v219q-23 -5 -85 -21q-3 13 -7 39q28 9 65.5 22.5t59.5 21t27 7.5q1 0 1 -2q0 -46 -0.5 -144t-0.5 -144l77 -2q0 -25 -1 -37h-106h-116z" />
    <glyph glyph-name="ordmasculine" unicode="&#xba;" horiz-adv-x="385" 
d="M187 321q-64 0 -102 36q-48 50 -48 119q0 84 60 135q44 36 102 36q55 0 93 -27q56 -45 56 -128q0 -93 -64 -142q-37 -29 -97 -29zM191 358q38 0 59 22q31 31 31 106q0 66 -28 98q-22 25 -58 25t-58 -25q-33 -35 -33 -99q0 -70 30 -103q22 -24 57 -24z" />
    <glyph glyph-name="guillemotright" unicode="&#xbb;" horiz-adv-x="411" 
d="M136 220q-49 76 -96 137q20 20 30 28q122 -133 136 -147q0 -23 -1 -33q-23 -26 -68.5 -74.5t-66.5 -71.5q-15 12 -30 27q60 80 96 134zM292 221q-62 94 -96 141q16 18 30 29q21 -23 45 -48t52.5 -55.5t44.5 -47.5q0 -5 -0.5 -18t-0.5 -19q-92 -100 -140 -151
q-19 15 -31 29q69 96 96 140z" />
    <glyph glyph-name="onequarter" unicode="&#xbc;" horiz-adv-x="733" 
d="M80 327q0 24 1 37l84 1q2 0 2 2v220q-61 -15 -85 -21q-6 26 -8 39q29 9 66 22t59.5 21t26.5 8q2 0 2 -3q-1 -46 -1.5 -143.5t-0.5 -144.5l78 -1q0 -25 -1 -37h-106h-117zM223 -16q-3 1 -17.5 7.5t-22.5 10.5q89 157 166 298q34 64 101.5 189.5t91.5 169.5q35 -13 44 -17
q-70 -125 -199 -364q-26 -48 -85.5 -154t-78.5 -140zM503 0v32l64 2q2 0 2 1v45q-24 -1 -152 -1q-3 6 -6.5 12.5t-7 14t-5.5 11.5q12 15 36.5 47t38.5 50q69 89 87 110q22 0 62 -2q0 -32 -0.5 -100.5t-0.5 -101.5h60q0 -6 -0.5 -19.5t-0.5 -20.5h-59v-46l42 -2q0 -22 -1 -32
h-75h-84zM570 267h-7q-9 -13 -27 -36.5t-29 -38.5q-33 -43 -49 -66q-4 -6 2 -6h109z" />
    <glyph glyph-name="onehalf" unicode="&#xbd;" horiz-adv-x="733" 
d="M69 327q0 24 1 37l84 1q1 0 1 2v220q-4 -1 -34.5 -8.5t-50.5 -12.5q-1 6 -3.5 19t-3.5 20q29 9 66 22t59.5 21t26.5 8q1 0 1 -3q0 -46 -0.5 -143.5t-0.5 -144.5l78 -1q0 -6 -0.5 -18.5t-0.5 -18.5h-107h-116zM207 -16q-4 2 -18 8t-22 10q89 157 166 298q167 310 194 359
q35 -13 44 -17q-111 -199 -200 -364q-61 -111 -164 -294zM669 231q0 -67 -99 -145q-17 -14 -50 -38l1 -5q22 0 151 3q2 0 2 -2q0 -16 -2 -44h-151h-80q-6 14 -11 32q61 42 93 71q24 20 38 34.5t28.5 40t14.5 50.5q0 28 -16 44q-12 15 -45 15q-31 0 -46 -12q-3 -3 -3 -6
l-9 -54q-5 0 -13.5 1t-15.5 1.5t-13 0.5q1 16 3 46t2 43q42 19 101 19q61 0 89 -25q31 -29 31 -70z" />
    <glyph glyph-name="threequarters" unicode="&#xbe;" horiz-adv-x="733" 
d="M112 419l11 -49l1 -2l3 -3q18 -9 43 -9q33 0 55 15t22 43t-23 43.5t-61 15.5h-39v12v14.5v11.5q115 -1 115 58q0 21 -14 33q-13 13 -47 13q-28 0 -45 -11l-3 -6l-8 -47q-13 0 -43 2q1 12 2.5 39.5t2.5 41.5q41 18 103 18q60 0 87 -21q29 -23 29 -52q0 -58 -73 -79v-4
q41 -5 61.5 -27t20.5 -50q0 -48 -42 -75q-38 -25 -107 -25q-47 0 -84 7l-6 45t-5 41q13 2 44 7zM218 -16q-4 2 -18 8t-22 10q89 157 166 298q81 151 193 359q33 -11 44 -17q-167 -304 -199 -364q-61 -111 -164 -294zM497 0v32l63 2q3 0 3 1v45q-25 -1 -152 -1q-14 26 -19 38
q12 15 36.5 47t38.5 50q74 95 86 110q23 0 63 -2q0 -32 -0.5 -100.5t-0.5 -101.5h59v-40h-59q0 -7 -0.5 -23t-0.5 -23l43 -2q0 -22 -1 -32h-76h-83zM563 267h-6q-9 -13 -27 -36.5t-29 -38.5q-33 -43 -49 -66q-4 -6 2 -6h109v147z" />
    <glyph glyph-name="questiondown" unicode="&#xbf;" horiz-adv-x="426" 
d="M230 328q-24 0 -38.5 16.5t-14.5 36.5q0 19 15.5 34t36.5 15q23 0 39 -14t16 -35q0 -20 -15 -36.5t-39 -16.5zM40 -82q0 60 38 109.5t116 103.5q28 21 28 36q0 22 -20 80q23 11 51 17q14 -18 30 -59t17 -66q-96 -66 -134.5 -110.5t-38.5 -104.5q0 -49 28.5 -78.5
t78.5 -29.5q44 0 73 21q5 5 6 12l18 86q40 -4 56 -7q-1 -13 -12 -132q-66 -32 -155 -32q-88 0 -134 46t-46 108z" />
    <glyph glyph-name="Agrave" unicode="&#xc0;" horiz-adv-x="606" 
d="M-13 46l56 3q4 0 5 4q38 97 120 312.5t112 292.5q22 2 54 2q40 -108 127.5 -354t91.5 -257l61 -3q0 -31 -1 -46h-94q-24 0 -68.5 -0.5t-63.5 -0.5q0 8 0.5 24t0.5 23l78 3q4 0 2 5q-2 7 -22 63t-29 81q-1 5 -7 5l-239 -1q-5 -15 -53 -153l90 -3q0 -31 -1 -46h-133
q-15 0 -45 -0.5t-43 -0.5q0 8 0.5 24t0.5 23zM299 547h-4q-17 -45 -53 -145t-53 -145q-1 -6 2 -6l210 -1q-40 120 -102 297zM212 850q21 -15 75 -55.5t79 -58.5q-7 -13 -23 -35q-29 16 -90 51t-79 45q19 31 38 53z" />
    <glyph glyph-name="Aacute" unicode="&#xc1;" horiz-adv-x="606" 
d="M-13 46l56 3q4 0 5 4q38 97 120 312.5t112 292.5q22 2 54 2q40 -108 127.5 -354t91.5 -257l61 -3q0 -31 -1 -46h-94q-24 0 -68.5 -0.5t-63.5 -0.5q0 8 0.5 24t0.5 23l78 3q4 0 2 5q-2 7 -22 63t-29 81q-1 5 -7 5l-239 -1q-5 -15 -53 -153l90 -3q0 -31 -1 -46h-133
q-15 0 -45 -0.5t-43 -0.5q0 8 0.5 24t0.5 23zM299 547h-4q-17 -45 -53 -145t-53 -145q-1 -6 2 -6l210 -1q-40 120 -102 297zM400 850q18 -23 37 -54q-30 -16 -93.5 -52t-75.5 -43q-3 5 -11.5 17t-11.5 17q47 34 155 115z" />
    <glyph glyph-name="Acircumflex" unicode="&#xc2;" horiz-adv-x="606" 
d="M-13 46l56 3q4 0 5 4q38 97 120 312.5t112 292.5q22 2 54 2q40 -108 127.5 -354t91.5 -257l61 -3q0 -31 -1 -46h-94q-24 0 -68.5 -0.5t-63.5 -0.5q0 8 0.5 24t0.5 23l78 3q4 0 2 5q-2 7 -22 63t-29 81q-1 5 -7 5l-239 -1q-5 -15 -53 -153l90 -3q0 -31 -1 -46h-133
q-15 0 -45 -0.5t-43 -0.5q0 8 0.5 24t0.5 23zM299 547h-4q-17 -45 -53 -145t-53 -145q-1 -6 2 -6l210 -1q-40 120 -102 297zM311 779q-82 -53 -111 -74q-20 22 -27 31q62 51 120 100h35q21 -16 62.5 -50.5t55.5 -46.5q-9 -14 -27 -32q-17 12 -55 37t-53 35z" />
    <glyph glyph-name="Atilde" unicode="&#xc3;" horiz-adv-x="606" 
d="M-13 46l56 3q4 0 5 4q38 97 120 312.5t112 292.5q22 2 54 2q40 -108 127.5 -354t91.5 -257l61 -3q0 -31 -1 -46h-94q-24 0 -68.5 -0.5t-63.5 -0.5q0 8 0.5 24t0.5 23l78 3q4 0 2 5q-2 7 -22 63t-29 81q-1 5 -7 5l-239 -1q-5 -15 -53 -153l90 -3q0 -31 -1 -46h-133
q-15 0 -45 -0.5t-43 -0.5q0 8 0.5 24t0.5 23zM299 547h-4q-17 -45 -53 -145t-53 -145q-1 -6 2 -6l210 -1q-40 120 -102 297zM254 809q29 0 71 -26q36 -21 53 -21q29 0 34 45h39q0 -38 -20.5 -68.5t-56.5 -30.5q-19 0 -64 25q-4 2 -14.5 8t-15 8t-13 4.5t-16.5 2.5
q-14 0 -24.5 -12.5t-12.5 -31.5h-39q2 38 24 67.5t55 29.5z" />
    <glyph glyph-name="Adieresis" unicode="&#xc4;" horiz-adv-x="606" 
d="M-13 46l56 3q4 0 5 4q38 97 120 312.5t112 292.5q22 2 54 2q40 -108 127.5 -354t91.5 -257l61 -3q0 -31 -1 -46h-94q-24 0 -68.5 -0.5t-63.5 -0.5q0 8 0.5 24t0.5 23l78 3q4 0 2 5q-2 7 -22 63t-29 81q-1 5 -7 5l-239 -1q-5 -15 -53 -153l90 -3q0 -31 -1 -46h-133
q-15 0 -45 -0.5t-43 -0.5q0 8 0.5 24t0.5 23zM299 547h-4q-17 -45 -53 -145t-53 -145q-1 -6 2 -6l210 -1q-40 120 -102 297zM227 806q21 0 31.5 -14t10.5 -31q0 -16 -11.5 -29t-30.5 -13t-31.5 12t-12.5 31q0 17 11.5 30.5t32.5 13.5zM396 806q21 0 32 -13.5t11 -30.5
q0 -18 -12 -30.5t-29 -12.5q-21 0 -33.5 13t-12.5 29q0 17 11 31t33 14z" />
    <glyph glyph-name="Aring" unicode="&#xc5;" horiz-adv-x="606" 
d="M-13 46l56 3q4 0 5 4q38 97 120 312.5t112 292.5q22 2 54 2q40 -108 127.5 -354t91.5 -257l61 -3q0 -31 -1 -46h-94q-24 0 -68.5 -0.5t-63.5 -0.5q0 8 0.5 24t0.5 23l78 3q4 0 2 5q-2 7 -22 63t-29 81q-1 5 -7 5l-239 -1q-5 -15 -53 -153l90 -3q0 -31 -1 -46h-133
q-15 0 -45 -0.5t-43 -0.5q0 8 0.5 24t0.5 23zM299 547h-4q-17 -45 -53 -145t-53 -145q-1 -6 2 -6l210 -1q-40 120 -102 297zM307 870q43 0 69.5 -24t26.5 -60t-27.5 -61t-68.5 -25q-42 0 -70 22.5t-28 61.5q0 34 27.5 60t70.5 26zM307 833q-22 0 -35 -14.5t-13 -34.5
t13.5 -33.5t34.5 -13.5q22 0 34 14t12 34q0 21 -12 34.5t-34 13.5z" />
    <glyph glyph-name="AE" unicode="&#xc6;" horiz-adv-x="853" 
d="M426 272l-187 -1q-24 -44 -65.5 -119t-56.5 -103l91 -3q0 -16 -2 -46h-138q-15 0 -44.5 -0.5t-42.5 -0.5q0 32 1 47l57 3q5 2 7 5q57 95 179.5 303t171.5 290q1 3 5 3h107h182q42 1 87 1q9 -146 9 -152q-44 -5 -53 -6l-16 86q-3 17 -23 19q-42 4 -154 4h-29l-2 -280
q49 0 151 2q24 1 25 20l5 48h51q-1 -16 -1.5 -48t-0.5 -48v-89q-16 -1 -52 -1l-3 48q-1 12 -6 16t-18 4q-43 1 -151 1l-1 -207q0 -13 8.5 -16.5t47.5 -3.5q122 0 150 7q13 3 19 20l30 87q39 -6 52 -10q-20 -96 -33 -153q-11 0 -119.5 0.5t-187.5 0.5q-22 0 -63 -0.5
t-59 -0.5q0 32 1 47l72 3q4 0 4 3v216q0 4 -5 4zM431 596h-4q-76 -127 -158 -271q-4 -6 2 -6h160v277z" />
    <glyph glyph-name="Ccedilla" unicode="&#xc7;" horiz-adv-x="585" 
d="M399 -6l-59 -60q34 -6 51 -24t17 -44q0 -39 -38 -64.5t-103 -25.5q-3 19 -5 36q82 3 82 48q0 19 -13 28q-13 11 -51 11q-3 7 -8 24l68 67q-109 3 -184 60q-49 38 -77.5 100.5t-28.5 137.5q0 187 131 296q92 76 227 76q80 0 128 -21q6 -84 9 -170q-9 -1 -56 -6l-17 108
q-1 12 -8 15q-28 18 -82 18q-95 0 -158 -64q-90 -90 -90 -228q0 -66 14 -111t48 -85q28 -31 73 -49.5t95 -18.5q83 0 177 42q10 -39 12 -51q-82 -34 -154 -45z" />
    <glyph glyph-name="Egrave" unicode="&#xc8;" horiz-adv-x="555" 
d="M50 46l70 3q3 0 3 3v549l-74 3q0 16 2 46h115h221q42 1 87 1q6 -75 9 -152q-44 -6 -53 -6l-16 87q-3 15 -23 17q-43 5 -158 5h-30l-1 -246q103 0 157 1q22 1 23 20l5 48h51q-1 -16 -1.5 -48t-0.5 -48v-92q-32 -2 -51 -2l-4 53q-1 19 -24 19q-45 1 -155 1l-1 -240
q0 -13 8.5 -16.5t47.5 -3.5q125 0 155 7q12 3 18 20l32 91q12 -2 52 -10q-14 -64 -35 -157q-12 0 -122 0.5t-189 0.5q-22 0 -61.5 -0.5t-56.5 -0.5v47zM205 850q28 -20 84 -62t70 -52q-7 -13 -23 -35l-168 96q16 29 37 53z" />
    <glyph glyph-name="Eacute" unicode="&#xc9;" horiz-adv-x="555" 
d="M50 46l70 3q3 0 3 3v549l-74 3q0 16 2 46h115h221q42 1 87 1q6 -75 9 -152q-44 -6 -53 -6l-16 87q-3 15 -23 17q-43 5 -158 5h-30l-1 -246q103 0 157 1q22 1 23 20l5 48h51q-1 -16 -1.5 -48t-0.5 -48v-92q-32 -2 -51 -2l-4 53q-1 19 -24 19q-45 1 -155 1l-1 -240
q0 -13 8.5 -16.5t47.5 -3.5q125 0 155 7q12 3 18 20l32 91q12 -2 52 -10q-14 -64 -35 -157q-12 0 -122 0.5t-189 0.5q-22 0 -61.5 -0.5t-56.5 -0.5v47zM382 850q20 -26 36 -54q-29 -16 -89.5 -50.5t-78.5 -44.5q-15 20 -23 34q115 85 155 115z" />
    <glyph glyph-name="Ecircumflex" unicode="&#xca;" horiz-adv-x="555" 
d="M50 46l70 3q3 0 3 3v549l-74 3q0 16 2 46h115h221q42 1 87 1q6 -75 9 -152q-44 -6 -53 -6l-16 87q-3 15 -23 17q-43 5 -158 5h-30l-1 -246q103 0 157 1q22 1 23 20l5 48h51q-1 -16 -1.5 -48t-0.5 -48v-92q-32 -2 -51 -2l-4 53q-1 19 -24 19q-45 1 -155 1l-1 -240
q0 -13 8.5 -16.5t47.5 -3.5q125 0 155 7q12 3 18 20l32 91q12 -2 52 -10q-14 -64 -35 -157q-12 0 -122 0.5t-189 0.5q-22 0 -61.5 -0.5t-56.5 -0.5v47zM278 779q-84 -55 -112 -74q-4 5 -13 15.5t-13 15.5q62 51 120 100h35q21 -16 62.5 -50.5t55.5 -46.5q-9 -14 -27 -32
q-16 11 -53 35.5t-55 36.5z" />
    <glyph glyph-name="Edieresis" unicode="&#xcb;" horiz-adv-x="555" 
d="M50 46l70 3q3 0 3 3v549l-74 3q0 16 2 46h115h221q42 1 87 1q6 -75 9 -152q-44 -6 -53 -6l-16 87q-3 15 -23 17q-43 5 -158 5h-30l-1 -246q103 0 157 1q22 1 23 20l5 48h51q-1 -16 -1.5 -48t-0.5 -48v-92q-32 -2 -51 -2l-4 53q-1 19 -24 19q-45 1 -155 1l-1 -240
q0 -13 8.5 -16.5t47.5 -3.5q125 0 155 7q12 3 18 20l32 91q12 -2 52 -10q-14 -64 -35 -157q-12 0 -122 0.5t-189 0.5q-22 0 -61.5 -0.5t-56.5 -0.5v47zM192 806q21 0 31.5 -14t10.5 -31q0 -16 -11.5 -29t-30.5 -13t-31.5 12t-12.5 31q0 17 11.5 30.5t32.5 13.5zM361 806
q21 0 32 -13.5t11 -30.5q0 -18 -12 -30.5t-29 -12.5q-21 0 -33.5 13t-12.5 29q0 17 11 31t33 14z" />
    <glyph glyph-name="Igrave" unicode="&#xcc;" horiz-adv-x="324" 
d="M123 601l-79 3q0 31 1 46h124h117q1 -16 -1 -46l-79 -3q-2 0 -2 -4l-3 -548l86 -3q0 -32 -1 -47q-16 0 -57.5 0.5t-62.5 0.5q-20 0 -61 -0.5t-59 -0.5q0 32 1 47l72 3q4 0 4 4v548zM89 850q25 -18 79 -58t76 -56q-10 -16 -24 -35q-16 9 -51 29t-64.5 37t-52.5 30
q17 29 37 53z" />
    <glyph glyph-name="Iacute" unicode="&#xcd;" horiz-adv-x="324" 
d="M123 601l-79 3q0 31 1 46h124h117q1 -16 -1 -46l-79 -3q-2 0 -2 -4l-3 -548l86 -3q0 -32 -1 -47q-16 0 -57.5 0.5t-62.5 0.5q-20 0 -61 -0.5t-59 -0.5q0 32 1 47l72 3q4 0 4 4v548zM247 850q18 -23 37 -54q-30 -16 -93.5 -52t-75.5 -43q-8 13 -23 34q47 34 155 115z" />
    <glyph glyph-name="Icircumflex" unicode="&#xce;" horiz-adv-x="324" 
d="M123 601l-79 3q0 31 1 46h124h117q1 -16 -1 -46l-79 -3q-2 0 -2 -4l-3 -548l86 -3q0 -32 -1 -47q-16 0 -57.5 0.5t-62.5 0.5q-20 0 -61 -0.5t-59 -0.5q0 32 1 47l72 3q4 0 4 4v548zM165 779q-12 -8 -35.5 -23.5t-42 -28t-33.5 -22.5q-4 5 -13 15.5t-13 15.5
q62 51 120 100h35q21 -16 62.5 -50.5t55.5 -46.5q-9 -14 -27 -32q-18 13 -57.5 38.5t-51.5 33.5z" />
    <glyph glyph-name="Idieresis" unicode="&#xcf;" horiz-adv-x="324" 
d="M123 601l-79 3q0 31 1 46h124h117q1 -16 -1 -46l-79 -3q-2 0 -2 -4l-3 -548l86 -3q0 -32 -1 -47q-16 0 -57.5 0.5t-62.5 0.5q-20 0 -61 -0.5t-59 -0.5q0 32 1 47l72 3q4 0 4 4v548zM86 806q21 0 31.5 -14t10.5 -31q0 -16 -11.5 -29t-30.5 -13t-31.5 12t-12.5 31
q0 17 11.5 30.5t32.5 13.5zM255 806q21 0 32 -13.5t11 -30.5q0 -18 -12 -30.5t-29 -12.5q-21 0 -33.5 13t-12.5 29q0 17 11 31t33 14z" />
    <glyph glyph-name="Eth" unicode="&#xd0;" horiz-adv-x="708" 
d="M140 346v254l-74 3q0 32 1 46q108 2 205 2q90 0 143 -12t98 -37q68 -38 107 -107.5t39 -149.5q0 -90 -32.5 -162.5t-91.5 -117.5q-88 -66 -233 -66q-22 0 -66 0.5t-54 0.5q-17 0 -57.5 -0.5t-59.5 -0.5q0 7 0.5 23t0.5 24l69 2q5 0 5 5v243h-26.5h-32.5h-30q0 35 1 50h88
zM220 296l-1 -214q0 -22 13.5 -29t62.5 -7q128 0 201 64q35 31 57 87t22 117q0 83 -21 134.5t-69 93.5q-72 63 -209 63q-42 0 -55 -4l-1 -255q29 1 88.5 1.5t91.5 0.5q0 -28 -3 -52h-177z" />
    <glyph glyph-name="Ntilde" unicode="&#xd1;" horiz-adv-x="716" 
d="M48 46l64 3q3 0 3 4v548l-73 3q0 32 1 46h145q222 -331 358 -540l5 1q-2 328 -4 490l-94 2q0 7 0.5 23t0.5 24h124h96v-14v-17.5v-14.5l-61 -3q-3 0 -3 -4l-3 -593q-24 -11 -53 -11q-172 237 -372 538h-6q0 -81 -0.5 -241t-0.5 -241l99 -2q0 -32 -1 -47h-131
q-17 0 -49.5 -0.5t-45.5 -0.5q0 32 1 47zM313 809q29 0 71 -26q36 -21 53 -21q29 0 34 45h39q-1 -38 -21.5 -68.5t-55.5 -30.5q-19 0 -64 25q-5 3 -14.5 8t-15 7.5t-13.5 5t-16 2.5q-14 0 -24.5 -12.5t-12.5 -31.5h-39q2 38 24 67.5t55 29.5z" />
    <glyph glyph-name="Ograve" unicode="&#xd2;" horiz-adv-x="718" 
d="M346 -10q-126 0 -208 84q-88 90 -88 245q0 92 39 167.5t100 117.5q83 56 189 56q97 0 167 -50q56 -39 89.5 -109.5t33.5 -155.5q0 -172 -105 -274q-83 -81 -217 -81zM360 40q95 0 149 62q73 84 73 222q0 146 -72 224q-55 62 -145 62q-83 0 -141 -52q-88 -79 -88 -232
q0 -147 73 -224q58 -62 151 -62zM287 850q21 -15 75 -55.5t79 -58.5q-7 -13 -23 -35q-29 16 -90 51t-79 45q19 31 38 53z" />
    <glyph glyph-name="Oacute" unicode="&#xd3;" horiz-adv-x="718" 
d="M346 -10q-126 0 -208 84q-88 90 -88 245q0 92 39 167.5t100 117.5q83 56 189 56q97 0 167 -50q56 -39 89.5 -109.5t33.5 -155.5q0 -172 -105 -274q-83 -81 -217 -81zM360 40q95 0 149 62q73 84 73 222q0 146 -72 224q-55 62 -145 62q-83 0 -141 -52q-88 -79 -88 -232
q0 -147 73 -224q58 -62 151 -62zM457 850q18 -23 37 -54q-30 -16 -93.5 -52t-75.5 -43q-3 5 -11.5 17t-11.5 17q47 34 155 115z" />
    <glyph glyph-name="Ocircumflex" unicode="&#xd4;" horiz-adv-x="718" 
d="M346 -10q-126 0 -208 84q-88 90 -88 245q0 92 39 167.5t100 117.5q83 56 189 56q97 0 167 -50q56 -39 89.5 -109.5t33.5 -155.5q0 -172 -105 -274q-83 -81 -217 -81zM360 40q95 0 149 62q73 84 73 222q0 146 -72 224q-55 62 -145 62q-83 0 -141 -52q-88 -79 -88 -232
q0 -147 73 -224q58 -62 151 -62zM375 779q-84 -55 -112 -74q-4 5 -13 15.5t-13 15.5q62 51 120 100h11.5h13.5h10q21 -16 62.5 -50.5t55.5 -46.5q-9 -14 -27 -32q-16 11 -53 35.5t-55 36.5z" />
    <glyph glyph-name="Otilde" unicode="&#xd5;" horiz-adv-x="718" 
d="M346 -10q-126 0 -208 84q-88 90 -88 245q0 92 39 167.5t100 117.5q83 56 189 56q97 0 167 -50q56 -39 89.5 -109.5t33.5 -155.5q0 -172 -105 -274q-83 -81 -217 -81zM360 40q95 0 149 62q73 84 73 222q0 146 -72 224q-55 62 -145 62q-83 0 -141 -52q-88 -79 -88 -232
q0 -147 73 -224q58 -62 151 -62zM317 809q31 0 71 -26q38 -21 53 -21q30 0 34 45h39q0 -38 -20.5 -68.5t-56.5 -30.5q-8 0 -17.5 3t-15 5t-17 8.5t-14.5 8.5q-4 2 -14.5 8t-15 8t-13 4.5t-16.5 2.5q-13 0 -23.5 -12.5t-13.5 -31.5h-38q1 38 23 67.5t55 29.5z" />
    <glyph glyph-name="Odieresis" unicode="&#xd6;" horiz-adv-x="718" 
d="M346 -10q-126 0 -208 84q-88 90 -88 245q0 92 39 167.5t100 117.5q83 56 189 56q97 0 167 -50q56 -39 89.5 -109.5t33.5 -155.5q0 -172 -105 -274q-83 -81 -217 -81zM360 40q95 0 149 62q73 84 73 222q0 146 -72 224q-55 62 -145 62q-83 0 -141 -52q-88 -79 -88 -232
q0 -147 73 -224q58 -62 151 -62zM293 806q21 0 32 -14t11 -31q0 -16 -12 -29t-31 -13t-31.5 12t-12.5 31q0 17 11.5 30.5t32.5 13.5zM462 806q21 0 32 -13.5t11 -30.5q0 -19 -12 -31t-29 -12q-21 0 -33 12.5t-12 29.5t10.5 31t32.5 14z" />
    <glyph glyph-name="multiply" unicode="&#xd7;" horiz-adv-x="524" 
d="M302 231q28 -29 81.5 -83.5t76.5 -78.5q-13 -16 -37 -36q-25 26 -79 80t-80 81l-161 -161l-36 36q109 112 158 162q-77 79 -150 150q4 5 41 42q26 -26 81.5 -83t66.5 -68q25 26 76 78t74 76q23 -18 41 -41q-100 -100 -153 -154z" />
    <glyph glyph-name="Oslash" unicode="&#xd8;" horiz-adv-x="718" 
d="M381 660q102 0 179 -62q20 24 66 77q22 -15 42 -35q-23 -26 -71 -80q32 -36 51.5 -95t19.5 -121q0 -167 -100 -269q-83 -85 -221 -85q-109 0 -183 61q-13 -15 -38.5 -44t-36.5 -41q-18 13 -38 31q15 17 41.5 47t36.5 41q-79 88 -79 232q0 95 39.5 170.5t104.5 119.5
q80 53 187 53zM364 610q-90 0 -147 -58q-84 -84 -84 -228q0 -120 46 -185q79 97 167 201q27 34 85 103t85 102q-55 65 -152 65zM360 40q98 0 152 63q72 85 72 229q0 106 -40 170q-21 -26 -57 -68.5t-63 -74.5t-48 -58q-79 -92 -168 -199q57 -62 152 -62z" />
    <glyph glyph-name="Ugrave" unicode="&#xd9;" horiz-adv-x="669" 
d="M184 601l-1 -330q-1 -70 9 -108t32 -66q40 -53 119 -53q70 0 116 46q48 50 48 176v99.5v128v103.5q0 4 -4 4l-84 2q0 32 1 47h116h104q1 -14 -1 -47l-63 -3l-2 -335q-1 -141 -71 -213q-58 -62 -163 -62q-112 0 -171 58q-40 39 -53 88.5t-13 126.5v332q0 6 -5 6l-61 2
q0 32 1 47h108h128q0 -31 -2 -47zM277 850q21 -15 75 -55.5t79 -58.5q-7 -13 -23 -35q-29 16 -90 51t-79 45q19 31 38 53z" />
    <glyph glyph-name="Uacute" unicode="&#xda;" horiz-adv-x="669" 
d="M184 601l-1 -330q-1 -70 9 -108t32 -66q40 -53 119 -53q70 0 116 46q48 50 48 176v99.5v128v103.5q0 4 -4 4l-84 2q0 32 1 47h116h104q1 -14 -1 -47l-63 -3l-2 -335q-1 -141 -71 -213q-58 -62 -163 -62q-112 0 -171 58q-40 39 -53 88.5t-13 126.5v332q0 6 -5 6l-61 2
q0 32 1 47h108h128q0 -31 -2 -47zM447 850q18 -23 37 -54q-29 -16 -89.5 -50.5t-78.5 -44.5q-5 7 -24 34q47 34 155 115z" />
    <glyph glyph-name="Ucircumflex" unicode="&#xdb;" horiz-adv-x="669" 
d="M184 601l-1 -330q-1 -70 9 -108t32 -66q40 -53 119 -53q70 0 116 46q48 50 48 176v99.5v128v103.5q0 4 -4 4l-84 2q0 32 1 47h116h104q1 -14 -1 -47l-63 -3l-2 -335q-1 -141 -71 -213q-58 -62 -163 -62q-112 0 -171 58q-40 39 -53 88.5t-13 126.5v332q0 6 -5 6l-61 2
q0 32 1 47h108h128q0 -31 -2 -47zM355 779q-84 -55 -112 -74q-4 5 -13 15.5t-13 15.5q62 51 120 100h11.5h13.5h10q21 -16 62.5 -50.5t55.5 -46.5q-9 -14 -27 -32q-16 11 -53 35.5t-55 36.5z" />
    <glyph glyph-name="Udieresis" unicode="&#xdc;" horiz-adv-x="669" 
d="M184 601l-1 -330q-1 -70 9 -108t32 -66q40 -53 119 -53q70 0 116 46q48 50 48 176v99.5v128v103.5q0 4 -4 4l-84 2q0 32 1 47h116h104q1 -14 -1 -47l-63 -3l-2 -335q-1 -141 -71 -213q-58 -62 -163 -62q-112 0 -171 58q-40 39 -53 88.5t-13 126.5v332q0 6 -5 6l-61 2
q0 32 1 47h108h128q0 -31 -2 -47zM271 806q21 0 31.5 -14t10.5 -31q0 -16 -11.5 -29t-30.5 -13t-31.5 12t-12.5 31q0 17 11.5 30.5t32.5 13.5zM440 806q21 0 32 -13.5t11 -30.5q0 -18 -12 -30.5t-29 -12.5q-21 0 -33.5 13t-12.5 29q0 17 11 31t33 14z" />
    <glyph glyph-name="Yacute" unicode="&#xdd;" horiz-adv-x="562" 
d="M160 46l79 3q5 0 5 5v196q-19 34 -88.5 160t-105.5 188q-3 3 -4 3l-52 3q0 32 1 46h98h141q0 -7 -0.5 -22.5t-0.5 -23.5l-90 -4q74 -145 152 -292h5q95 171 149 288q0 5 -3 5l-81 2q0 32 1 47h123h86q0 -31 -1 -46l-51 -3q-34 -58 -103.5 -181.5t-95.5 -167.5l-1 -203
l91 -3q1 -15 -1 -47q-17 0 -61 0.5t-66 0.5q-21 0 -64 -0.5t-63 -0.5q0 32 1 47zM416 850q20 -26 36 -54q-29 -16 -89.5 -50.5t-78.5 -44.5q-15 20 -23 34q115 85 155 115z" />
    <glyph glyph-name="Thorn" unicode="&#xde;" horiz-adv-x="555" 
d="M122 54l1 547l-70 2q0 7 0.5 23t0.5 24h114h117q0 -30 -1 -45l-78 -3q-4 0 -4 -4v-72q8 0 23.5 0.5t22.5 0.5q83 0 136 -17q60 -18 95 -63t35 -100q0 -62 -34 -111t-82 -71q-59 -27 -139 -27h-59v-89l97 -3q0 -31 -1 -46h-135q-73 0 -108 -1q0 32 1 47l64 3q4 0 4 5z
M202 475l-1 -281q7 -9 56 -9q68 0 114 29q60 38 60 121q0 70 -48 107t-134 37q-33 0 -47 -4z" />
    <glyph glyph-name="germandbls" unicode="&#xdf;" horiz-adv-x="580" 
d="M25 417l68 2q5 0 5 7q1 79 14 121t50 76q66 62 151 62q59 0 100 -38q58 -55 49 -178q-43 -30 -64 -49q-41 -34 -41 -69q0 -32 16.5 -47t61.5 -34q58 -24 82.5 -56t24.5 -76q0 -75 -60 -117q-42 -31 -123 -31q-51 0 -89 12q-2 21 -6.5 59.5t-6.5 56.5q22 6 50 9l12 -64
q3 -10 9 -13q22 -12 48 -12q42 0 66 19q26 23 26 62q0 36 -16.5 55t-69.5 41q-52 22 -73 50t-21 70q0 21 11.5 42.5t20 31t25.5 26.5q8 9 23 23.5t21 21.5q6 89 -36 129q-25 23 -63 23q-52 0 -85 -39q-18 -21 -23.5 -58.5t-6.5 -114.5q0 -50 -0.5 -182t-0.5 -192l35 -2
q0 -29 -1 -44h-71q-15 0 -49.5 -0.5t-50.5 -0.5q0 29 1 44l57 3q4 0 4 4v317h-76q0 20 2 50z" />
    <glyph glyph-name="agrave" unicode="&#xe0;" horiz-adv-x="454" 
d="M293 35h-5q-86 -45 -145 -45q-40 0 -77 28.5t-37 69.5q0 49 51.5 92t143.5 43q35 -1 69 -1q2 79 -17.5 113.5t-65.5 34.5q-59 0 -120 -66q-18 19 -35 38q90 88 178 88q59 0 96.5 -41t37.5 -121q0 -126 -2 -210q0 -15 9 -15l67 2q2 -19 0 -42q-42 -13 -115 -13
q-9 8 -33 45zM111 97q0 -24 18.5 -39t47.5 -15q53 0 111 41q3 1 3 8v85q-10 2 -55 2q-63 0 -94 -23t-31 -59zM154 640q25 -24 73 -73t60 -61q-15 -19 -29 -31q-15 12 -45 37t-55.5 46t-46.5 38q13 17 43 44z" />
    <glyph glyph-name="aacute" unicode="&#xe1;" horiz-adv-x="454" 
d="M293 35h-5q-86 -45 -145 -45q-40 0 -77 28.5t-37 69.5q0 49 51.5 92t143.5 43q35 -1 69 -1q2 79 -17.5 113.5t-65.5 34.5q-59 0 -120 -66q-18 19 -35 38q90 88 178 88q59 0 96.5 -41t37.5 -121q0 -126 -2 -210q0 -15 9 -15l67 2q2 -19 0 -42q-42 -13 -115 -13
q-9 8 -33 45zM111 97q0 -24 18.5 -39t47.5 -15q53 0 111 41q3 1 3 8v85q-10 2 -55 2q-63 0 -94 -23t-31 -59zM305 640q20 -17 43 -44q-22 -17 -73.5 -59t-76.5 -62q-15 15 -28 31q22 21 68 67.5t67 66.5z" />
    <glyph glyph-name="acircumflex" unicode="&#xe2;" horiz-adv-x="454" 
d="M293 35h-5q-86 -45 -145 -45q-40 0 -77 28.5t-37 69.5q0 49 51.5 92t143.5 43q35 -1 69 -1q2 79 -17.5 113.5t-65.5 34.5q-59 0 -120 -66q-18 19 -35 38q90 88 178 88q59 0 96.5 -41t37.5 -121q0 -126 -2 -210q0 -15 9 -15l67 2q2 -19 0 -42q-42 -13 -115 -13
q-9 8 -33 45zM111 97q0 -24 18.5 -39t47.5 -15q53 0 111 41q3 1 3 8v85q-10 2 -55 2q-63 0 -94 -23t-31 -59zM218 562q-58 -56 -94 -92q-1 1 -12.5 11t-16.5 15q14 17 50.5 60.5t54.5 63.5q12 1 36 1q17 -19 54 -63.5t51 -60.5q-19 -19 -29 -27q-34 34 -94 92z" />
    <glyph glyph-name="atilde" unicode="&#xe3;" horiz-adv-x="454" 
d="M293 35h-5q-86 -45 -145 -45q-40 0 -77 28.5t-37 69.5q0 49 51.5 92t143.5 43q35 -1 69 -1q2 79 -17.5 113.5t-65.5 34.5q-59 0 -120 -66q-18 19 -35 38q90 88 178 88q59 0 96.5 -41t37.5 -121q0 -126 -2 -210q0 -15 9 -15l67 2q2 -19 0 -42q-42 -13 -115 -13
q-9 8 -33 45zM111 97q0 -24 18.5 -39t47.5 -15q53 0 111 41q3 1 3 8v85q-10 2 -55 2q-63 0 -94 -23t-31 -59zM161 596q9 0 16.5 -1.5t15.5 -6t11.5 -6t13 -9t10.5 -8.5q4 -3 11.5 -8t11.5 -7.5t10.5 -5t12.5 -2.5q15 0 21.5 12.5t9.5 38.5h37q-6 -102 -68 -102q-24 0 -63 29
q-3 2 -10.5 7.5t-11 7.5t-9 5.5t-11 4.5t-10.5 1q-24 0 -34 -50h-36q8 100 72 100z" />
    <glyph glyph-name="adieresis" unicode="&#xe4;" horiz-adv-x="454" 
d="M293 35h-5q-86 -45 -145 -45q-40 0 -77 28.5t-37 69.5q0 49 51.5 92t143.5 43q35 -1 69 -1q2 79 -17.5 113.5t-65.5 34.5q-59 0 -120 -66q-18 19 -35 38q90 88 178 88q59 0 96.5 -41t37.5 -121q0 -126 -2 -210q0 -15 9 -15l67 2q2 -19 0 -42q-42 -13 -115 -13
q-9 8 -33 45zM111 97q0 -24 18.5 -39t47.5 -15q53 0 111 41q3 1 3 8v85q-10 2 -55 2q-63 0 -94 -23t-31 -59zM138 582q22 0 32.5 -14t10.5 -31q0 -16 -11.5 -29t-30.5 -13t-31.5 12t-12.5 31q0 17 11.5 30.5t31.5 13.5zM296 582q20 0 31 -13.5t11 -30.5q0 -19 -12 -31
t-31 -12q-20 0 -31.5 13t-11.5 29q0 17 11 31t33 14z" />
    <glyph glyph-name="aring" unicode="&#xe5;" horiz-adv-x="454" 
d="M293 35h-5q-86 -45 -145 -45q-40 0 -77 28.5t-37 69.5q0 49 51.5 92t143.5 43q35 -1 69 -1q2 79 -17.5 113.5t-65.5 34.5q-59 0 -120 -66q-18 19 -35 38q90 88 178 88q59 0 96.5 -41t37.5 -121q0 -126 -2 -210q0 -15 9 -15l67 2q2 -19 0 -42q-42 -13 -115 -13
q-9 8 -33 45zM111 97q0 -24 18.5 -39t47.5 -15q53 0 111 41q3 1 3 8v85q-10 2 -55 2q-63 0 -94 -23t-31 -59zM219 654q42 0 68 -24t26 -59q0 -36 -27 -61t-68 -25q-40 0 -67.5 23.5t-27.5 61.5q0 32 27.5 58t68.5 26zM219 618q-22 0 -35.5 -14.5t-13.5 -34.5t14 -34t35 -14
q23 0 35 14t12 35t-12 34.5t-35 13.5z" />
    <glyph glyph-name="ae" unicode="&#xe6;" horiz-adv-x="690" 
d="M330 55h-7q-99 -65 -183 -65q-37 0 -73.5 29t-36.5 67q0 50 51.5 93.5t141.5 43.5q39 -1 69 -1q2 79 -17 114t-64 35q-59 0 -121 -67q-19 19 -34 37q89 89 172 89q86 0 111 -83h5q54 83 154 83q76 0 117 -51q39 -47 39 -130q-4 -10 -15.5 -23t-18.5 -14q-88 -3 -253 -3
q-1 -85 33 -125q33 -39 103 -39q52 0 132 32q8 -21 11 -45q-84 -42 -159 -42q-106 0 -157 65zM485 383q-43 0 -73 -30q-39 -42 -42 -98q110 0 195 3q13 2 13 11q0 52 -27 84q-25 30 -66 30zM176 42q62 0 127 47q5 3 4 7q-12 32 -16 81q-8 2 -56 2q-62 0 -93 -22.5t-31 -59.5
q0 -23 18.5 -39t46.5 -16z" />
    <glyph glyph-name="ccedilla" unicode="&#xe7;" horiz-adv-x="403" 
d="M268 -6l-54 -56q27 -5 42 -22t15 -41q0 -37 -34.5 -60t-90.5 -24q-1 5 -2.5 17t-2.5 17q73 5 73 44q0 17 -13 28q-14 11 -42 11l-9 21l63 61q-73 4 -123 55.5t-50 138.5q0 108 68 177t175 69q61 0 92 -21q0 -11 -12 -33.5t-21 -28.5q-1 0 -12 5t-21.5 9t-26.5 7.5
t-30 3.5q-53 0 -85 -37q-46 -50 -46 -131q0 -79 37 -122q30 -38 90 -38q47 0 123 30q8 -20 11 -43q-52 -27 -114 -37z" />
    <glyph glyph-name="egrave" unicode="&#xe8;" horiz-adv-x="445" 
d="M40 191q0 101 59 170t154 69q77 0 118 -52q38 -47 38 -129q-4 -10 -15.5 -23t-18.5 -14q-88 -3 -253 -3q-3 -83 32 -124q35 -40 103 -40q53 0 133 32q8 -21 11 -45q-87 -42 -159 -42q-95 0 -148.5 56t-53.5 145zM242 383q-47 0 -75 -31q-39 -45 -42 -97q109 0 195 3
q13 2 13 11q0 52 -27 84q-25 30 -64 30zM187 640q25 -24 73 -73t60 -61q-15 -19 -29 -31q-15 12 -45 37t-55.5 46t-46.5 38q13 17 43 44z" />
    <glyph glyph-name="eacute" unicode="&#xe9;" horiz-adv-x="445" 
d="M40 191q0 101 59 170t154 69q77 0 118 -52q38 -47 38 -129q-4 -10 -15.5 -23t-18.5 -14q-88 -3 -253 -3q-3 -83 32 -124q35 -40 103 -40q53 0 133 32q8 -21 11 -45q-87 -42 -159 -42q-95 0 -148.5 56t-53.5 145zM242 383q-47 0 -75 -31q-39 -45 -42 -97q109 0 195 3
q13 2 13 11q0 52 -27 84q-25 30 -64 30zM317 640q20 -17 43 -44q-22 -17 -73.5 -59t-76.5 -62q-14 15 -28 31l67.5 67.5t67.5 66.5z" />
    <glyph glyph-name="ecircumflex" unicode="&#xea;" horiz-adv-x="445" 
d="M40 191q0 101 59 170t154 69q77 0 118 -52q38 -47 38 -129q-4 -10 -15.5 -23t-18.5 -14q-88 -3 -253 -3q-3 -83 32 -124q35 -40 103 -40q53 0 133 32q8 -21 11 -45q-87 -42 -159 -42q-95 0 -148.5 56t-53.5 145zM242 383q-47 0 -75 -31q-39 -45 -42 -97q109 0 195 3
q13 2 13 11q0 52 -27 84q-25 30 -64 30zM248 562q-58 -56 -94 -92q-1 1 -12.5 11t-16.5 15q52 63 105 124q12 1 36 1q17 -19 54 -63.5t51 -60.5q-19 -19 -30 -27q-29 30 -93 92z" />
    <glyph glyph-name="edieresis" unicode="&#xeb;" horiz-adv-x="445" 
d="M40 191q0 101 59 170t154 69q77 0 118 -52q38 -47 38 -129q-4 -10 -15.5 -23t-18.5 -14q-88 -3 -253 -3q-3 -83 32 -124q35 -40 103 -40q53 0 133 32q8 -21 11 -45q-87 -42 -159 -42q-95 0 -148.5 56t-53.5 145zM242 383q-47 0 -75 -31q-39 -45 -42 -97q109 0 195 3
q13 2 13 11q0 52 -27 84q-25 30 -64 30zM164 582q22 0 32.5 -14t10.5 -31q0 -16 -11.5 -29t-30.5 -13t-31.5 12t-12.5 31q0 17 11.5 30.5t31.5 13.5zM322 582q20 0 31 -13.5t11 -30.5q0 -19 -12 -31t-31 -12q-20 0 -31.5 13t-11.5 29q0 17 11 31t33 14z" />
    <glyph glyph-name="igrave" unicode="&#xec;" horiz-adv-x="266" 
d="M102 360l-78 3q0 7 0.5 21t0.5 21q18 2 54.5 8.5t65.5 11.5t32 5q2 0 2 -3q0 -56 -1 -192t-1 -189l70 -2q0 -30 -1 -44h-111q-17 0 -52.5 -0.5t-52.5 -0.5q0 30 1 44l67 3q4 0 4 5v309zM55 640q13 -13 61 -62t72 -72q-15 -19 -29 -31q-15 12 -45 37t-55.5 46t-46.5 38
q13 17 43 44z" />
    <glyph glyph-name="iacute" unicode="&#xed;" horiz-adv-x="266" 
d="M102 360l-78 3q0 7 0.5 21t0.5 21q18 2 54.5 8.5t65.5 11.5t32 5q2 0 2 -3q0 -56 -1 -192t-1 -189l70 -2q0 -30 -1 -44h-111q-17 0 -52.5 -0.5t-52.5 -0.5q0 30 1 44l67 3q4 0 4 5v309zM202 640q20 -17 43 -44q-22 -17 -73.5 -59t-76.5 -62q-15 15 -28 31l67.5 67.5
t67.5 66.5z" />
    <glyph glyph-name="icircumflex" unicode="&#xee;" horiz-adv-x="266" 
d="M102 360l-78 3q0 7 0.5 21t0.5 21q18 2 54.5 8.5t65.5 11.5t32 5q2 0 2 -3q0 -56 -1 -192t-1 -189l70 -2q0 -30 -1 -44h-111q-17 0 -52.5 -0.5t-52.5 -0.5q0 30 1 44l67 3q4 0 4 5v309zM134 562q-29 -28 -93 -92q-22 18 -30 26q14 17 50.5 60.5t54.5 63.5q12 1 37 1
q14 -16 50.5 -60t53.5 -64q-19 -19 -29 -27q-63 63 -94 92z" />
    <glyph glyph-name="idieresis" unicode="&#xef;" horiz-adv-x="266" 
d="M102 360l-78 3q0 7 0.5 21t0.5 21q18 2 54.5 8.5t65.5 11.5t32 5q2 0 2 -3q0 -56 -1 -192t-1 -189l70 -2q0 -30 -1 -44h-111q-17 0 -52.5 -0.5t-52.5 -0.5q0 30 1 44l67 3q4 0 4 5v309zM51 582q22 0 32.5 -14t10.5 -31q0 -16 -11.5 -29t-30.5 -13t-31.5 12t-12.5 31
q0 17 11.5 30.5t31.5 13.5zM209 582q20 0 31 -13.5t11 -30.5q0 -19 -12 -31t-31 -12q-20 0 -31.5 13t-11.5 29q0 17 11 31t33 14z" />
    <glyph glyph-name="eth" unicode="&#xf0;" horiz-adv-x="501" 
d="M368 379l7 3q-29 109 -90 171q-23 -18 -101 -77l-27 36q64 48 93 71q-54 50 -150 62q5 27 10 43q54 -3 105.5 -22.5t82.5 -44.5q8 6 40.5 31t51.5 39q15 -17 27 -37l-84 -63q53 -49 88.5 -130t35.5 -174q0 -162 -77 -240q-57 -57 -145 -57q-73 0 -119 38q-34 27 -53.5 70
t-19.5 92q0 103 72 171q57 57 142 57q67 0 111 -39zM243 34q55 0 91 46q46 60 46 173q0 57 -18 76q-41 43 -108 43q-55 0 -92 -45q-38 -46 -38 -128q0 -97 50 -140q30 -25 69 -25z" />
    <glyph glyph-name="ntilde" unicode="&#xf1;" horiz-adv-x="558" 
d="M101 360l-77 1q0 17 2 41q16 3 49.5 10t59 12t28.5 5q2 0 2 -3q5 -33 11 -60l5 -1q70 43 99.5 54t64.5 11q67 0 107 -68q19 -34 19 -74q0 -17 -3 -242l64 -2q0 -30 -1 -44h-105q-16 0 -49 -0.5t-47 -0.5q0 30 1 44l58 3q3 0 3 4q1 54 1 180q0 79 -13 101q-21 38 -68 38
q-27 0 -64.5 -17t-67.5 -41q-3 -114 -3 -265l72 -2q0 -30 -1 -44h-113q-16 0 -49 -0.5t-48 -0.5q0 30 1 44l60 3q3 0 3 4zM232 596q9 0 16 -1.5t15 -6t11.5 -6.5t13 -9t10.5 -8q4 -3 11.5 -8t11.5 -7.5t10.5 -5t12.5 -2.5q25 0 32 51h36q-4 -102 -68 -102q-24 0 -63 29
q-4 3 -10.5 8t-10.5 7t-9.5 5t-10.5 4.5t-11 1.5q-23 0 -33 -50h-37q8 100 73 100z" />
    <glyph glyph-name="ograve" unicode="&#xf2;" horiz-adv-x="505" 
d="M245 -10q-86 0 -138 47q-67 61 -67 164q0 114 85 183q56 46 137 46q73 0 124 -38q78 -59 78 -173q0 -120 -86 -187q-53 -42 -133 -42zM251 34q52 0 84 33q45 49 45 148q0 89 -40 133q-34 37 -85 37t-84 -34q-46 -47 -46 -142t46 -142q31 -33 80 -33zM195 640
q21 -21 66.5 -67.5t65.5 -66.5q-12 -17 -28 -31q-15 12 -45 37t-55.5 46t-46.5 38q13 17 43 44z" />
    <glyph glyph-name="oacute" unicode="&#xf3;" horiz-adv-x="505" 
d="M245 -10q-86 0 -138 47q-67 61 -67 164q0 114 85 183q56 46 137 46q73 0 124 -38q78 -59 78 -173q0 -120 -86 -187q-53 -42 -133 -42zM251 34q52 0 84 33q45 49 45 148q0 89 -40 133q-34 37 -85 37t-84 -34q-46 -47 -46 -142t46 -142q31 -33 80 -33zM338 640
q20 -17 43 -44q-22 -17 -73.5 -59t-76.5 -62q-14 15 -28 31q22 21 68 67.5t67 66.5z" />
    <glyph glyph-name="ocircumflex" unicode="&#xf4;" horiz-adv-x="505" 
d="M245 -10q-86 0 -138 47q-67 61 -67 164q0 114 85 183q56 46 137 46q73 0 124 -38q78 -59 78 -173q0 -120 -86 -187q-53 -42 -133 -42zM251 34q52 0 84 33q45 49 45 148q0 89 -40 133q-34 37 -85 37t-84 -34q-46 -47 -46 -142t46 -142q31 -33 80 -33zM263 562
q-58 -56 -94 -92q-4 3 -14.5 12t-15.5 14q14 17 50.5 60.5t54.5 63.5q13 1 37 1q5 -6 104 -124q-12 -13 -29 -27q-63 63 -93 92z" />
    <glyph glyph-name="otilde" unicode="&#xf5;" horiz-adv-x="505" 
d="M245 -10q-86 0 -138 47q-67 61 -67 164q0 114 85 183q56 46 137 46q73 0 124 -38q78 -59 78 -173q0 -120 -86 -187q-53 -42 -133 -42zM251 34q52 0 84 33q45 49 45 148q0 89 -40 133q-34 37 -85 37t-84 -34q-46 -47 -46 -142t46 -142q31 -33 80 -33zM208 596q9 0 16 -1.5
t15 -6t11.5 -6.5t13 -9t10.5 -8q4 -3 11.5 -8t11.5 -7.5t10.5 -5t12.5 -2.5q25 0 32 51h36q-4 -102 -68 -102q-24 0 -63 29q-4 3 -10.5 8t-10.5 7t-9.5 5t-10.5 4.5t-11 1.5q-23 0 -33 -50h-37q8 100 73 100z" />
    <glyph glyph-name="odieresis" unicode="&#xf6;" horiz-adv-x="505" 
d="M245 -10q-86 0 -138 47q-67 61 -67 164q0 114 85 183q56 46 137 46q73 0 124 -38q78 -59 78 -173q0 -120 -86 -187q-53 -42 -133 -42zM251 34q52 0 84 33q45 49 45 148q0 89 -40 133q-34 37 -85 37t-84 -34q-46 -47 -46 -142t46 -142q31 -33 80 -33zM184 582
q22 0 32.5 -14t10.5 -31q0 -16 -11.5 -29t-30.5 -13t-31.5 12t-12.5 31q0 17 11.5 30.5t31.5 13.5zM342 582q20 0 31 -13.5t11 -30.5q0 -19 -12 -31t-31 -12q-20 0 -31.5 13t-11.5 29q0 17 11 31t33 14z" />
    <glyph glyph-name="divide" unicode="&#xf7;" horiz-adv-x="524" 
d="M215 378q0 20 13 34t35 14q20 0 33 -14t13 -34q0 -19 -12.5 -34.5t-33.5 -15.5q-23 0 -35.5 15.5t-12.5 34.5zM460 210h-398q0 19 2 53q65 1 202.5 2t196.5 1q0 -30 -3 -56zM215 99q0 19 13.5 33.5t35.5 14.5q20 0 32.5 -14.5t12.5 -36.5q0 -17 -12.5 -32t-33.5 -15
q-24 0 -36.5 15.5t-11.5 34.5z" />
    <glyph glyph-name="oslash" unicode="&#xf8;" horiz-adv-x="505" 
d="M261 430q70 0 119 -35q50 60 54 65q19 -13 36 -32q-7 -9 -25.5 -30.5t-28.5 -34.5q48 -51 48 -142q0 -126 -91 -193q-52 -38 -128 -38q-70 0 -117 32q-35 -40 -59 -68q-16 12 -33 29q12 14 57 68q-53 59 -53 150q0 116 86 183q58 46 135 46zM255 385q-52 0 -86 -35
q-47 -49 -49 -142q0 -65 23 -103q37 45 104.5 127.5l94.5 115.5q-32 37 -87 37zM252 34q51 0 83 32q49 49 49 147q0 64 -20 95q-132 -160 -198 -239q32 -35 86 -35z" />
    <glyph glyph-name="ugrave" unicode="&#xf9;" horiz-adv-x="528" 
d="M512 47q0 -29 -1 -42q-11 -4 -46.5 -9.5t-66.5 -5.5q-16 16 -32 53l-5 1q-61 -36 -88.5 -45t-60.5 -9q-50 0 -89.5 42.5t-39.5 94.5q0 45 0.5 126.5t0.5 115.5l-61 2q0 7 0.5 22.5t0.5 22.5q13 0 46.5 1t59 2t30.5 1q2 0 2 -3q-2 -152 -2 -239q-2 -69 15 -96
q23 -36 68 -36q52 0 119 51v272l-65 2q0 17 2 47q21 0 78 1t61 1q2 0 2 -3q0 -56 -1 -177t-1 -180q0 -14 7 -14zM185 640q21 -21 66.5 -67.5t65.5 -66.5q-12 -17 -28 -31q-15 12 -45 37t-55.5 46t-46.5 38q13 17 43 44z" />
    <glyph glyph-name="uacute" unicode="&#xfa;" horiz-adv-x="528" 
d="M512 47q0 -29 -1 -42q-11 -4 -46.5 -9.5t-66.5 -5.5q-16 16 -32 53l-5 1q-61 -36 -88.5 -45t-60.5 -9q-50 0 -89.5 42.5t-39.5 94.5q0 45 0.5 126.5t0.5 115.5l-61 2q0 7 0.5 22.5t0.5 22.5q13 0 46.5 1t59 2t30.5 1q2 0 2 -3q-2 -152 -2 -239q-2 -69 15 -96
q23 -36 68 -36q52 0 119 51v272l-65 2q0 17 2 47q21 0 78 1t61 1q2 0 2 -3q0 -56 -1 -177t-1 -180q0 -14 7 -14zM329 640q20 -17 43 -44q-22 -17 -73.5 -59t-76.5 -62q-14 15 -28 31l67.5 67.5t67.5 66.5z" />
    <glyph glyph-name="ucircumflex" unicode="&#xfb;" horiz-adv-x="528" 
d="M512 47q0 -29 -1 -42q-11 -4 -46.5 -9.5t-66.5 -5.5q-16 16 -32 53l-5 1q-61 -36 -88.5 -45t-60.5 -9q-50 0 -89.5 42.5t-39.5 94.5q0 45 0.5 126.5t0.5 115.5l-61 2q0 7 0.5 22.5t0.5 22.5q13 0 46.5 1t59 2t30.5 1q2 0 2 -3q-2 -152 -2 -239q-2 -69 15 -96
q23 -36 68 -36q52 0 119 51v272l-65 2q0 17 2 47q21 0 78 1t61 1q2 0 2 -3q0 -56 -1 -177t-1 -180q0 -14 7 -14zM256 562q-15 -14 -47 -46t-47 -46q-1 1 -12.5 11t-16.5 15q14 17 50.5 60.5t54.5 63.5q12 1 37 1q14 -16 50.5 -60t53.5 -64q-19 -19 -29 -27q-63 63 -94 92z
" />
    <glyph glyph-name="udieresis" unicode="&#xfc;" horiz-adv-x="528" 
d="M512 47q0 -29 -1 -42q-11 -4 -46.5 -9.5t-66.5 -5.5q-16 16 -32 53l-5 1q-61 -36 -88.5 -45t-60.5 -9q-50 0 -89.5 42.5t-39.5 94.5q0 45 0.5 126.5t0.5 115.5l-61 2q0 7 0.5 22.5t0.5 22.5q13 0 46.5 1t59 2t30.5 1q2 0 2 -3q-2 -152 -2 -239q-2 -69 15 -96
q23 -36 68 -36q52 0 119 51v272l-65 2q0 17 2 47q21 0 78 1t61 1q2 0 2 -3q0 -56 -1 -177t-1 -180q0 -14 7 -14zM177 582q22 0 32.5 -14t10.5 -31q0 -16 -11.5 -29t-30.5 -13t-31.5 12t-12.5 31q0 17 11.5 30.5t31.5 13.5zM335 582q20 0 31 -13.5t11 -30.5q0 -19 -12 -31
t-31 -12q-20 0 -31.5 13t-11.5 29q0 17 11 31t33 14z" />
    <glyph glyph-name="yacute" unicode="&#xfd;" horiz-adv-x="462" 
d="M466 376l-44 -3q-1 -3 -82 -202q-91 -216 -158 -319q-52 -78 -87 -98q-13 0 -37.5 17.5t-24.5 26.5q50 34 90 80q52 61 75 119q-72 182 -85 218q-12 31 -31.5 82.5t-27.5 72.5q0 3 -5 3l-49 3q0 7 0.5 22t0.5 21h87h121q0 -29 -1 -44l-71 -2q9 -30 46 -138
q25 -76 56 -160h6q32 77 55 140q24 65 51 153q0 5 -3 5l-61 2q0 31 1 44h101h78q0 -29 -1 -43zM328 640q20 -17 43 -44q-22 -17 -73.5 -59t-76.5 -62q-15 15 -28 31l67.5 67.5t67.5 66.5z" />
    <glyph glyph-name="thorn" unicode="&#xfe;" horiz-adv-x="513" 
d="M15 -228v44l58 3q4 2 4 6v738l-77 2q0 28 1 40q15 3 53.5 10t67 12.5t32.5 5.5q2 0 2 -3q0 -58 -3 -253l5 -1q66 35 93 44.5t60 9.5q71 0 116 -58.5t45 -128.5q0 -74 -23 -126q-25 -57 -73 -93q-47 -34 -117 -34q-58 0 -102 23l-5 -2q2 -96 0 -191l91 -2q0 -30 -1 -44
q-18 0 -62 -0.5t-66 -0.5q-69 0 -99 -1zM390 215q0 66 -21 103q-28 51 -88 51q-59 0 -126 -47q0 -38 -0.5 -118.5t-0.5 -114.5q0 -17 32.5 -34t68.5 -17q54 0 87 33q48 51 48 144z" />
    <glyph glyph-name="ydieresis" unicode="&#xff;" horiz-adv-x="462" 
d="M466 376l-44 -3q-1 -3 -82 -202q-91 -216 -158 -319q-52 -78 -87 -98q-13 0 -37.5 17.5t-24.5 26.5q50 34 90 80q52 61 75 119q-72 182 -85 218q-12 31 -31.5 82.5t-27.5 72.5q0 3 -5 3l-49 3q0 7 0.5 22t0.5 21h87h121q0 -29 -1 -44l-71 -2q9 -30 46 -138
q25 -76 56 -160h6q32 77 55 140q24 65 51 153q0 5 -3 5l-61 2q0 31 1 44h101h78q0 -29 -1 -43zM163 582q22 0 32 -13.5t10 -31.5q0 -17 -11 -29.5t-31 -12.5q-19 0 -31 12t-12 31q0 17 11.5 30.5t31.5 13.5zM320 582q20 0 31.5 -13.5t11.5 -30.5q0 -19 -12.5 -31t-30.5 -12
q-20 0 -31.5 13t-11.5 29q0 17 10.5 31t32.5 14z" />
    <glyph glyph-name="Amacron" unicode="&#x100;" horiz-adv-x="606" 
d="M-13 46l56 3q4 0 5 4q38 97 120 312.5t112 292.5q22 2 54 2q40 -108 127.5 -354t91.5 -257l61 -3q0 -31 -1 -46h-94q-24 0 -68.5 -0.5t-63.5 -0.5q0 8 0.5 24t0.5 23l78 3q4 0 2 5q-2 7 -22 63t-29 81q-1 5 -7 5l-239 -1q-5 -15 -53 -153l90 -3q0 -31 -1 -46h-133
q-15 0 -45 -0.5t-43 -0.5q0 8 0.5 24t0.5 23zM299 547h-4q-17 -45 -53 -145t-53 -145q-1 -6 2 -6l210 -1q-40 120 -102 297zM414 785q2 -25 0 -49q-33 0 -110.5 0.5t-114.5 0.5q-2 21 0 46q71 0 225 2z" />
    <glyph glyph-name="amacron" unicode="&#x101;" horiz-adv-x="454" 
d="M293 35h-5q-86 -45 -145 -45q-40 0 -77 28.5t-37 69.5q0 49 51.5 92t143.5 43q35 -1 69 -1q2 79 -17.5 113.5t-65.5 34.5q-59 0 -120 -66q-18 19 -35 38q90 88 178 88q59 0 96.5 -41t37.5 -121q0 -126 -2 -210q0 -15 9 -15l67 2q2 -19 0 -42q-42 -13 -115 -13
q-9 8 -33 45zM111 97q0 -24 18.5 -39t47.5 -15q53 0 111 41q3 1 3 8v85q-10 2 -55 2q-63 0 -94 -23t-31 -59zM327 555v-48q-137 0 -201 1q-2 22 0 45q134 2 201 2z" />
    <glyph glyph-name="Abreve" unicode="&#x102;" horiz-adv-x="606" 
d="M-13 46l56 3q4 0 5 4q38 97 120 312.5t112 292.5q22 2 54 2q40 -108 127.5 -354t91.5 -257l61 -3q0 -31 -1 -46h-94q-24 0 -68.5 -0.5t-63.5 -0.5q0 8 0.5 24t0.5 23l78 3q4 0 2 5q-2 7 -22 63t-29 81q-1 5 -7 5l-239 -1q-5 -15 -53 -153l90 -3q0 -31 -1 -46h-133
q-15 0 -45 -0.5t-43 -0.5q0 8 0.5 24t0.5 23zM299 547h-4q-17 -45 -53 -145t-53 -145q-1 -6 2 -6l210 -1q-40 120 -102 297zM309 725q-48 0 -83.5 28.5t-44.5 69.5q19 9 39 14q32 -59 91 -59q30 0 53.5 16.5t35.5 38.5q19 -3 40 -10q-9 -35 -45.5 -66.5t-85.5 -31.5z" />
    <glyph glyph-name="abreve" unicode="&#x103;" horiz-adv-x="454" 
d="M293 35h-5q-86 -45 -145 -45q-40 0 -77 28.5t-37 69.5q0 49 51.5 92t143.5 43q35 -1 69 -1q2 79 -17.5 113.5t-65.5 34.5q-59 0 -120 -66q-18 19 -35 38q90 88 178 88q59 0 96.5 -41t37.5 -121q0 -126 -2 -210q0 -15 9 -15l67 2q2 -19 0 -42q-42 -13 -115 -13
q-9 8 -33 45zM111 97q0 -24 18.5 -39t47.5 -15q53 0 111 41q3 1 3 8v85q-10 2 -55 2q-63 0 -94 -23t-31 -59zM226 487q-44 0 -76 28t-41 68q16 8 40 13q29 -58 79 -58t76 54q24 -4 41 -9q-8 -35 -41.5 -65.5t-77.5 -30.5z" />
    <glyph glyph-name="Aogonek" unicode="&#x104;" horiz-adv-x="606" 
d="M613 0h-29q-35 -1 -77.5 -41t-42.5 -76q0 -20 12.5 -31.5t28.5 -11.5q27 0 51 18q12 -14 18 -30q-39 -41 -91 -41q-35 0 -63 23.5t-28 58.5q0 63 104 131q-21 0 -55 -0.5t-54 -0.5q0 8 0.5 24t0.5 23l78 3q4 0 2 5q-2 7 -22 63t-29 81q-1 5 -7 5l-239 -1q-5 -15 -53 -153
l90 -3q0 -31 -1 -46h-133q-15 0 -45 -0.5t-43 -0.5q0 8 0.5 24t0.5 23l56 3q4 0 5 4q38 97 120 312.5t112 292.5q22 2 54 2q40 -108 127.5 -354t91.5 -257l61 -3q0 -31 -1 -46zM299 547h-4q-17 -45 -53 -145t-53 -145q-1 -6 2 -6l210 -1q-40 120 -102 297z" />
    <glyph glyph-name="aogonek" unicode="&#x105;" horiz-adv-x="454" 
d="M441 3q-52 -12 -68 -23q-68 -46 -68 -97q0 -20 12.5 -31.5t28.5 -11.5q27 0 51 18q10 -10 19 -30q-41 -41 -91 -41q-36 0 -64 23.5t-28 58.5q0 61 92 122q-8 7 -32 44h-5q-86 -45 -145 -45q-40 0 -77 28.5t-37 69.5q0 49 51.5 92t143.5 43q35 -1 69 -1q2 79 -17.5 113.5
t-65.5 34.5q-59 0 -120 -66q-18 19 -35 38q90 88 178 88q59 0 96.5 -41t37.5 -121q0 -126 -2 -210q0 -15 9 -15l67 2q2 -19 0 -42zM111 97q0 -24 18.5 -39t47.5 -15q53 0 111 41q3 1 3 8v85q-10 2 -55 2q-63 0 -94 -23t-31 -59z" />
    <glyph glyph-name="Cacute" unicode="&#x106;" horiz-adv-x="585" 
d="M50 288q0 187 131 296q92 76 227 76q80 0 128 -21q6 -84 9 -170q-9 -1 -56 -6l-17 108q-1 12 -8 15q-28 18 -82 18q-95 0 -158 -64q-90 -90 -90 -228q0 -66 14 -111t48 -85q28 -31 73 -49.5t95 -18.5q83 0 177 42q10 -39 12 -51q-120 -49 -204 -49q-114 0 -193 60
q-49 38 -77.5 100.5t-28.5 137.5zM478 850q20 -23 37 -54q-29 -16 -89.5 -50.5t-78.5 -44.5q-15 20 -23 34q110 81 154 115z" />
    <glyph glyph-name="cacute" unicode="&#x107;" horiz-adv-x="403" 
d="M40 184q0 108 68 177t175 69q61 0 92 -21q0 -11 -12 -33.5t-21 -28.5q-1 0 -12 5t-21.5 9t-26.5 7.5t-30 3.5q-53 0 -85 -37q-46 -50 -46 -131q0 -79 37 -122q30 -38 90 -38q47 0 123 30q8 -20 11 -43q-80 -41 -158 -41q-77 0 -130.5 52t-53.5 142zM336 640
q20 -17 43 -44q-22 -17 -73.5 -59t-76.5 -62q-15 15 -28 31q22 21 68 67.5t67 66.5z" />
    <glyph glyph-name="Ccaron" unicode="&#x10c;" horiz-adv-x="585" 
d="M50 288q0 187 131 296q92 76 227 76q80 0 128 -21q6 -84 9 -170q-9 -1 -56 -6l-17 108q-1 12 -8 15q-28 18 -82 18q-95 0 -158 -64q-90 -90 -90 -228q0 -66 14 -111t48 -85q28 -31 73 -49.5t95 -18.5q83 0 177 42q10 -39 12 -51q-120 -49 -204 -49q-114 0 -193 60
q-49 38 -77.5 100.5t-28.5 137.5zM361 771q78 52 110 73q15 -13 26 -31q-12 -10 -54.5 -46t-64.5 -54q-24 0 -35 1q-12 10 -54 44.5t-64 52.5q10 15 25 32q15 -9 33.5 -21t42 -27.5t35.5 -23.5z" />
    <glyph glyph-name="ccaron" unicode="&#x10d;" horiz-adv-x="403" 
d="M40 184q0 108 68 177t175 69q61 0 92 -21q0 -11 -12 -33.5t-21 -28.5q-1 0 -12 5t-21.5 9t-26.5 7.5t-30 3.5q-53 0 -85 -37q-46 -50 -46 -131q0 -79 37 -122q30 -38 90 -38q47 0 123 30q8 -20 11 -43q-80 -41 -158 -41q-77 0 -130.5 52t-53.5 142zM244 542q31 30 93 92
q11 -8 30 -27q-17 -20 -54.5 -64.5t-50.5 -59.5h-37q-13 15 -49 58.5t-55 66.5q14 14 29 26q14 -14 47 -46t47 -46z" />
    <glyph glyph-name="Dcaron" unicode="&#x10e;" horiz-adv-x="691" 
d="M48 -1q0 32 1 47l69 2q4 0 4 5l1 547l-75 3q0 8 0.5 23.5t0.5 22.5q108 2 206 2q159 0 247 -53q63 -37 101 -104.5t38 -148.5q0 -88 -32 -162t-93 -119q-89 -65 -232 -65q-22 0 -65.5 0.5t-53.5 0.5q-17 0 -57.5 -0.5t-59.5 -0.5zM204 601l-2 -519q0 -21 13.5 -28.5
t62.5 -7.5q131 0 200 63q36 33 57.5 88.5t21.5 117.5q0 82 -21 133.5t-69 94.5q-72 62 -203 62q-47 0 -60 -4zM311 771q22 14 63.5 41.5t47.5 31.5q13 -13 26 -31q-12 -10 -36.5 -30.5t-45.5 -38t-38 -31.5q-24 0 -35 1q-88 74 -118 97q13 18 26 32q6 -4 47.5 -31t62.5 -41z
" />
    <glyph glyph-name="dcaron" unicode="&#x10f;" horiz-adv-x="576" 
d="M567 697q-24 -119 -51 -201q-15 -1 -48 8q15 89 22 195q45 6 77 -2zM365 35h-5q-59 -29 -85 -37t-55 -8q-75 0 -121 49q-59 56 -59 151q0 101 67 176q57 64 149 64q46 0 99 -20l4 3q0 71 -2 217l-83 2q0 30 1 43q21 3 59.5 9t67 11t32.5 5q2 0 2 -3q0 -51 -3 -630
q0 -21 11 -21l68 3v-43q-51 -16 -117 -16q-16 13 -30 45zM357 96q0 180 -1 256q-47 26 -97 26q-64 0 -100 -48q-36 -52 -36 -130q0 -73 32 -116q31 -41 85 -41q57 0 111 39q6 4 6 14z" />
    <glyph glyph-name="Dcroat" unicode="&#x110;" horiz-adv-x="708" 
d="M140 346v254l-74 3q0 32 1 46q108 2 205 2q90 0 143 -12t98 -37q68 -38 107 -107.5t39 -149.5q0 -90 -32.5 -162.5t-91.5 -117.5q-88 -66 -233 -66q-22 0 -66 0.5t-54 0.5q-17 0 -57.5 -0.5t-59.5 -0.5q0 7 0.5 23t0.5 24l69 2q5 0 5 5v243h-26.5h-32.5h-30q0 35 1 50h88
zM220 296l-1 -214q0 -22 13.5 -29t62.5 -7q128 0 201 64q35 31 57 87t22 117q0 83 -21 134.5t-69 93.5q-72 63 -209 63q-42 0 -55 -4l-1 -255q29 1 88.5 1.5t91.5 0.5q0 -28 -3 -52h-177z" />
    <glyph glyph-name="dcroat" unicode="&#x111;" horiz-adv-x="521" 
d="M123 200q0 -73 32 -116q31 -41 85 -41q57 0 111 39q6 4 6 14q0 180 -1 256q-47 26 -97 26q-64 0 -100 -48q-36 -52 -36 -130zM358 514h-122q0 15 2 43q41 1 120 1q0 12 -0.5 36t-0.5 36l-83 2q0 30 1 43q21 3 59.5 9t67 11t32.5 5q2 0 2 -3v-139q10 0 28 0.5t28 0.5
q0 -30 -2 -45h-55q0 -175 -2 -447q0 -21 11 -21l68 3v-43q-51 -16 -117 -16q-16 13 -30 45h-5q-59 -29 -85 -37t-55 -8q-75 0 -121 49q-59 56 -59 151q0 101 67 176q57 64 149 64q46 0 99 -20l4 3q0 18 -0.5 51.5t-0.5 49.5z" />
    <glyph glyph-name="Emacron" unicode="&#x112;" horiz-adv-x="555" 
d="M50 46l70 3q3 0 3 3v549l-74 3q0 16 2 46h115h221q42 1 87 1q6 -75 9 -152q-44 -6 -53 -6l-16 87q-3 15 -23 17q-43 5 -158 5h-30l-1 -246q103 0 157 1q22 1 23 20l5 48h51q-1 -16 -1.5 -48t-0.5 -48v-92q-32 -2 -51 -2l-4 53q-1 19 -24 19q-45 1 -155 1l-1 -240
q0 -13 8.5 -16.5t47.5 -3.5q125 0 155 7q12 3 18 20l32 91q12 -2 52 -10q-14 -64 -35 -157q-12 0 -122 0.5t-189 0.5q-22 0 -61.5 -0.5t-56.5 -0.5v47zM390 785q2 -25 0 -49q-33 0 -110.5 0.5t-114.5 0.5q-2 21 0 46q71 0 225 2z" />
    <glyph glyph-name="emacron" unicode="&#x113;" horiz-adv-x="445" 
d="M40 191q0 101 59 170t154 69q77 0 118 -52q38 -47 38 -129q-4 -10 -15.5 -23t-18.5 -14q-88 -3 -253 -3q-3 -83 32 -124q35 -40 103 -40q53 0 133 32q8 -21 11 -45q-87 -42 -159 -42q-95 0 -148.5 56t-53.5 145zM242 383q-47 0 -75 -31q-39 -45 -42 -97q109 0 195 3
q13 2 13 11q0 52 -27 84q-25 30 -64 30zM338 555q2 -24 0 -48q-136 0 -201 1q-2 22 0 45q134 2 201 2z" />
    <glyph glyph-name="Edotaccent" unicode="&#x116;" horiz-adv-x="555" 
d="M50 46l70 3q3 0 3 3v549l-74 3q0 16 2 46h115h221q42 1 87 1q6 -75 9 -152q-44 -6 -53 -6l-16 87q-3 15 -23 17q-43 5 -158 5h-30l-1 -246q103 0 157 1q22 1 23 20l5 48h51q-1 -16 -1.5 -48t-0.5 -48v-92q-32 -2 -51 -2l-4 53q-1 19 -24 19q-45 1 -155 1l-1 -240
q0 -13 8.5 -16.5t47.5 -3.5q125 0 155 7q12 3 18 20l32 91q12 -2 52 -10q-14 -64 -35 -157q-12 0 -122 0.5t-189 0.5q-22 0 -61.5 -0.5t-56.5 -0.5v47zM288 821q26 0 38.5 -16t12.5 -36q-1 -23 -16 -38.5t-37 -15.5q-23 0 -38.5 15.5t-15.5 37.5t15 37.5t41 15.5z" />
    <glyph glyph-name="edotaccent" unicode="&#x117;" horiz-adv-x="445" 
d="M40 191q0 101 59 170t154 69q77 0 118 -52q38 -47 38 -129q-4 -10 -15.5 -23t-18.5 -14q-88 -3 -253 -3q-3 -83 32 -124q35 -40 103 -40q53 0 133 32q8 -21 11 -45q-87 -42 -159 -42q-95 0 -148.5 56t-53.5 145zM242 383q-47 0 -75 -31q-39 -45 -42 -97q109 0 195 3
q13 2 13 11q0 52 -27 84q-25 30 -64 30zM246 631q26 0 38.5 -16t11.5 -36q0 -23 -15 -38t-38 -15t-38 15.5t-15 36.5q0 22 15 37.5t41 15.5z" />
    <glyph glyph-name="Eogonek" unicode="&#x118;" horiz-adv-x="555" 
d="M51 650h115h221q23 0 51 0.5t36 0.5q6 -75 9 -152q-44 -6 -53 -6l-16 87q-3 15 -23 17q-43 5 -158 5h-30l-1 -246q103 0 157 1q22 1 23 20l5 48h51q-1 -16 -1.5 -48t-0.5 -48v-92q-32 -2 -51 -2l-4 53q-1 19 -24 19q-45 1 -155 1l-1 -240q0 -13 8.5 -16.5t47.5 -3.5
q125 0 155 7q12 3 18 20l32 91q12 -2 52 -10q-20 -94 -35 -157q-57 -23 -84.5 -55.5t-27.5 -60.5q0 -20 12.5 -31.5t28.5 -11.5q29 0 51 18q13 -13 19 -30q-41 -41 -91 -41q-36 0 -63.5 23.5t-27.5 58.5q0 64 103 130q-48 1 -231 1q-22 0 -61.5 -0.5t-56.5 -0.5v47l70 3
q3 0 3 3v549l-74 3q0 16 2 46z" />
    <glyph glyph-name="eogonek" unicode="&#x119;" horiz-adv-x="445" 
d="M401 32q-51 -29 -85.5 -71t-34.5 -78q0 -20 12.5 -31.5t28.5 -11.5q29 0 51 18q13 -13 19 -30q-41 -41 -91 -41q-36 0 -63.5 23.5t-27.5 58.5q0 65 85 129q-32 -8 -55 -8q-93 0 -146.5 56t-53.5 146q0 100 59 169t154 69q77 0 118 -52q38 -47 38 -129q-4 -10 -15.5 -23
t-18.5 -14q-88 -3 -253 -3q-3 -83 32 -124q35 -40 103 -40q53 0 133 32q8 -21 11 -45zM242 383q-47 0 -75 -31q-39 -45 -42 -97q109 0 195 3q13 2 13 11q0 52 -27 84q-25 30 -64 30z" />
    <glyph glyph-name="Ecaron" unicode="&#x11a;" horiz-adv-x="555" 
d="M50 46l70 3q3 0 3 3v549l-74 3q0 16 2 46h115h221q42 1 87 1q6 -75 9 -152q-44 -6 -53 -6l-16 87q-3 15 -23 17q-43 5 -158 5h-30l-1 -246q103 0 157 1q22 1 23 20l5 48h51q-1 -16 -1.5 -48t-0.5 -48v-92q-32 -2 -51 -2l-4 53q-1 19 -24 19q-45 1 -155 1l-1 -240
q0 -13 8.5 -16.5t47.5 -3.5q125 0 155 7q12 3 18 20l32 91q12 -2 52 -10q-14 -64 -35 -157q-12 0 -122 0.5t-189 0.5q-22 0 -61.5 -0.5t-56.5 -0.5v47zM278 771q22 14 63.5 41.5t47.5 31.5q10 -9 26 -31q-12 -10 -36.5 -30.5t-45.5 -38t-38 -31.5q-24 0 -34 1
q-117 95 -119 97q13 18 26 32q6 -4 47.5 -31t62.5 -41z" />
    <glyph glyph-name="ecaron" unicode="&#x11b;" horiz-adv-x="445" 
d="M40 191q0 101 59 170t154 69q77 0 118 -52q38 -47 38 -129q-4 -10 -15.5 -23t-18.5 -14q-88 -3 -253 -3q-3 -83 32 -124q35 -40 103 -40q53 0 133 32q8 -21 11 -45q-87 -42 -159 -42q-95 0 -148.5 56t-53.5 145zM242 383q-47 0 -75 -31q-39 -45 -42 -97q109 0 195 3
q13 2 13 11q0 52 -27 84q-25 30 -64 30zM248 542q15 15 47.5 47t46.5 45q10 -8 29 -27q-17 -20 -54.5 -64.5t-50.5 -59.5h-37q-13 15 -49 58.5t-55 66.5q15 15 30 26q14 -14 46.5 -46t46.5 -46z" />
    <glyph glyph-name="Gbreve" unicode="&#x11e;" horiz-adv-x="665" 
d="M513 461l-13 100q-2 13 -9 19q-34 27 -103 27q-98 0 -163 -64q-88 -83 -88 -223q0 -136 71 -208q70 -74 187 -74q25 0 46.5 4t33.5 9.5t12 10.5l1 170l-108 2q0 16 2 48q19 0 68 -0.5t76 -0.5q17 0 49.5 0.5t47.5 0.5q0 -33 -1 -48l-51 -2q-4 0 -4 -4l-2 -205
q-56 -33 -178 -33q-145 0 -227 68q-110 94 -110 251q0 91 39 165.5t106 121.5q89 64 216 64q95 0 151 -28q6 -99 8 -165q-8 -1 -17.5 -2t-21.5 -2t-18 -2zM374 725q-48 0 -83.5 28.5t-44.5 69.5q19 9 39 14q32 -59 91 -59q30 0 53.5 16.5t35.5 38.5q19 -3 40 -10
q-9 -35 -45.5 -66.5t-85.5 -31.5z" />
    <glyph glyph-name="gbreve" unicode="&#x11f;" horiz-adv-x="466" 
d="M138 114v6q-93 43 -93 142q0 68 53 118t139 50q43 0 68 -9q9 -2 22 -2q15 1 43.5 2t51 2t36.5 2q2 -26 0 -51h-95l-1 -4q36 -33 36 -95q0 -68 -45 -114q-60 -60 -165 -54q-48 -40 -48 -52q0 -19 25.5 -25t104.5 -8q116 -6 145 -27q25 -16 35.5 -33t10.5 -46
q0 -42 -26.5 -77.5t-76.5 -56.5q-69 -28 -153 -28q-91 0 -141 30t-50 85q0 26 21 45q15 11 43 31.5t41 31.5v6q-59 16 -59 68q0 7 10.5 15t67.5 48zM124 265q0 -60 27 -88t69 -28q43 0 71.5 32.5t28.5 91.5q0 53 -24 83q-24 31 -70 31q-47 0 -74.5 -32t-27.5 -90zM386 -101
q0 34 -23 46t-89 17q-83 5 -104 5q-56 -49 -68 -66q-10 -16 -10 -32q0 -35 38 -53t87 -18q70 0 114 24q55 28 55 77zM241 487q-44 0 -76 28t-41 68q16 8 40 13q29 -58 79 -58t76 54q24 -4 41 -9q-8 -35 -41.5 -65.5t-77.5 -30.5z" />
    <glyph glyph-name="uni0122" unicode="&#x122;" horiz-adv-x="665" 
d="M513 461l-13 100q-2 13 -9 19q-34 27 -103 27q-98 0 -163 -64q-88 -83 -88 -223q0 -136 71 -208q70 -74 187 -74q25 0 46.5 4t33.5 9.5t12 10.5l1 170l-108 2q0 16 2 48q19 0 68 -0.5t76 -0.5q17 0 49.5 0.5t47.5 0.5q0 -33 -1 -48l-51 -2q-4 0 -4 -4l-2 -205
q-56 -33 -178 -33q-145 0 -227 68q-110 94 -110 251q0 91 39 165.5t106 121.5q89 64 216 64q95 0 151 -28q6 -99 8 -165q-8 -1 -17.5 -2t-21.5 -2t-18 -2zM378 -57q23 0 41.5 -20t18.5 -46q0 -84 -92 -136q-20 25 -23 30q55 34 55 74q0 25 -41 34q-4 27 9 45.5t32 18.5z" />
    <glyph glyph-name="uni0123" unicode="&#x123;" horiz-adv-x="466" 
d="M235 483q-22 0 -40 20t-18 45q0 80 90 128q14 -14 22 -26q-55 -34 -53 -73q0 -26 39 -37q4 -23 -8.5 -40t-31.5 -17zM138 114v6q-93 43 -93 142q0 68 53 118t139 50q43 0 68 -9q9 -2 22 -2q15 1 43.5 2t51 2t36.5 2q2 -26 0 -51h-95l-1 -4q36 -33 36 -95q0 -68 -45 -114
q-60 -60 -165 -54q-48 -40 -48 -52q0 -19 25.5 -25t104.5 -8q116 -6 145 -27q25 -16 35.5 -33t10.5 -46q0 -42 -26.5 -77.5t-76.5 -56.5q-69 -28 -153 -28q-91 0 -141 30t-50 85q0 26 21 45q15 11 43 31.5t41 31.5v6q-59 16 -59 68q0 7 10.5 15t67.5 48zM124 265
q0 -60 27 -88t69 -28q43 0 71.5 32.5t28.5 91.5q0 53 -24 83q-24 31 -70 31q-47 0 -74.5 -32t-27.5 -90zM386 -101q0 34 -23 46t-89 17q-83 5 -104 5q-56 -49 -68 -66q-10 -16 -10 -32q0 -35 38 -53t87 -18q70 0 114 24q55 28 55 77z" />
    <glyph glyph-name="Imacron" unicode="&#x12a;" horiz-adv-x="324" 
d="M123 601l-79 3q0 31 1 46h124h117q1 -16 -1 -46l-79 -3q-2 0 -2 -4l-3 -548l86 -3q0 -32 -1 -47q-16 0 -57.5 0.5t-62.5 0.5q-20 0 -61 -0.5t-59 -0.5q0 32 1 47l72 3q4 0 4 4v548zM279 785v-49q-33 0 -110.5 0.5t-115.5 0.5v46q72 0 226 2z" />
    <glyph glyph-name="imacron" unicode="&#x12b;" horiz-adv-x="266" 
d="M102 360l-78 3q0 7 0.5 21t0.5 21q18 2 54.5 8.5t65.5 11.5t32 5q2 0 2 -3q0 -56 -1 -192t-1 -189l70 -2q0 -30 -1 -44h-111q-17 0 -52.5 -0.5t-52.5 -0.5q0 30 1 44l67 3q4 0 4 5v309zM233 555q2 -24 0 -48q-136 0 -201 1q-2 22 0 45q134 2 201 2z" />
    <glyph glyph-name="Iogonek" unicode="&#x12e;" horiz-adv-x="324" 
d="M46 -1q0 32 1 47l72 3q4 0 4 4v548l-79 3q0 31 1 46h124h117q1 -16 -1 -46l-79 -3q-2 0 -2 -4l-3 -548l86 -3q0 -31 -1 -47l-46 1q-35 -1 -77.5 -41t-42.5 -76q0 -20 12.5 -31.5t28.5 -11.5q27 0 51 18q10 -10 19 -30q-41 -41 -92 -41q-35 0 -63 23.5t-28 58.5
q0 63 105 131q-21 0 -55.5 -0.5t-51.5 -0.5z" />
    <glyph glyph-name="iogonek" unicode="&#x12f;" horiz-adv-x="266" 
d="M135 631q26 0 38.5 -16t11.5 -36q0 -23 -15 -38t-38 -15t-38 15.5t-15 36.5q0 22 15 37.5t41 15.5zM141 0q-17 0 -55.5 -0.5t-55.5 -0.5q0 30 1 44l67 3q4 0 4 5v309l-78 3q0 7 0.5 21t0.5 21q18 2 54.5 8.5t65.5 11.5t32 5q2 0 2 -3q0 -56 -1 -192t-1 -189l70 -2
q0 -30 -1 -44h-45q-92 -68 -92 -117q0 -20 12.5 -31.5t28.5 -11.5q27 0 51 18q11 -11 18 -30q-39 -41 -91 -41q-35 0 -63 23.5t-28 58.5q0 62 104 131z" />
    <glyph glyph-name="Idotaccent" unicode="&#x130;" horiz-adv-x="324" 
d="M123 601l-79 3q0 31 1 46h124h117q1 -16 -1 -46l-79 -3q-2 0 -2 -4l-3 -548l86 -3q0 -32 -1 -47q-16 0 -57.5 0.5t-62.5 0.5q-20 0 -61 -0.5t-59 -0.5q0 32 1 47l72 3q4 0 4 4v548zM168 821q26 0 38.5 -16t12.5 -36q-1 -23 -16 -38.5t-38 -15.5t-38 15.5t-15 37.5
t15 37.5t41 15.5z" />
    <glyph glyph-name="dotlessi" unicode="&#x131;" horiz-adv-x="266" 
d="M102 360l-78 3q0 7 0.5 21t0.5 21q18 2 54.5 8.5t65.5 11.5t32 5q2 0 2 -3q0 -56 -1 -192t-1 -189l70 -2q0 -30 -1 -44h-111q-17 0 -52.5 -0.5t-52.5 -0.5q0 30 1 44l67 3q4 0 4 5v309z" />
    <glyph glyph-name="uni0136" unicode="&#x136;" horiz-adv-x="631" 
d="M123 601l-72 3q0 8 0.5 23.5t0.5 22.5h116h110q0 -32 -1 -47l-70 -2q-3 0 -3 -6l-2 -241q48 3 69 8q66 63 197 234q4 4 -2 4l-67 3q0 32 1 47h129h80q0 -31 -1 -46l-53 -3q-78 -91 -220 -249v-5q57 -41 116 -137q62 -97 89 -136q15 -23 33 -24l72 -3q0 -17 -2 -47
q-24 -1 -80 -1q-11 0 -34.5 -0.5t-32.5 -0.5q-11 13 -108 169q-89 142 -125 142q-33 0 -61 -2l-1 -258l81 -3q0 -32 -1 -47q-15 0 -55.5 0.5t-60.5 0.5q-19 0 -58 -0.5t-56 -0.5q0 32 1 47l67 3q3 0 3 4zM332 -57q23 0 41.5 -20t18.5 -46q0 -84 -92 -136q-16 20 -23 30
q55 34 55 74q0 25 -41 34q-4 27 9 45.5t32 18.5z" />
    <glyph glyph-name="uni0137" unicode="&#x137;" horiz-adv-x="499" 
d="M22 -1q0 30 1 44l62 3q2 0 2 4q1 175 1 583h-76q0 29 1 42q16 2 53 8.5t66 11.5t32 5t3 -4q0 -59 -1 -212t-1 -231q39 0 62 4q60 56 107 110q2 1 1 3t-3 2l-47 2q0 32 1 45h100q14 0 41 0.5t40 0.5v-46l-47 -3q-59 -56 -135 -126v-6q41 -34 84 -104q40 -65 53 -80
q9 -9 18 -9l59 -2q0 -29 -1 -44q-18 0 -68 -0.5t-64 -1.5q-28 36 -67 111q-48 83 -82 100q-29 0 -53 -2q0 -24 -0.5 -81t-0.5 -80l63 -2q0 -30 -1 -44h-101q-18 0 -52.5 -0.5t-49.5 -0.5zM247 -57q23 0 40.5 -20t17.5 -45q0 -80 -90 -128q-20 22 -22 26q54 33 54 73
q0 25 -40 37q-4 24 8.5 40.5t31.5 16.5z" />
    <glyph glyph-name="Lacute" unicode="&#x139;" horiz-adv-x="523" 
d="M123 601l-74 2q0 17 2 47h117h127q0 -32 -1 -47l-88 -2q-2 0 -2 -4l-3 -529q0 -14 6.5 -17.5t36.5 -3.5q128 0 160 6q12 3 18 21l36 105q32 -5 52 -12q-11 -54 -39 -168q-13 0 -119 0.5t-185 0.5q-22 0 -61.5 -0.5t-56.5 -0.5q0 7 0.5 23t0.5 24l69 3q3 0 3 4zM282 850
q18 -23 37 -54q-45 -25 -168 -95q-5 7 -24 34q47 34 155 115z" />
    <glyph glyph-name="lacute" unicode="&#x13a;" horiz-adv-x="256" 
d="M18 -1q0 30 1 44l67 3q3 0 3 4q1 176 1 582l-80 2q0 29 1 43q19 2 56 7.5t66.5 10.5t32.5 5t3 -4q0 -22 -2 -277t-2 -373l78 -2q0 -30 -1 -44h-116q-18 0 -55 -0.5t-53 -0.5zM209 870q18 -23 37 -54q-29 -16 -89.5 -50.5t-78.5 -44.5q-5 7 -24 34q47 34 155 115z" />
    <glyph glyph-name="uni013B" unicode="&#x13b;" horiz-adv-x="523" 
d="M123 601l-74 2q0 17 2 47h117h127q0 -32 -1 -47l-88 -2q-2 0 -2 -4l-3 -529q0 -14 6.5 -17.5t36.5 -3.5q128 0 160 6q12 3 18 21l36 105q32 -5 52 -12q-11 -54 -39 -168q-13 0 -119 0.5t-185 0.5q-22 0 -61.5 -0.5t-56.5 -0.5q0 7 0.5 23t0.5 24l69 3q3 0 3 4zM289 -57
q23 0 41.5 -20t18.5 -46q0 -83 -92 -136q-3 3 -8 9.5t-9 11.5t-7 9q56 34 56 74q0 24 -41 34q-4 27 9 45.5t32 18.5z" />
    <glyph glyph-name="uni013C" unicode="&#x13c;" horiz-adv-x="256" 
d="M18 -1q0 30 1 44l67 3q3 0 3 4q1 176 1 582l-80 2q0 29 1 43q19 2 56 7.5t66.5 10.5t32.5 5t3 -4q0 -22 -2 -277t-2 -373l78 -2q0 -30 -1 -44h-116q-18 0 -55 -0.5t-53 -0.5zM131 -57q22 0 40 -20t18 -45q0 -80 -90 -128q-14 14 -22 26q53 33 53 73q0 26 -39 37
q-4 24 8.5 40.5t31.5 16.5z" />
    <glyph glyph-name="Lcaron" unicode="&#x13d;" horiz-adv-x="523" 
d="M450 697q-22 -107 -52 -187q-7 -1 -48 7q14 74 23 182q45 6 77 -2zM123 601l-74 2q0 17 2 47h117h127q0 -32 -1 -47l-88 -2q-2 0 -2 -4l-3 -529q0 -14 6.5 -17.5t36.5 -3.5q128 0 160 6q12 3 18 21l36 105q32 -5 52 -12q-11 -54 -39 -168q-13 0 -119 0.5t-185 0.5
q-22 0 -61.5 -0.5t-56.5 -0.5q0 7 0.5 23t0.5 24l69 3q3 0 3 4z" />
    <glyph glyph-name="lcaron" unicode="&#x13e;" horiz-adv-x="309" 
d="M298 697q-20 -106 -51 -201q-15 -1 -48 8q14 82 23 195q44 6 76 -2zM18 -1q0 30 1 44l67 3q3 0 3 4q1 176 1 582l-80 2q0 29 1 43q19 2 56 7.5t66.5 10.5t32.5 5t3 -4q0 -22 -2 -277t-2 -373l78 -2q0 -30 -1 -44h-116q-18 0 -55 -0.5t-53 -0.5z" />
    <glyph glyph-name="Lslash" unicode="&#x141;" horiz-adv-x="543" 
d="M143 601l-74 2q0 8 0.5 24t0.5 23h118h127q0 -32 -2 -47l-87 -2q-2 0 -2 -4l-1 -249q17 8 146 74q9 -17 19 -47q-29 -13 -166 -82l-1 -225q0 -14 6.5 -17.5t36.5 -3.5q129 0 159 6q13 3 19 21l36 105q32 -5 52 -12q-11 -54 -39 -168q-12 0 -118.5 0.5t-185.5 0.5
q-22 0 -61.5 -0.5t-56.5 -0.5q0 7 0.5 23t0.5 24l69 3q3 0 3 3l1 205q-54 -27 -86 -44q-11 18 -20 41q17 9 35 18.5t38.5 20.5t32.5 17v291z" />
    <glyph glyph-name="lslash" unicode="&#x142;" horiz-adv-x="295" 
d="M39 43l67 3q3 0 3 4q2 154 2 299q-65 -42 -71 -46q-10 15 -21 39q80 51 91 58v232l-80 2q0 29 1 43q19 2 56 7.5t66.5 10.5t32.5 5t3 -4q-3 -242 -3 -251q17 10 76 48q12 -17 22 -41q-17 -11 -97 -61q-2 -196 -2 -345l78 -2q0 -30 -1 -44h-116q-18 0 -55 -0.5t-53 -0.5
q0 30 1 44z" />
    <glyph glyph-name="Nacute" unicode="&#x143;" horiz-adv-x="716" 
d="M48 46l64 3q3 0 3 4v548l-73 3q0 32 1 46h145q222 -331 358 -540l5 1q-2 328 -4 490l-94 2q0 7 0.5 23t0.5 24h124h96v-14v-17.5v-14.5l-61 -3q-3 0 -3 -4l-3 -593q-24 -11 -53 -11q-172 237 -372 538h-6q0 -81 -0.5 -241t-0.5 -241l99 -2q0 -32 -1 -47h-131
q-17 0 -49.5 -0.5t-45.5 -0.5q0 32 1 47zM450 850q14 -16 37 -54q-29 -16 -89.5 -50.5t-78.5 -44.5q-15 20 -23 34q46 34 154 115z" />
    <glyph glyph-name="nacute" unicode="&#x144;" horiz-adv-x="558" 
d="M101 360l-77 1q0 17 2 41q16 3 49.5 10t59 12t28.5 5q2 0 2 -3q5 -33 11 -60l5 -1q70 43 99.5 54t64.5 11q67 0 107 -68q19 -34 19 -74q0 -17 -3 -242l64 -2q0 -30 -1 -44h-105q-16 0 -49 -0.5t-47 -0.5q0 30 1 44l58 3q3 0 3 4q1 54 1 180q0 79 -13 101q-21 38 -68 38
q-27 0 -64.5 -17t-67.5 -41q-3 -114 -3 -265l72 -2q0 -30 -1 -44h-113q-16 0 -49 -0.5t-48 -0.5q0 30 1 44l60 3q3 0 3 4zM356 640q20 -17 43 -44q-22 -17 -73.5 -59t-76.5 -62q-14 15 -28 31l67.5 67.5t67.5 66.5z" />
    <glyph glyph-name="uni0145" unicode="&#x145;" horiz-adv-x="716" 
d="M48 46l64 3q3 0 3 4v548l-73 3q0 32 1 46h145q222 -331 358 -540l5 1q-2 328 -4 490l-94 2q0 7 0.5 23t0.5 24h124h96v-14v-17.5v-14.5l-61 -3q-3 0 -3 -4l-3 -593q-24 -11 -53 -11q-172 237 -372 538h-6q0 -81 -0.5 -241t-0.5 -241l99 -2q0 -32 -1 -47h-131
q-17 0 -49.5 -0.5t-45.5 -0.5q0 32 1 47zM365 -57q23 0 41.5 -20t18.5 -46q0 -83 -92 -136q-3 3 -8 9.5t-9 11.5t-7 9q55 33 55 74q0 25 -40 34q-4 27 9 45.5t32 18.5z" />
    <glyph glyph-name="uni0146" unicode="&#x146;" horiz-adv-x="558" 
d="M101 360l-77 1q0 17 2 41q16 3 49.5 10t59 12t28.5 5q2 0 2 -3q5 -33 11 -60l5 -1q70 43 99.5 54t64.5 11q67 0 107 -68q19 -34 19 -74q0 -17 -3 -242l64 -2q0 -30 -1 -44h-105q-16 0 -49 -0.5t-47 -0.5q0 30 1 44l58 3q3 0 3 4q1 54 1 180q0 79 -13 101q-21 38 -68 38
q-27 0 -64.5 -17t-67.5 -41q-3 -114 -3 -265l72 -2q0 -30 -1 -44h-113q-16 0 -49 -0.5t-48 -0.5q0 30 1 44l60 3q3 0 3 4zM278 -57q22 0 40 -20t18 -45q0 -80 -90 -128q-14 14 -22 26q53 33 53 73q0 26 -39 37q-4 24 8.5 40.5t31.5 16.5z" />
    <glyph glyph-name="Ncaron" unicode="&#x147;" horiz-adv-x="716" 
d="M48 46l64 3q3 0 3 4v548l-73 3q0 32 1 46h145q222 -331 358 -540l5 1q-2 328 -4 490l-94 2q0 7 0.5 23t0.5 24h124h96v-14v-17.5v-14.5l-61 -3q-3 0 -3 -4l-3 -593q-24 -11 -53 -11q-172 237 -372 538h-6q0 -81 -0.5 -241t-0.5 -241l99 -2q0 -32 -1 -47h-131
q-17 0 -49.5 -0.5t-45.5 -0.5q0 32 1 47zM360 771q78 52 110 73q15 -13 26 -31q-12 -10 -36.5 -30.5t-45.5 -38t-38 -31.5q-24 0 -34 1q-12 10 -54 44.5t-64 52.5q10 15 25 32q14 -9 32.5 -21t42.5 -27.5t36 -23.5z" />
    <glyph glyph-name="ncaron" unicode="&#x148;" horiz-adv-x="558" 
d="M101 360l-77 1q0 17 2 41q16 3 49.5 10t59 12t28.5 5q2 0 2 -3q5 -33 11 -60l5 -1q70 43 99.5 54t64.5 11q67 0 107 -68q19 -34 19 -74q0 -17 -3 -242l64 -2q0 -30 -1 -44h-105q-16 0 -49 -0.5t-47 -0.5q0 30 1 44l58 3q3 0 3 4q1 54 1 180q0 79 -13 101q-21 38 -68 38
q-27 0 -64.5 -17t-67.5 -41q-3 -114 -3 -265l72 -2q0 -30 -1 -44h-113q-16 0 -49 -0.5t-48 -0.5q0 30 1 44l60 3q3 0 3 4zM280 542q15 15 47.5 47t46.5 45q10 -8 29 -27q-17 -20 -54.5 -64.5t-50.5 -59.5h-37q-13 15 -49 58.5t-55 66.5q14 14 29 26q17 -15 50.5 -49
t43.5 -43z" />
    <glyph glyph-name="Omacron" unicode="&#x14c;" horiz-adv-x="718" 
d="M346 -10q-126 0 -208 84q-88 90 -88 245q0 92 39 167.5t100 117.5q83 56 189 56q97 0 167 -50q56 -39 89.5 -109.5t33.5 -155.5q0 -172 -105 -274q-83 -81 -217 -81zM360 40q95 0 149 62q73 84 73 222q0 146 -72 224q-55 62 -145 62q-83 0 -141 -52q-88 -79 -88 -232
q0 -147 73 -224q58 -62 151 -62zM476 785q2 -25 0 -49q-33 0 -110 0.5t-115 0.5q-2 21 0 46q73 0 225 2z" />
    <glyph glyph-name="omacron" unicode="&#x14d;" horiz-adv-x="505" 
d="M245 -10q-86 0 -138 47q-67 61 -67 164q0 114 85 183q56 46 137 46q73 0 124 -38q78 -59 78 -173q0 -120 -86 -187q-53 -42 -133 -42zM251 34q52 0 84 33q45 49 45 148q0 89 -40 133q-34 37 -85 37t-84 -34q-46 -47 -46 -142t46 -142q31 -33 80 -33zM364 555q2 -24 0 -48
q-137 0 -201 1q-2 22 0 45q134 2 201 2z" />
    <glyph glyph-name="Ohungarumlaut" unicode="&#x150;" horiz-adv-x="718" 
d="M346 -10q-126 0 -208 84q-88 90 -88 245q0 92 39 167.5t100 117.5q83 56 189 56q97 0 167 -50q56 -39 89.5 -109.5t33.5 -155.5q0 -172 -105 -274q-83 -81 -217 -81zM360 40q95 0 149 62q73 84 73 222q0 146 -72 224q-55 62 -145 62q-83 0 -141 -52q-88 -79 -88 -232
q0 -147 73 -224q58 -62 151 -62zM392 862q17 -16 37 -43q-11 -8 -63.5 -45t-81.5 -57q-4 5 -12.5 15.5t-12.5 15.5q12 10 60.5 51.5t72.5 62.5zM514 858q21 -19 36 -42q-78 -55 -143 -104q-2 2 -25 31q20 17 66 57t66 58z" />
    <glyph glyph-name="ohungarumlaut" unicode="&#x151;" horiz-adv-x="505" 
d="M245 -10q-86 0 -138 47q-67 61 -67 164q0 114 85 183q56 46 137 46q73 0 124 -38q78 -59 78 -173q0 -120 -86 -187q-53 -42 -133 -42zM251 34q52 0 84 33q45 49 45 148q0 89 -40 133q-34 37 -85 37t-84 -34q-46 -47 -46 -142t46 -142q31 -33 80 -33zM269 638
q14 -11 40 -39q-11 -10 -58.5 -51t-73.5 -63q-19 19 -27 28q17 18 58 61t61 64zM395 634q14 -11 40 -39q-86 -76 -130 -115l-28 28q18 19 59 63t59 63z" />
    <glyph glyph-name="OE" unicode="&#x152;" horiz-adv-x="975" 
d="M50 319q0 92 38 168.5t101 120.5q75 52 176 52q60 0 108.5 -23.5t74.5 -58.5v72h51h212q41 1 87 1q9 -146 9 -152q-44 -5 -53 -6l-16 85q-3 18 -25 19q-40 5 -157 5h-29l-1 -244q103 0 155 2q24 0 25 20l5 47h16.5h19h15.5q0 -15 -0.5 -47t-0.5 -48q-1 -31 -1 -93
q-33 -2 -51 -1l-4 51q-1 12 -6.5 16t-19.5 4q-91 2 -153 1l-1 -242q0 -13 8.5 -16.5t47.5 -3.5q126 0 154 7q13 3 19 20l32 90q22 -2 52 -10q-14 -66 -35 -156q-14 0 -115.5 0.5t-179.5 0.5h-61q0 60 1 85q-70 -95 -210 -95q-116 0 -197 79q-91 91 -91 250zM136 330
q0 -147 67 -221q62 -69 154 -69q63 0 113 33t77 96v320q-23 56 -70.5 88.5t-114.5 32.5q-86 0 -143 -55q-83 -83 -83 -225z" />
    <glyph glyph-name="oe" unicode="&#x153;" horiz-adv-x="781" 
d="M414 80h-5q-53 -90 -166 -90q-86 0 -135 46q-67 64 -67 165q0 116 83 183q58 46 139 46q56 0 96.5 -28t58.5 -70h5q55 98 165 98q77 0 118 -52q38 -47 38 -130q-3 -10 -14.5 -22.5t-19.5 -13.5q-93 -3 -253 -3q-2 -84 33 -123q34 -41 103 -41q52 0 132 32q8 -21 11 -45
q-84 -42 -159 -42q-123 0 -163 90zM253 34q49 0 80 31q45 49 45 148q0 89 -38 135q-32 37 -83 37q-54 0 -87 -36q-45 -52 -45 -137q0 -98 47 -145q30 -33 81 -33zM574 383q-43 0 -71 -30q-40 -43 -42 -98q109 0 194 3q13 2 13 11q0 52 -27 83q-24 31 -67 31z" />
    <glyph glyph-name="Racute" unicode="&#x154;" horiz-adv-x="600" 
d="M123 600l-69 3q0 31 1 46q112 2 193 2q82 0 137 -16q51 -14 86.5 -56t35.5 -94q0 -63 -37.5 -109.5t-98.5 -70.5v-5q9 -4 17.5 -10t15 -12t14.5 -17.5t13.5 -19.5t15 -25t14.5 -26t16.5 -31.5t17.5 -34.5q25 -47 35.5 -60.5t19.5 -13.5l61 -3q0 -32 -1 -47q-45 0 -66 -1
q-10 0 -34.5 -0.5t-30.5 -0.5q-19 26 -66.5 119t-61.5 114q-18 27 -37.5 37t-55.5 10q-50 0 -58 -2v-226l84 -4q0 -31 -1 -46h-121q-76 0 -109 -1q0 8 0.5 24t0.5 23l64 3q4 0 4 4zM203 600l-2 -274q5 -2 53 -2q87 0 129 43t42 97q0 69 -44.5 105t-120.5 36q-47 0 -57 -5z
M380 850q18 -23 37 -54q-30 -16 -93.5 -52t-75.5 -43q-15 20 -23 34q115 85 155 115z" />
    <glyph glyph-name="racute" unicode="&#x155;" horiz-adv-x="375" 
d="M38 -1q0 17 2 43l58 3q3 0 3 3v314l-73 1q0 7 0.5 21t0.5 20q17 3 51 9.5t60 11.5t28 5t2 -3q0 -10 1.5 -57t2.5 -77h4q41 79 71 108t64 29t60 -11q0 -16 -9.5 -41.5t-18.5 -32.5q-36 8 -51 8t-34 -15q-29 -23 -66 -93q-15 -32 -17 -92q0 -18 -0.5 -54.5t-0.5 -52.5
l95 -3q0 -29 -2 -43h-127q-17 0 -52.5 -0.5t-51.5 -0.5zM284 640q20 -17 43 -44q-22 -17 -73.5 -59t-76.5 -62q-14 15 -28 31q22 21 68 67.5t67 66.5z" />
    <glyph glyph-name="uni0156" unicode="&#x156;" horiz-adv-x="600" 
d="M123 600l-69 3q0 31 1 46q112 2 193 2q82 0 137 -16q51 -14 86.5 -56t35.5 -94q0 -63 -37.5 -109.5t-98.5 -70.5v-5q9 -4 17.5 -10t15 -12t14.5 -17.5t13.5 -19.5t15 -25t14.5 -26t16.5 -31.5t17.5 -34.5q25 -47 35.5 -60.5t19.5 -13.5l61 -3q0 -32 -1 -47q-45 0 -66 -1
q-10 0 -34.5 -0.5t-30.5 -0.5q-19 26 -66.5 119t-61.5 114q-18 27 -37.5 37t-55.5 10q-50 0 -58 -2v-226l84 -4q0 -31 -1 -46h-121q-76 0 -109 -1q0 8 0.5 24t0.5 23l64 3q4 0 4 4zM203 600l-2 -274q5 -2 53 -2q87 0 129 43t42 97q0 69 -44.5 105t-120.5 36q-47 0 -57 -5z
M326 -57q23 0 41.5 -20t18.5 -46q0 -84 -92 -136q-16 20 -23 30q55 33 55 74q0 25 -41 34q-4 27 9 45.5t32 18.5z" />
    <glyph glyph-name="uni0157" unicode="&#x157;" horiz-adv-x="375" 
d="M38 -1q0 17 2 43l58 3q3 0 3 3v314l-73 1q0 7 0.5 21t0.5 20q17 3 51 9.5t60 11.5t28 5t2 -3q0 -10 1.5 -57t2.5 -77h4q41 79 71 108t64 29t60 -11q0 -16 -9.5 -41.5t-18.5 -32.5q-36 8 -51 8t-34 -15q-29 -23 -66 -93q-15 -32 -17 -92q0 -18 -0.5 -54.5t-0.5 -52.5
l95 -3q0 -29 -2 -43h-127q-17 0 -52.5 -0.5t-51.5 -0.5zM161 -57q23 0 40.5 -20t17.5 -45q0 -80 -90 -128q-14 14 -22 26q54 33 54 73q0 25 -40 37q-4 24 8.5 40.5t31.5 16.5z" />
    <glyph glyph-name="Rcaron" unicode="&#x158;" horiz-adv-x="600" 
d="M123 600l-69 3q0 31 1 46q112 2 193 2q82 0 137 -16q51 -14 86.5 -56t35.5 -94q0 -63 -37.5 -109.5t-98.5 -70.5v-5q9 -4 17.5 -10t15 -12t14.5 -17.5t13.5 -19.5t15 -25t14.5 -26t16.5 -31.5t17.5 -34.5q25 -47 35.5 -60.5t19.5 -13.5l61 -3q0 -32 -1 -47q-45 0 -66 -1
q-10 0 -34.5 -0.5t-30.5 -0.5q-19 26 -66.5 119t-61.5 114q-18 27 -37.5 37t-55.5 10q-50 0 -58 -2v-226l84 -4q0 -31 -1 -46h-121q-76 0 -109 -1q0 8 0.5 24t0.5 23l64 3q4 0 4 4zM203 600l-2 -274q5 -2 53 -2q87 0 129 43t42 97q0 69 -44.5 105t-120.5 36q-47 0 -57 -5z
M280 771q78 52 110 73q13 -12 27 -31q-12 -10 -36.5 -30.5t-45.5 -38t-38 -31.5q-24 0 -35 1q-88 74 -118 97q12 18 26 32q6 -4 47.5 -31t62.5 -41z" />
    <glyph glyph-name="rcaron" unicode="&#x159;" horiz-adv-x="375" 
d="M38 -1q0 17 2 43l58 3q3 0 3 3v314l-73 1q0 7 0.5 21t0.5 20q17 3 51 9.5t60 11.5t28 5t2 -3q0 -10 1.5 -57t2.5 -77h4q41 79 71 108t64 29t60 -11q0 -16 -9.5 -41.5t-18.5 -32.5q-36 8 -51 8t-34 -15q-29 -23 -66 -93q-15 -32 -17 -92q0 -18 -0.5 -54.5t-0.5 -52.5
l95 -3q0 -29 -2 -43h-127q-17 0 -52.5 -0.5t-51.5 -0.5zM208 542q15 15 47.5 47t46.5 45q10 -8 29 -27q-17 -20 -54.5 -64.5t-50.5 -59.5h-37q-13 15 -49 58.5t-55 66.5q14 14 29 26q14 -14 47 -46t47 -46z" />
    <glyph glyph-name="Sacute" unicode="&#x15a;" horiz-adv-x="492" 
d="M98 180l18 -105q2 -8 8 -11q34 -23 93 -23q77 0 114 39q32 33 32 80q0 56 -26 80.5t-98 57.5q-13 6 -20 9q-74 34 -112.5 73t-38.5 100q0 39 18 74.5t47 58.5q60 47 163 47q80 0 122 -22q7 -66 12 -148q-8 -1 -27 -3.5t-29 -3.5l-17 94q-3 9 -7 12q-25 20 -74 20
q-60 0 -94 -30q-38 -33 -38 -83q0 -49 26 -71.5t111 -60.5q82 -36 120 -75.5t38 -103.5q0 -88 -59 -139q-61 -56 -179 -56q-89 0 -147 24q-3 34 -13 158q36 6 57 8zM362 850q18 -23 37 -54q-30 -16 -93.5 -52t-75.5 -43q-3 5 -11.5 17t-11.5 17q47 34 155 115z" />
    <glyph glyph-name="sacute" unicode="&#x15b;" horiz-adv-x="401" 
d="M87 134l14 -65q3 -8 8 -12q29 -21 69 -21q51 0 75 16q29 21 29 56q0 34 -19 46.5t-82 31.5q-9 3 -13 4q-60 19 -86 45t-26 67q0 66 63 101q48 27 118 27q62 0 98 -18q5 -39 11 -110q-24 -5 -51 -8l-13 63q-3 9 -8 12q-19 14 -58 14q-38 0 -63 -18q-24 -18 -24 -53
q0 -29 17.5 -40.5t81.5 -30.5t95.5 -43.5t31.5 -76.5q0 -69 -64 -106q-40 -25 -120 -25q-72 0 -121 19q-3 34 -14 116q42 8 51 9zM297 640q20 -17 43 -44q-22 -17 -73.5 -59t-76.5 -62q-14 15 -28 31q22 21 68 67.5t67 66.5z" />
    <glyph glyph-name="uni015E" unicode="&#x15e;" horiz-adv-x="492" 
d="M374 483l-17 94q-3 9 -7 12q-25 20 -74 20q-60 0 -94 -30q-38 -33 -38 -83q0 -49 26 -71.5t111 -60.5q82 -36 120 -75.5t38 -103.5q0 -88 -59 -139q-41 -38 -102 -49l-62 -63q68 -12 68 -68q0 -39 -38.5 -64.5t-102.5 -25.5q-2 6 -4 19.5t-2 16.5q83 3 83 48q0 19 -13 28
q-15 11 -52 11q-1 3 -2.5 8t-3 9t-2.5 7l69 67h-15q-89 0 -147 24q-3 34 -13 158q36 6 57 8l18 -105q2 -8 8 -11q34 -23 93 -23q77 0 114 39q32 33 32 80q0 56 -26 80.5t-98 57.5q-13 6 -20 9q-74 34 -112.5 73t-38.5 100q0 39 18 74.5t47 58.5q60 47 163 47q80 0 122 -22
q7 -66 12 -148q-8 -1 -27 -3.5t-29 -3.5z" />
    <glyph glyph-name="uni015F" unicode="&#x15f;" horiz-adv-x="401" 
d="M295 294l-13 63q-3 9 -8 12q-19 14 -58 14q-38 0 -63 -18q-24 -18 -24 -53q0 -29 17.5 -40.5t81.5 -30.5t95.5 -43.5t31.5 -76.5q0 -69 -64 -106q-23 -15 -63 -21l-55 -56q58 -11 58 -63q0 -37 -34.5 -60t-90.5 -24q-2 8 -5 34q72 5 72 44q0 18 -12 28q-14 11 -42 11
l-9 21l63 61h-2q-72 0 -121 19q-3 34 -14 116q42 8 51 9l14 -65q3 -8 8 -12q29 -21 69 -21q51 0 75 16q29 21 29 56q0 34 -19 46.5t-82 31.5q-9 3 -13 4q-60 19 -86 45t-26 67q0 66 63 101q48 27 118 27q62 0 98 -18q5 -39 11 -110q-24 -5 -51 -8z" />
    <glyph glyph-name="Scaron" unicode="&#x160;" horiz-adv-x="492" 
d="M98 180l18 -105q2 -8 8 -11q34 -23 93 -23q77 0 114 39q32 33 32 80q0 56 -26 80.5t-98 57.5q-13 6 -20 9q-74 34 -112.5 73t-38.5 100q0 39 18 74.5t47 58.5q60 47 163 47q80 0 122 -22q7 -66 12 -148q-8 -1 -27 -3.5t-29 -3.5l-17 94q-3 9 -7 12q-25 20 -74 20
q-60 0 -94 -30q-38 -33 -38 -83q0 -49 26 -71.5t111 -60.5q82 -36 120 -75.5t38 -103.5q0 -88 -59 -139q-61 -56 -179 -56q-89 0 -147 24q-3 34 -13 158q36 6 57 8zM273 771q78 52 110 73q15 -13 26 -31q-20 -17 -62.5 -52.5t-56.5 -47.5q-24 0 -35 1q-12 10 -54 44.5
t-64 52.5q10 15 25 32q15 -9 33.5 -21t42 -27.5t35.5 -23.5z" />
    <glyph glyph-name="scaron" unicode="&#x161;" horiz-adv-x="401" 
d="M87 134l14 -65q3 -8 8 -12q29 -21 69 -21q51 0 75 16q29 21 29 56q0 34 -19 46.5t-82 31.5q-9 3 -13 4q-60 19 -86 45t-26 67q0 66 63 101q48 27 118 27q62 0 98 -18q5 -39 11 -110q-24 -5 -51 -8l-13 63q-3 9 -8 12q-19 14 -58 14q-38 0 -63 -18q-24 -18 -24 -53
q0 -29 17.5 -40.5t81.5 -30.5t95.5 -43.5t31.5 -76.5q0 -69 -64 -106q-40 -25 -120 -25q-72 0 -121 19q-3 34 -14 116q42 8 51 9zM211 542q15 15 47.5 47t46.5 45q10 -8 29 -27q-17 -20 -54.5 -64.5t-50.5 -59.5h-37q-13 15 -49 58.5t-55 66.5q15 15 30 26q14 -14 46.5 -46
t46.5 -46z" />
    <glyph glyph-name="uni0162" unicode="&#x162;" horiz-adv-x="567" 
d="M90 578l-16 -97q-9 1 -28 2.5t-28 2.5q2 27 5 82.5t5 82.5q7 0 38 -0.5t54 -0.5h170h169q41 1 87 1q6 -106 8 -164q-9 -1 -56 -6l-16 98q-2 17 -24 18q-27 3 -131 3l-3 -551l92 -3q0 -7 -0.5 -23t-0.5 -24q-47 0 -73 1l-66 -66q34 -6 51 -24t17 -44q0 -39 -38 -64.5
t-103 -25.5q-3 19 -5 36q83 3 83 48q0 18 -14 28q-13 11 -51 11l-8 24l78 77q-20 0 -63 -0.5t-64 -0.5q0 32 1 47l81 3q4 0 4 4v548q-84 0 -130 -4q-22 -2 -25 -19z" />
    <glyph glyph-name="uni0163" unicode="&#x163;" horiz-adv-x="358" 
d="M258 -4l-56 -58q27 -5 42 -22t15 -41q0 -37 -34.5 -60t-90.5 -24q-1 5 -2.5 17t-2.5 17q73 5 73 44q0 17 -13 28q-14 11 -42 11l-9 21l64 62q-50 0 -78 26q-18 16 -23 33t-5 44q0 108 2 158q0 16 0.5 60t0.5 56h-69q0 34 1 49q24 0 64 2q5 0 7 7q0 5 3 92q12 8 29 16
t28.5 13t13.5 5q3 0 3 -3q-2 -68 -2 -130q106 0 157 1q0 -7 -3 -52h-156v-112q-1 -41 -1 -150q0 -31 18.5 -46.5t46.5 -15.5q34 0 96 16q2 -10 7 -44q-34 -13 -84 -20z" />
    <glyph glyph-name="Tcaron" unicode="&#x164;" horiz-adv-x="567" 
d="M160 46l81 3q4 0 4 4v548q-84 0 -130 -4q-22 -2 -25 -19l-16 -97q-9 1 -28 2.5t-28 2.5q2 27 5 82.5t5 82.5q7 0 38 -0.5t54 -0.5h170h169q41 1 87 1q6 -106 8 -164q-9 -1 -56 -6l-16 98q-2 17 -24 18q-27 3 -131 3l-3 -551l92 -3q0 -7 -0.5 -23t-0.5 -24q-17 0 -61 0.5
t-65 0.5t-65 -0.5t-65 -0.5q0 32 1 47zM287 771q21 13 59 39t51 34q13 -12 27 -31q-12 -10 -36.5 -30.5t-45.5 -38t-38 -31.5q-24 0 -35 1q-88 74 -118 97q18 24 26 32q6 -4 47.5 -31t62.5 -41z" />
    <glyph glyph-name="tcaron" unicode="&#x165;" horiz-adv-x="358" 
d="M328 697q-24 -109 -49 -180q-15 -2 -49 7q12 62 22 175q44 6 76 -2zM202 -9q-50 0 -78 26q-18 16 -23 33t-5 44q0 108 2 158q0 16 0.5 60t0.5 56h-69q0 34 1 49q24 0 64 2q5 0 7 7q0 5 3 92q12 8 29 16t28.5 13t13.5 5q3 0 3 -3q-2 -68 -2 -130q106 0 157 1q0 -7 -3 -52
h-156v-112q-1 -41 -1 -150q0 -31 18.5 -46.5t46.5 -15.5q34 0 96 16q2 -10 7 -44q-69 -25 -140 -25z" />
    <glyph glyph-name="Umacron" unicode="&#x16a;" horiz-adv-x="669" 
d="M184 601l-1 -330q-1 -70 9 -108t32 -66q40 -53 119 -53q70 0 116 46q48 50 48 176v99.5v128v103.5q0 4 -4 4l-84 2q0 32 1 47h116h104q1 -14 -1 -47l-63 -3l-2 -335q-1 -141 -71 -213q-58 -62 -163 -62q-112 0 -171 58q-40 39 -53 88.5t-13 126.5v332q0 6 -5 6l-61 2
q0 32 1 47h108h128q0 -31 -2 -47zM453 785q0 -33 -1 -49q-33 0 -110 0.5t-115 0.5v46q72 0 226 2z" />
    <glyph glyph-name="umacron" unicode="&#x16b;" horiz-adv-x="528" 
d="M512 47q0 -29 -1 -42q-11 -4 -46.5 -9.5t-66.5 -5.5q-16 16 -32 53l-5 1q-61 -36 -88.5 -45t-60.5 -9q-50 0 -89.5 42.5t-39.5 94.5q0 45 0.5 126.5t0.5 115.5l-61 2q0 7 0.5 22.5t0.5 22.5q13 0 46.5 1t59 2t30.5 1q2 0 2 -3q-2 -152 -2 -239q-2 -69 15 -96
q23 -36 68 -36q52 0 119 51v272l-65 2q0 17 2 47q21 0 78 1t61 1q2 0 2 -3q0 -56 -1 -177t-1 -180q0 -14 7 -14zM373 555v-48q-137 0 -201 1q-2 22 0 45q134 2 201 2z" />
    <glyph glyph-name="Uring" unicode="&#x16e;" horiz-adv-x="669" 
d="M184 601l-1 -330q-1 -70 9 -108t32 -66q40 -53 119 -53q70 0 116 46q48 50 48 176v99.5v128v103.5q0 4 -4 4l-84 2q0 32 1 47h116h104q1 -14 -1 -47l-63 -3l-2 -335q-1 -141 -71 -213q-58 -62 -163 -62q-112 0 -171 58q-40 39 -53 88.5t-13 126.5v332q0 6 -5 6l-61 2
q0 32 1 47h108h128q0 -31 -2 -47zM342 870q43 0 69.5 -24t26.5 -60t-27.5 -61t-68.5 -25q-42 0 -70 22.5t-28 61.5q0 34 27.5 60t70.5 26zM342 833q-22 0 -35 -14.5t-13 -34.5t13.5 -33.5t34.5 -13.5q22 0 34 14t12 34q0 21 -12 34.5t-34 13.5z" />
    <glyph glyph-name="uring" unicode="&#x16f;" horiz-adv-x="528" 
d="M512 47q0 -29 -1 -42q-11 -4 -46.5 -9.5t-66.5 -5.5q-16 16 -32 53l-5 1q-61 -36 -88.5 -45t-60.5 -9q-50 0 -89.5 42.5t-39.5 94.5q0 45 0.5 126.5t0.5 115.5l-61 2q0 7 0.5 22.5t0.5 22.5q13 0 46.5 1t59 2t30.5 1q2 0 2 -3q-2 -152 -2 -239q-2 -69 15 -96
q23 -36 68 -36q52 0 119 51v272l-65 2q0 17 2 47q21 0 78 1t61 1q2 0 2 -3q0 -56 -1 -177t-1 -180q0 -14 7 -14zM248 654q42 0 68 -24t26 -59q0 -36 -27 -61t-68 -25q-40 0 -67.5 23.5t-27.5 61.5q0 32 27.5 58t68.5 26zM248 618q-22 0 -35.5 -14.5t-13.5 -34.5t14 -34
t35 -14q23 0 35 14t12 35t-12 34.5t-35 13.5z" />
    <glyph glyph-name="Uhungarumlaut" unicode="&#x170;" horiz-adv-x="669" 
d="M184 601l-1 -330q-1 -70 9 -108t32 -66q40 -53 119 -53q70 0 116 46q48 50 48 176v99.5v128v103.5q0 4 -4 4l-84 2q0 32 1 47h116h104q1 -14 -1 -47l-63 -3l-2 -335q-1 -141 -71 -213q-58 -62 -163 -62q-112 0 -171 58q-40 39 -53 88.5t-13 126.5v332q0 6 -5 6l-61 2
q0 32 1 47h108h128q0 -31 -2 -47zM374 862q17 -17 36 -43q-19 -13 -68 -48t-76 -54q-2 2 -25 31q19 16 41.5 35.5t50 43t41.5 35.5zM496 858q21 -21 35 -42q-122 -88 -143 -104q-2 2 -25 31q69 60 133 115z" />
    <glyph glyph-name="uhungarumlaut" unicode="&#x171;" horiz-adv-x="528" 
d="M512 47q0 -29 -1 -42q-11 -4 -46.5 -9.5t-66.5 -5.5q-16 16 -32 53l-5 1q-61 -36 -88.5 -45t-60.5 -9q-50 0 -89.5 42.5t-39.5 94.5q0 45 0.5 126.5t0.5 115.5l-61 2q0 7 0.5 22.5t0.5 22.5q13 0 46.5 1t59 2t30.5 1q2 0 2 -3q-2 -152 -2 -239q-2 -69 15 -96
q23 -36 68 -36q52 0 119 51v272l-65 2q0 17 2 47q21 0 78 1t61 1q2 0 2 -3q0 -56 -1 -177t-1 -180q0 -14 7 -14zM268 638q14 -11 40 -39q-11 -10 -58.5 -51t-73.5 -63q-19 19 -27 28q17 18 58 61t61 64zM394 634q14 -11 40 -39q-86 -76 -130 -115q-4 4 -9 8.5t-10.5 10.5
t-8.5 9q18 19 59 63t59 63z" />
    <glyph glyph-name="Uogonek" unicode="&#x172;" horiz-adv-x="669" 
d="M37 603q0 32 1 47h108h128q0 -31 -2 -47l-88 -2l-1 -330q-1 -70 9 -108t32 -66q40 -53 119 -53q70 0 116 46q48 50 48 176v99.5v128v103.5q0 4 -4 4l-84 2q0 32 1 47h116h104q1 -15 -1 -46l-63 -4l-2 -335q-1 -141 -71 -213q-18 -20 -51 -38q-45 -27 -76.5 -65t-31.5 -66
q0 -20 12.5 -31.5t28.5 -11.5q27 0 51 18q12 -14 18 -30q-39 -41 -91 -41q-35 0 -63 23.5t-28 58.5q0 59 89 121q-128 -5 -192 58q-40 39 -53 89t-13 126v332q0 6 -5 6z" />
    <glyph glyph-name="uogonek" unicode="&#x173;" horiz-adv-x="528" 
d="M511 5q-55 -17 -66 -25q-68 -46 -68 -97q0 -20 12.5 -31.5t28.5 -11.5q27 0 51 18q12 -14 18 -30q-39 -41 -91 -41q-35 0 -63 23.5t-28 58.5q0 61 92 122q-16 16 -31 52l-5 1q-61 -36 -88.5 -45t-60.5 -9q-50 0 -89.5 42.5t-39.5 94.5q0 45 0.5 126.5t0.5 115.5l-61 2
q0 7 0.5 22.5t0.5 22.5q13 0 46.5 1t59 2t30.5 1q2 0 2 -3q-2 -152 -2 -239q-2 -69 15 -96q23 -36 68 -36q52 0 119 51v272l-65 2q1 8 1 24t1 23q21 0 78 1t61 1q2 0 2 -3q0 -56 -1 -177t-1 -180q0 -14 7 -14l67 1q0 -29 -1 -42z" />
    <glyph glyph-name="Ydieresis" unicode="&#x178;" horiz-adv-x="562" 
d="M160 46l79 3q5 0 5 5v196q-19 34 -88.5 160t-105.5 188q-3 3 -4 3l-52 3q0 32 1 46h98h141q0 -7 -0.5 -22.5t-0.5 -23.5l-90 -4q74 -145 152 -292h5q95 171 149 288q0 5 -3 5l-81 2q0 32 1 47h123h86q0 -31 -1 -46l-51 -3q-34 -58 -103.5 -181.5t-95.5 -167.5l-1 -203
l91 -3q1 -15 -1 -47q-17 0 -61 0.5t-66 0.5q-21 0 -64 -0.5t-63 -0.5q0 32 1 47zM227 806q21 0 31.5 -14t10.5 -31q0 -16 -11.5 -29t-30.5 -13t-31.5 12t-12.5 31q0 17 11.5 30.5t32.5 13.5zM396 806q21 0 32 -13.5t11 -30.5q0 -18 -12 -30.5t-29 -12.5q-21 0 -33.5 13
t-12.5 29q0 17 11 31t33 14z" />
    <glyph glyph-name="Zacute" unicode="&#x179;" horiz-adv-x="583" 
d="M494 191q28 -3 57 -10q-17 -84 -42 -182q-4 0 -53.5 0.5t-117 0.5h-115.5h-176q-3 7 -9 21.5t-9 21.5q74 93 410 550l-2 5q-40 0 -96 0.5t-73 0.5q-77 0 -102 -4q-15 -3 -21 -24l-33 -106q-2 0 -23 3.5t-32 5.5q15 87 32 178q21 0 91 -2h337q8 -19 18 -54
q-294 -398 -407 -540l1 -3q263 -2 305 9q21 5 28 27zM358 850q18 -23 37 -54q-30 -16 -93.5 -52t-75.5 -43q-3 5 -11.5 17t-11.5 17q47 34 155 115z" />
    <glyph glyph-name="zacute" unicode="&#x17a;" horiz-adv-x="441" 
d="M366 148q23 -3 51 -10q-5 -20 -16.5 -66.5t-17.5 -72.5q-4 0 -23 0.5t-49.5 0.5h-62.5h-117h-88q-11 28 -15 39q25 30 85.5 100t110.5 129.5t84 100.5l-1 5q-88 0 -160 -2q-22 0 -27 -15l-26 -79q-21 2 -53 10q5 22 15 66.5t15 66.5q28 -2 93 -2h221q11 -33 15 -49
q-68 -81 -279 -320l1 -4q139 0 184 4q26 2 31 20zM294 640q20 -17 43 -44q-22 -17 -73.5 -59t-76.5 -62q-15 15 -28 31q22 21 68 67.5t67 66.5z" />
    <glyph glyph-name="Zdotaccent" unicode="&#x17b;" horiz-adv-x="583" 
d="M494 191q28 -3 57 -10q-17 -84 -42 -182q-4 0 -53.5 0.5t-117 0.5h-115.5h-176q-3 7 -9 21.5t-9 21.5q74 93 410 550l-2 5q-40 0 -96 0.5t-73 0.5q-77 0 -102 -4q-15 -3 -21 -24l-33 -106q-2 0 -23 3.5t-32 5.5q15 87 32 178q21 0 91 -2h337q8 -19 18 -54
q-294 -398 -407 -540l1 -3q263 -2 305 9q21 5 28 27zM308 821q26 0 38.5 -16t12.5 -36q0 -23 -15 -38.5t-38 -15.5t-38.5 15.5t-15.5 37.5t15 37.5t41 15.5z" />
    <glyph glyph-name="zdotaccent" unicode="&#x17c;" horiz-adv-x="441" 
d="M366 148q23 -3 51 -10q-5 -20 -16.5 -66.5t-17.5 -72.5q-4 0 -23 0.5t-49.5 0.5h-62.5h-117h-88q-11 28 -15 39q25 30 85.5 100t110.5 129.5t84 100.5l-1 5q-88 0 -160 -2q-22 0 -27 -15l-26 -79q-21 2 -53 10q5 22 15 66.5t15 66.5q28 -2 93 -2h221q11 -33 15 -49
q-68 -81 -279 -320l1 -4q139 0 184 4q26 2 31 20zM225 631q26 0 38.5 -16t12.5 -36q-1 -23 -15.5 -38t-37.5 -15t-38.5 15t-15.5 37t15 37.5t41 15.5z" />
    <glyph glyph-name="Zcaron" unicode="&#x17d;" horiz-adv-x="583" 
d="M494 191q28 -3 57 -10q-17 -84 -42 -182q-4 0 -53.5 0.5t-117 0.5h-115.5h-176q-3 7 -9 21.5t-9 21.5q74 93 410 550l-2 5q-40 0 -96 0.5t-73 0.5q-77 0 -102 -4q-15 -3 -21 -24l-33 -106q-2 0 -23 3.5t-32 5.5q15 87 32 178q21 0 91 -2h337q8 -19 18 -54
q-294 -398 -407 -540l1 -3q263 -2 305 9q21 5 28 27zM311 771q22 14 63.5 41.5t47.5 31.5q13 -13 26 -31q-12 -10 -36.5 -30.5t-45.5 -38t-38 -31.5q-24 0 -35 1q-88 74 -118 97q13 18 26 32q6 -4 47.5 -31t62.5 -41z" />
    <glyph glyph-name="zcaron" unicode="&#x17e;" horiz-adv-x="441" 
d="M366 148q23 -3 51 -10q-5 -20 -16.5 -66.5t-17.5 -72.5q-4 0 -23 0.5t-49.5 0.5h-62.5h-117h-88q-11 28 -15 39q25 30 85.5 100t110.5 129.5t84 100.5l-1 5q-88 0 -160 -2q-22 0 -27 -15l-26 -79q-21 2 -53 10q5 22 15 66.5t15 66.5q28 -2 93 -2h221q11 -33 15 -49
q-68 -81 -279 -320l1 -4q139 0 184 4q26 2 31 20zM227 542q15 15 47.5 47t46.5 45q10 -8 29 -27q-17 -20 -54.5 -64.5t-50.5 -59.5h-37q-13 15 -49 58.5t-55 66.5q15 15 30 26l46 -46t47 -46z" />
    <glyph glyph-name="florin" unicode="&#x192;" horiz-adv-x="524" 
d="M441 645q47 0 68 -12q0 -9 -11 -32t-20 -32q-4 1 -20 4.5t-33 6.5t-30 3q-47 0 -73 -31q-22 -25 -32 -63t-14 -124q122 0 189 1q0 -35 -2 -51h-60h-72h-57q-8 -210 -19 -286q-11 -82 -74 -134t-132 -52q-34 0 -58 9q1 10 10.5 30t18.5 30q45 -9 63 -9q37 0 67 32.5
t36 98.5q8 83 13 281h-120q0 18 2 48q19 0 58 0.5t57 1.5q5 0 5 7q3 89 17 127.5t55 76.5q69 69 168 69z" />
    <glyph glyph-name="uni0218" unicode="&#x218;" horiz-adv-x="492" 
d="M98 180l18 -105q2 -8 8 -11q34 -23 93 -23q77 0 114 39q32 33 32 80q0 56 -26 80.5t-98 57.5q-13 6 -20 9q-74 34 -112.5 73t-38.5 100q0 39 18 74.5t47 58.5q60 47 163 47q80 0 122 -22q7 -66 12 -148q-8 -1 -27 -3.5t-29 -3.5l-17 94q-3 9 -7 12q-25 20 -74 20
q-60 0 -94 -30q-38 -33 -38 -83q0 -49 26 -71.5t111 -60.5q82 -36 120 -75.5t38 -103.5q0 -88 -59 -139q-61 -56 -179 -56q-89 0 -147 24q-3 34 -13 158q36 6 57 8zM244 -57q23 0 41.5 -20t18.5 -46q0 -84 -92 -136q-16 20 -23 30q55 34 55 74q0 25 -41 34q-4 27 9 45.5
t32 18.5z" />
    <glyph glyph-name="uni0219" unicode="&#x219;" horiz-adv-x="401" 
d="M87 134l14 -65q3 -8 8 -12q29 -21 69 -21q51 0 75 16q29 21 29 56q0 34 -19 46.5t-82 31.5q-9 3 -13 4q-60 19 -86 45t-26 67q0 66 63 101q48 27 118 27q62 0 98 -18q5 -39 11 -110q-24 -5 -51 -8l-13 63q-3 9 -8 12q-19 14 -58 14q-38 0 -63 -18q-24 -18 -24 -53
q0 -29 17.5 -40.5t81.5 -30.5t95.5 -43.5t31.5 -76.5q0 -69 -64 -106q-40 -25 -120 -25q-72 0 -121 19q-3 34 -14 116q42 8 51 9zM201 -57q23 0 40.5 -20t17.5 -45q0 -40 -25 -73.5t-64 -54.5q-12 13 -23 26q54 33 54 73q0 25 -40 37q-4 24 8.5 40.5t31.5 16.5z" />
    <glyph glyph-name="uni021A" unicode="&#x21a;" horiz-adv-x="567" 
d="M160 46l81 3q4 0 4 4v548q-84 0 -130 -4q-22 -2 -25 -19l-16 -97q-9 1 -28 2.5t-28 2.5q2 27 5 82.5t5 82.5q7 0 38 -0.5t54 -0.5h170h169q41 1 87 1q6 -106 8 -164q-9 -1 -56 -6l-16 98q-2 17 -24 18q-27 3 -131 3l-3 -551l92 -3q0 -7 -0.5 -23t-0.5 -24q-17 0 -61 0.5
t-65 0.5t-65 -0.5t-65 -0.5q0 32 1 47zM283 -57q23 0 41.5 -20t18.5 -46q0 -83 -92 -136q-3 3 -8 9.5t-9 11.5t-7 9q55 33 55 74q0 25 -40 34q-4 27 8.5 45.5t32.5 18.5z" />
    <glyph glyph-name="uni021B" unicode="&#x21b;" horiz-adv-x="358" 
d="M202 -9q-50 0 -78 26q-18 16 -23 33t-5 44q0 108 2 158q0 16 0.5 60t0.5 56h-69q0 34 1 49q24 0 64 2q5 0 7 7q0 5 3 92q12 8 29 16t28.5 13t13.5 5q3 0 3 -3q-2 -68 -2 -130q106 0 157 1q0 -7 -3 -52h-156v-112q-1 -41 -1 -150q0 -31 18.5 -46.5t46.5 -15.5q34 0 96 16
q2 -10 7 -44q-69 -25 -140 -25zM213 -57q23 0 40.5 -20t17.5 -45q0 -80 -90 -128q-20 22 -22 26q54 33 54 73q0 25 -40 37q-4 24 8.5 40.5t31.5 16.5z" />
    <glyph glyph-name="circumflex" unicode="&#x2c6;" horiz-adv-x="333" 
d="M167 562q-29 -28 -93 -92q-22 18 -30 26q14 17 50.5 60.5t54.5 63.5q12 1 37 1q14 -16 50.5 -60t53.5 -64q-19 -19 -29 -27q-63 63 -94 92z" />
    <glyph glyph-name="caron" unicode="&#x2c7;" horiz-adv-x="333" 
d="M167 542q15 15 47.5 47t46.5 45q10 -8 29 -27q-17 -20 -54.5 -64.5t-50.5 -59.5h-37q-13 15 -49 58.5t-55 66.5q15 15 30 26l46 -46t47 -46z" />
    <glyph glyph-name="uni02C9" unicode="&#x2c9;" horiz-adv-x="333" 
d="M267 555q2 -24 0 -48q-136 0 -201 1q-2 22 0 45q134 2 201 2z" />
    <glyph glyph-name="breve" unicode="&#x2d8;" horiz-adv-x="333" 
d="M166 487q-44 0 -76 28t-41 68q16 8 40 13q29 -58 79 -58t76 54q24 -4 41 -9q-8 -35 -41.5 -65.5t-77.5 -30.5z" />
    <glyph glyph-name="dotaccent" unicode="&#x2d9;" horiz-adv-x="333" 
d="M167 631q26 0 38.5 -16t12.5 -36q0 -23 -15 -38t-38 -15t-38.5 15.5t-15.5 36.5q0 22 15.5 37.5t40.5 15.5z" />
    <glyph glyph-name="ring" unicode="&#x2da;" horiz-adv-x="333" 
d="M168 654q42 0 68 -24t26 -59q0 -36 -27 -61t-68 -25q-40 0 -67.5 23.5t-27.5 61.5q0 32 27.5 58t68.5 26zM168 618q-22 0 -35.5 -14.5t-13.5 -34.5t14 -34t35 -14q23 0 35 14t12 35t-12 34.5t-35 13.5z" />
    <glyph glyph-name="ogonek" unicode="&#x2db;" horiz-adv-x="333" 
d="M290 4h59q-98 -69 -98 -121q0 -20 12.5 -31.5t28.5 -11.5q29 0 51 18q13 -13 19 -30q-41 -41 -91 -41q-36 0 -64 23.5t-28 58.5q0 65 111 135z" />
    <glyph glyph-name="tilde" unicode="&#x2dc;" horiz-adv-x="333" 
d="M113 596q9 0 16 -1.5t15 -6t11.5 -6.5t13 -9t10.5 -8q4 -3 11.5 -8t11.5 -7.5t10.5 -5t12.5 -2.5q25 0 32 51h36q-4 -102 -68 -102q-24 0 -63 29q-4 3 -10.5 8t-10.5 7t-9.5 5t-10.5 4.5t-11 1.5q-23 0 -33 -50h-37q8 100 73 100z" />
    <glyph glyph-name="hungarumlaut" unicode="&#x2dd;" horiz-adv-x="333" 
d="M152 638q14 -11 40 -39q-11 -10 -58.5 -51t-73.5 -63q-19 19 -27 28q17 18 58 61t61 64zM278 634q14 -11 40 -39q-86 -76 -130 -115l-28 28q18 19 59 63t59 63z" />
    <glyph glyph-name="pi" unicode="&#x3c0;" horiz-adv-x="543" 
d="M501 409h-65v-272q0 -91 13 -137h-70q-15 26 -15 129v280h-164q-4 -102 -24 -227.5t-44 -181.5h-70q26 67 45.5 187.5t22.5 221.5q-35 0 -51 -1q-32 -4 -46 -8l-11 44q39 23 127 23h361z" />
    <glyph glyph-name="uni2010" unicode="&#x2010;" horiz-adv-x="315" 
d="M132 213h-30h-38.5h-31.5q0 36 1 53h102q26 0 74.5 0.5t73.5 1.5q0 -29 -3 -55h-148z" />
    <glyph glyph-name="figuredash" unicode="&#x2012;" horiz-adv-x="524" 
d="M36 324q38 0 114 0.5t113 0.5q159 0 228 1q0 -23 -2 -53h-226h-229q0 35 2 51z" />
    <glyph glyph-name="endash" unicode="&#x2013;" horiz-adv-x="500" 
d="M252 213h-220q0 36 1 53h219q33 0 108.5 0.5t107.5 1.5q0 -23 -2 -55h-214z" />
    <glyph glyph-name="emdash" unicode="&#x2014;" horiz-adv-x="1000" 
d="M480 214q-60 0 -224.5 -0.5t-223.5 -0.5q0 36 1 53q298 0 446 1q72 0 240.5 0.5t248.5 0.5q0 -21 -2 -55q-65 0 -242.5 0.5t-243.5 0.5z" />
    <glyph glyph-name="quoteleft" unicode="&#x2018;" horiz-adv-x="202" 
d="M113 471q-25 0 -45.5 23.5t-20.5 56.5q0 49 31 93.5t78 67.5q12 -12 26 -34q-63 -42 -63 -91q0 -30 45 -43q5 -32 -10 -52.5t-41 -20.5z" />
    <glyph glyph-name="quoteright" unicode="&#x2019;" horiz-adv-x="202" 
d="M90 699q25 0 45.5 -23.5t20.5 -56.5q0 -50 -30.5 -94t-77.5 -67q-11 12 -27 34q63 40 63 91q0 33 -45 43q-5 32 10 52.5t41 20.5z" />
    <glyph glyph-name="quotesinglbase" unicode="&#x201a;" horiz-adv-x="237" 
d="M112 100q25 0 45.5 -23.5t20.5 -56.5q0 -50 -30.5 -94t-77.5 -67q-20 25 -27 34q64 42 64 91q0 33 -45 43q-5 32 10 52.5t40 20.5z" />
    <glyph glyph-name="quotedblleft" unicode="&#x201c;" horiz-adv-x="357" 
d="M111 484q-25 0 -44.5 22.5t-19.5 53.5q0 48 30 89.5t75 63.5q14 -15 25 -33q-61 -39 -61 -86q0 -31 46 -40q4 -31 -11 -50.5t-40 -19.5zM271 484q-24 0 -44 22.5t-20 53.5q0 48 30 89.5t75 63.5q14 -15 25 -33q-61 -39 -61 -86q0 -29 46 -41q4 -30 -11 -49.5t-40 -19.5z
" />
    <glyph glyph-name="quotedblright" unicode="&#x201d;" horiz-adv-x="357" 
d="M87 699q24 0 44 -22.5t20 -53.5q0 -48 -29.5 -89.5t-74.5 -63.5q-17 19 -26 33q61 39 61 86q0 29 -46 43q-3 31 11.5 49t39.5 18zM247 699q24 0 44 -22.5t20 -53.5q0 -48 -29.5 -89.5t-74.5 -63.5q-10 12 -26 33q61 39 61 86q0 27 -46 43q-3 30 11.5 48.5t39.5 18.5z" />
    <glyph glyph-name="quotedblbase" unicode="&#x201e;" horiz-adv-x="392" 
d="M110 95q23 0 43 -22.5t20 -53.5q0 -47 -30 -89t-74 -64q-10 12 -26 33q61 39 61 86q0 28 -45 44q-4 31 10.5 48.5t40.5 17.5zM269 95q24 0 44 -22.5t20 -53.5q0 -47 -30 -89t-74 -64q-10 12 -26 33q61 39 61 86q0 30 -46 43q-2 30 12.5 48.5t38.5 18.5z" />
    <glyph glyph-name="dagger" unicode="&#x2020;" horiz-adv-x="454" 
d="M257 654q2 0 2 -4q-1 -75 -3 -219q26 0 79.5 0.5t80.5 0.5q0 -30 -3 -55h-157q-5 -295 -8 -520q-22 -6 -54 -9q-4 337 -8 529h-147q0 20 2 52q92 2 136 2q8 0 8 7q0 79 -2 191q13 8 39.5 16.5t34.5 8.5z" />
    <glyph glyph-name="daggerdbl" unicode="&#x2021;" horiz-adv-x="454" 
d="M257 654q2 0 2 -4q-1 -75 -3 -219q52 0 160 2q1 -26 -2 -56h-159q0 -26 -0.5 -73.5t-1 -86.5t-1.5 -73h163q0 -28 -3 -53q-112 0 -161 -1q-2 -139 -3 -233q-19 -6 -54 -9q-2 171 -4 242q-20 0 -71 -0.5t-80 -0.5q0 30 3 55h141q5 0 5 7q0 88 -2 226h-147q0 19 2 53
q23 0 68.5 0.5t67.5 0.5q8 0 8 7q0 108 -3 193q10 7 38 15t37 8z" />
    <glyph glyph-name="bullet" unicode="&#x2022;" horiz-adv-x="308" 
d="M156 363q48 0 73.5 -32.5t25.5 -72.5q0 -43 -28.5 -74t-70.5 -31q-46 0 -74.5 29t-28.5 72q0 45 28.5 77t74.5 32z" />
    <glyph glyph-name="onedotenleader" unicode="&#x2024;" horiz-adv-x="265" 
d="M134 102q27 0 40.5 -17.5t13.5 -38.5q0 -22 -15 -38.5t-39 -16.5q-25 0 -40.5 15.5t-15.5 39.5q0 21 15 38.5t41 17.5z" />
    <glyph glyph-name="twodotenleader" unicode="&#x2025;" horiz-adv-x="529" 
d="M134 102q27 0 40.5 -17.5t13.5 -38.5q0 -22 -15 -38.5t-39 -16.5q-25 0 -40.5 15.5t-15.5 39.5q0 21 15 38.5t41 17.5zM399 102q27 0 40.5 -17.5t13.5 -38.5q0 -22 -15 -38.5t-39 -16.5q-25 0 -40.5 15.5t-15.5 39.5q0 21 15 38.5t41 17.5z" />
    <glyph glyph-name="ellipsis" unicode="&#x2026;" horiz-adv-x="794" 
d="M134 102q27 0 40.5 -17.5t13.5 -38.5q0 -22 -15 -38.5t-39 -16.5q-25 0 -40.5 15.5t-15.5 39.5q0 21 15 38.5t41 17.5zM399 102q27 0 40.5 -17.5t13.5 -38.5q0 -22 -15 -38.5t-39 -16.5q-25 0 -40.5 15.5t-15.5 39.5q0 21 15 38.5t41 17.5zM663 102q27 0 40.5 -17.5
t13.5 -38.5q0 -22 -14.5 -38.5t-38.5 -16.5q-25 0 -41 15.5t-16 39.5q0 21 15 38.5t41 17.5z" />
    <glyph glyph-name="perthousand" unicode="&#x2030;" horiz-adv-x="1113" 
d="M931 317q58 0 93 -32q49 -47 49 -127t-49 -129q-40 -39 -101 -39q-55 0 -89 27q-58 44 -58 131q0 83 56 133q41 36 99 36zM927 278q-34 0 -55 -24q-32 -34 -32 -103q0 -71 31 -100q22 -22 55 -22q31 0 52 20q31 31 31 106q0 64 -29 100q-18 23 -53 23zM511 602l-3 3
q-62 -2 -219 -4q21 -15 35.5 -46.5t14.5 -71.5q0 -82 -51 -133q-40 -40 -101 -40q-52 0 -88 29q-58 49 -58 134q0 79 53 127q41 38 107 38q63 0 191.5 4t166.5 8q12 -13 22 -30q-151 -264 -176 -310q-30 -56 -95.5 -171.5t-92.5 -164.5q-32 14 -43 20q23 42 62 110.5t70 124
t58 105.5q20 38 70.5 128.5t76.5 139.5zM193 598q-37 0 -56 -22q-32 -35 -32 -101q0 -72 32 -102q23 -23 54 -23q29 0 49 18q35 31 35 109q0 65 -30 100q-15 21 -52 21zM576 317q59 0 94 -32q49 -47 49 -127t-49 -129q-40 -39 -101 -39q-55 0 -89 27q-58 44 -58 131
q0 83 56 133q41 36 98 36zM573 278q-34 0 -55 -24q-32 -34 -32 -103q0 -71 31 -100q22 -22 54 -22t53 20q31 31 31 106q0 64 -29 100q-18 23 -53 23z" />
    <glyph glyph-name="guilsinglleft" unicode="&#x2039;" horiz-adv-x="256" 
d="M118 223q43 -67 99 -144q-14 -14 -32 -27q-77 83 -141 149q-1 13 -1 38q76 78 141 151q15 -11 32 -28q-78 -109 -98 -139z" />
    <glyph glyph-name="guilsinglright" unicode="&#x203a;" horiz-adv-x="256" 
d="M139 222q-52 77 -99 140q12 12 32 28q94 -100 142 -150q0 -5 -0.5 -18t-0.5 -19q-63 -66 -140 -151q-15 11 -32 28q40 55 98 142z" />
    <glyph glyph-name="fraction" unicode="&#x2044;" horiz-adv-x="77" 
d="M-123 -16q-3 1 -17.5 7.5t-22.5 10.5q89 157 166 298q34 64 101.5 189.5t91.5 169.5q35 -13 44 -17q-70 -125 -199 -364q-26 -48 -85.5 -154t-78.5 -140z" />
    <glyph glyph-name="zero.superior" unicode="&#x2070;" 
d="M295 595q0 -95 -46 -141q-30 -30 -86 -30q-53 0 -82 31q-39 42 -39 125q0 98 49 145q31 31 83 31q55 0 85 -36q36 -43 36 -125zM169 720q-25 0 -40 -23q-22 -32 -22 -115q0 -72 20 -101q13 -21 41 -21q27 0 41 19q21 31 21 107q0 75 -16 107q-14 27 -45 27z" />
    <glyph glyph-name="four.superior" unicode="&#x2074;" 
d="M128 431q0 22 1 33l63 1q2 0 2 2q0 7 0.5 22t0.5 22h-153q-13 26 -18 38q9 12 34 44t41 53q71 91 86 109q11 0 32 -0.5t31 -0.5q0 -33 -0.5 -101t-0.5 -101h59q0 -26 -1 -40h-59v-47l42 -1q1 0 0 -16v-17h-76h-84zM195 698h-6q-54 -71 -57 -74q-11 -16 -28.5 -39.5
t-20.5 -27.5q-4 -6 2 -6h109z" />
    <glyph glyph-name="five.superior" unicode="&#x2075;" 
d="M65 590l-4 4q7 66 20 155h98h99q0 -21 -3 -44q-23 0 -71.5 0.5t-73.5 0.5q-2 -11 -6.5 -35t-6.5 -36q26 2 42 2q56 0 91 -26t35 -71q0 -57 -43 -87q-38 -29 -111 -29q-53 0 -75 6q-2 12 -6.5 40t-6.5 43q17 5 43 9l13 -49q1 -3 4 -6q15 -6 35 -6q39 0 60 18q23 18 23 51
q0 31 -23 48.5t-67 17.5q-39 0 -66 -6z" />
    <glyph glyph-name="six.superior" unicode="&#x2076;" 
d="M106 602h3q37 30 82 30q42 0 70 -23q32 -28 32 -75q0 -55 -40 -85q-32 -25 -85 -25q-54 0 -85 30q-39 37 -39 113q0 101 56 152q42 37 102 37q36 0 64 -8q6 -48 8 -76q-5 -1 -19.5 -3.5t-22.5 -3.5l-11 43q0 3 -4 7q-10 4 -24 4q-30 0 -51 -24q-29 -34 -36 -93zM173 459
q26 0 41 18q16 19 16 49q0 39 -22 55q-11 11 -35 11q-15 0 -34 -9.5t-31 -28.5q0 -55 25 -79q16 -16 40 -16z" />
    <glyph glyph-name="seven.superior" unicode="&#x2077;" 
d="M236 701l-2 4h-126q-10 -1 -13 -13l-11 -43q-5 1 -19.5 3.5t-22.5 3.5q2 10 5 29.5t5.5 35t4.5 28.5h58h167q8 -20 14 -42q-81 -127 -109 -221q-7 -24 -9 -58q-30 -3 -63 -3q0 35 11 64q24 61 110 212z" />
    <glyph glyph-name="eight.superior" unicode="&#x2078;" 
d="M221 603v-3q74 -24 74 -82q0 -41 -35 -68q-34 -26 -98 -26q-61 0 -93 24q-31 22 -31 61q0 58 73 88v4q-57 24 -57 72q0 35 31 58q32 25 89 25q52 0 78 -20q28 -21 28 -55q0 -50 -59 -78zM112 674q0 -18 15.5 -31t52.5 -26q43 21 43 58q0 20 -12 32q-12 14 -41 14
q-26 0 -40 -11q-18 -13 -18 -36zM235 513q0 24 -19 38.5t-65 30.5q-52 -27 -52 -67q0 -26 20 -41q18 -15 47 -15q28 0 47 13q22 15 22 41z" />
    <glyph glyph-name="nine.superior" unicode="&#x2079;" 
d="M51 506q24 6 41 8l15 -43q1 -4 6 -7q6 -3 25 -3q37 0 57 24q27 30 34 94h-3q-37 -30 -82 -30q-48 0 -76 27q-27 27 -27 68q0 49 38 83q32 29 87 29q56 0 87 -33q37 -37 37 -111q0 -103 -56 -152q-41 -36 -104 -36q-45 0 -67 8q-11 66 -12 74zM161 721q-25 0 -41 -19
q-17 -20 -17 -49q0 -30 15 -48q15 -16 44 -16q15 0 34 10t31 27q0 54 -24 78q-17 17 -42 17z" />
    <glyph glyph-name="parenleft.superior" unicode="&#x207d;" horiz-adv-x="230" 
d="M68 580q0 76 37.5 135t87.5 88q11 -11 21 -28q-34 -26 -59.5 -77t-25.5 -116q0 -123 84 -198q-10 -12 -25 -26q-33 26 -55.5 49.5t-43.5 70t-21 102.5z" />
    <glyph glyph-name="parenright.superior" unicode="&#x207e;" horiz-adv-x="230" 
d="M163 584q0 -136 -122 -226q-4 5 -12 14.5t-11 12.5q84 77 84 198q0 64 -24 113.5t-59 79.5q2 3 6.5 8.5t8 10t6.5 8.5q49 -27 86 -85t37 -134z" />
    <glyph glyph-name="n.superior" unicode="&#x207f;" horiz-adv-x="427" 
d="M29 327q0 25 1 37l47 2q2 0 2 3l-1 222l-59 1q0 23 1 34q14 2 40.5 7t47 9t23.5 4q2 0 2 -2q5 -35 6 -45h1q52 32 74 40t49 8q51 0 79 -51q16 -25 16 -58q0 -13 -3 -172l50 -1q0 -26 -1 -38h-83q-12 0 -37 -0.5t-36 -0.5q0 26 1 38l42 2q3 0 3 3q1 38 1 127q0 56 -10 73
q-16 28 -51 28q-18 0 -45 -12.5t-47 -28.5q-2 -110 -2 -190l53 -1q0 -26 -1 -38h-86h-77z" />
    <glyph glyph-name="zero.inferior" unicode="&#x2080;" 
d="M295 55q0 -95 -46 -141q-30 -30 -86 -30q-52 0 -82 32q-39 42 -39 124q0 99 49 145q32 32 83 32q53 0 85 -36q36 -45 36 -126zM169 180q-25 0 -40 -22q-22 -34 -22 -116q0 -71 20 -100q13 -22 41 -22q27 0 41 20q21 29 21 106t-16 107q-14 27 -45 27z" />
    <glyph glyph-name="one.inferior" unicode="&#x2081;" 
d="M64 -109q0 25 1 37l83 2q2 0 2 2v219q-11 -2 -24 -5t-31 -7.5l-30 -7.5q-2 8 -7 38q28 9 65.5 22.5t59.5 21.5t27 8q1 0 1 -3q0 -47 -0.5 -144t-0.5 -144l77 -2q0 -25 -1 -37q-18 0 -53.5 0.5t-52.5 0.5q-18 0 -56.5 -0.5t-59.5 -0.5z" />
    <glyph glyph-name="two.inferior" unicode="&#x2082;" 
d="M279 123q0 -67 -98 -146q-22 -19 -51 -38l2 -5q19 0 79 2t71 2q3 0 3 -2q0 -24 -3 -45q-15 0 -73.5 0.5t-77.5 0.5q-16 0 -43 -0.5t-36 -0.5q-1 3 -5.5 14.5t-6.5 17.5q63 44 94 71q27 24 38.5 36t27 38t15.5 51t-16 45q-15 15 -45 15t-47 -13l-3 -6l-8 -53q-8 0 -22 1
t-21 1q3 40 6 89q42 20 101 20q60 0 88 -25q31 -28 31 -70z" />
    <glyph glyph-name="three.inferior" unicode="&#x2083;" 
d="M88 -16l12 -49l3 -6q16 -8 43 -8q35 0 55 14q22 15 22 44q0 27 -23 42.5t-61 15.5h-39v38q115 -1 115 59q0 22 -14 33q-13 12 -47 12q-30 0 -45 -11q-3 -3 -3 -5l-8 -48q-28 2 -43 3q1 13 2.5 40t2.5 40q44 19 103 19q61 0 88 -22q28 -22 28 -52q0 -57 -72 -78v-5
q40 -4 60.5 -26.5t20.5 -50.5q0 -46 -42 -75q-36 -24 -106 -24q-54 0 -85 7q-1 8 -4.5 38t-5.5 48q15 3 43 7z" />
    <glyph glyph-name="four.inferior" unicode="&#x2084;" 
d="M128 -109q0 23 1 33l63 1q2 0 2 2q0 7 0.5 22t0.5 22h-153q-13 26 -18 38q9 12 34 44t41 53q71 91 86 109q43 0 63 -1q0 -32 -0.5 -100.5t-0.5 -101.5h59q0 -26 -1 -40h-59v-47l42 -1v-33q-11 0 -37 0.5t-39 0.5q-14 0 -42.5 -0.5t-41.5 -0.5zM195 158h-6
q-7 -9 -25.5 -33t-31.5 -41q-19 -27 -49 -66q-4 -6 2 -6h109z" />
    <glyph glyph-name="five.inferior" unicode="&#x2085;" 
d="M65 51l-4 3q7 66 20 155h98h99q0 -22 -3 -43h-145q-2 -12 -6.5 -36t-6.5 -35q26 2 42 2q56 0 91 -26t35 -71q0 -57 -43 -87q-38 -29 -111 -29q-48 0 -75 6q-2 12 -6.5 40t-6.5 43q17 5 43 9l13 -49q1 -3 4 -6q13 -5 35 -5q40 0 60 17q23 18 23 51q0 66 -90 66
q-21 0 -66 -5z" />
    <glyph glyph-name="six.inferior" unicode="&#x2086;" 
d="M106 62h3q38 31 82 31q41 0 70 -24q32 -28 32 -75q0 -55 -40 -85q-32 -25 -85 -25q-54 0 -85 30q-39 37 -39 113q0 101 56 152q41 38 102 38q39 0 64 -9q6 -48 8 -76q-5 -1 -19.5 -3.5t-22.5 -3.5l-11 44q0 2 -4 6q-10 4 -24 4q-30 0 -51 -24q-29 -34 -36 -93zM173 -81
q26 0 41 18q16 19 16 49q0 39 -22 56q-11 10 -35 10q-15 0 -34 -9.5t-31 -28.5q0 -55 25 -79q16 -16 40 -16z" />
    <glyph glyph-name="seven.inferior" unicode="&#x2087;" 
d="M236 162l-2 3h-59.5h-45.5h-21q-10 -1 -13 -13l-11 -42l-42 6q10 64 15 94q9 0 29 -0.5t29 -0.5h167q7 -18 14 -41q-81 -129 -109 -222q-7 -25 -9 -58q-30 -3 -63 -3q0 37 11 64q22 57 110 213z" />
    <glyph glyph-name="eight.inferior" unicode="&#x2088;" 
d="M221 63v-3q74 -24 74 -81q0 -42 -35 -68q-33 -27 -98 -27q-61 0 -93 24q-31 22 -31 61q0 59 73 88v4q-57 26 -57 72q0 36 31 59q32 25 89 25q50 0 78 -20q28 -23 28 -55q0 -51 -59 -79zM112 134q0 -18 15.5 -31t52.5 -26q43 22 43 58q0 20 -12 32q-12 14 -41 14
q-28 0 -40 -11q-18 -13 -18 -36zM235 -26q0 23 -19 37.5t-65 30.5q-52 -25 -52 -67q0 -26 20 -41t47 -15q28 0 47 13q22 15 22 42z" />
    <glyph glyph-name="nine.inferior" unicode="&#x2089;" 
d="M51 -34q2 1 41 9l15 -43q1 -5 6 -8q6 -3 25 -3q37 0 57 24q27 30 34 94l-3 1q-38 -31 -82 -31q-46 0 -76 27q-27 27 -27 68q0 49 38 83q33 30 87 30t87 -33q37 -39 37 -112q0 -103 -56 -152q-41 -36 -104 -36q-45 0 -67 8q-11 66 -12 74zM161 181q-25 0 -41 -18
q-17 -22 -17 -50q0 -30 15 -48q15 -16 44 -16q15 0 34 10t31 27q0 54 -24 79q-18 16 -42 16z" />
    <glyph glyph-name="parenleft.inferior" unicode="&#x208d;" horiz-adv-x="230" 
d="M68 40q0 76 37.5 135t87.5 88q11 -10 21 -28q-34 -26 -59.5 -77t-25.5 -116q0 -123 84 -198q-11 -14 -25 -25q-52 39 -86 90t-34 131z" />
    <glyph glyph-name="parenright.inferior" unicode="&#x208e;" horiz-adv-x="230" 
d="M163 44q0 -133 -122 -226q-4 5 -12 14.5t-11 12.5q84 79 84 198q0 124 -83 193q2 3 6.5 8.5t8 10t6.5 8.5q49 -27 86 -85t37 -134z" />
    <glyph glyph-name="colonmonetary" unicode="&#x20a1;" horiz-adv-x="528" 
d="M340 33l-10 -110q-14 -1 -42 -1l10 109q-38 2 -63 8l-12 -116q-13 -1 -41 -1l13 129q-74 28 -114 92.5t-40 142.5q0 105 54.5 188.5t147.5 112.5l10 122q21 3 46 3l-11 -113q21 4 62 6l9 103q19 4 46 4l-11 -109q72 -3 115 -30q0 -12 -11 -31.5t-22 -29.5q-42 30 -87 36
l-45 -464q59 4 135 34q6 -22 11 -47q-89 -34 -150 -38zM302 84l44 469q-31 1 -63 -5l-43 -453q30 -10 62 -11zM200 113l38 421q-52 -27 -86 -88t-34 -140q0 -74 20 -117.5t62 -75.5z" />
    <glyph glyph-name="Euro" unicode="&#x20ac;" horiz-adv-x="524" 
d="M96 382q25 118 104 190q80 73 195 73q62 0 102 -21q0 -2 6 -125q-33 -6 -55 -7l-11 65q-3 13 -8 16q-23 16 -56 16q-32 0 -67.5 -16t-59.5 -44q-51 -56 -69 -147q36 0 115.5 0.5t112.5 0.5q1 -13 -1 -44h-232q-1 -11 -1 -35q0 -21 1 -31h211q0 -28 -1 -42h-204
q8 -63 47 -116q21 -28 59 -48t75 -20q63 0 143 42q6 -23 11 -51q-36 -18 -54 -25.5t-49.5 -15t-64.5 -7.5q-97 0 -164 60q-75 67 -89 181h-65q0 29 1 42h58v18q0 28 4 48h-63q0 29 1 42q19 1 68 1z" />
    <glyph glyph-name="uni20B9" unicode="&#x20b9;" horiz-adv-x="524" 
d="M69 593q0 28 1 41q44 1 141 1h106q29 0 92.5 0.5t90.5 0.5q2 -24 -1 -44q-21 0 -83 0.5t-94 0.5q53 -31 71 -82q73 0 105 1q0 -29 -2 -43h-96q1 -9 -1 -23q-6 -55 -42.5 -95.5t-91.5 -61.5v-5q8 -3 15 -7t14.5 -11t12.5 -12t12.5 -15.5t12 -17t13.5 -21t13.5 -22.5
t15 -26t15.5 -28q25 -47 35.5 -60.5t19.5 -13.5l63 -3q0 -17 -2 -47q-46 0 -67 -1q-11 0 -33.5 -0.5t-31.5 -0.5q-19 24 -67 111.5t-61 106.5q-17 26 -37 36t-56 10q-29 0 -53.5 -0.5t-27.5 -0.5q0 34 1 49q15 -1 75 -1q87 0 129.5 42.5t42.5 96.5q0 14 -2 20h-90
q-111 0 -158 -1q0 31 1 44h237q-33 79 -149 81q-16 0 -46 0.5t-43 0.5z" />
    <glyph glyph-name="uni20BA" unicode="&#x20ba;" horiz-adv-x="524" 
d="M208 285l-2 -229q0 -6 8 -6q71 0 132 62.5t63 158.5q30 22 73 22q-1 -137 -86 -215t-225 -78q-72 0 -112 -1q0 29 1 44l66 3q4 0 4 4v189q-63 -40 -69 -44q-14 20 -22 35q60 36 91 55l1 75q-12 -7 -35.5 -21.5t-34.5 -21.5q-12 15 -23 34q41 25 93 56v170l-80 1
q0 7 0.5 22t0.5 21q18 2 55.5 8t67 11t32.5 5t3 -4l-1 -186q96 60 144 91q14 -17 23 -35q-25 -15 -53 -32.5t-62 -39t-53 -33.5v-73q18 11 146 92q14 -18 22 -35q-25 -15 -53 -32.5t-62 -39t-53 -33.5z" />
    <glyph glyph-name="uni2113" unicode="&#x2113;" horiz-adv-x="478" 
d="M413 139l37 -34q-66 -115 -187 -115q-72 0 -111 44.5t-44 116.5v7q-9 -7 -27 -19l-27 -18l-23 42q52 36 76 57v263q0 105 40.5 156t106.5 51q55 0 87.5 -40t32.5 -105q0 -164 -196 -341v-14q0 -137 101 -137q76 0 134 86zM178 498v-223q133 138 133 268q0 93 -64 93
q-29 0 -49 -34.5t-20 -103.5z" />
    <glyph glyph-name="trademark" unicode="&#x2122;" horiz-adv-x="620" 
d="M74 430l36 1v188q-36 0 -47 -3l-7 -49q-22 2 -33 2q2 75 3 81h112h104q2 -44 3 -80q-28 -2 -34 -3l-7 49q-11 3 -46 3v-188l38 -1v-31h-60h-62v31zM267 430l33 1q0 30 0.5 95t0.5 93h-33v31h95q10 -30 31 -95t28 -88h5q5 16 19 57.5t25 75t16 50.5h92v-31h-33
q0 -129 1 -189h33v-31h-54h-45q0 20 1 31l23 1q2 102 2 157h-5q-25 -75 -65 -177q-10 -1 -32 -1q-26 67 -62 180h-6q1 -48 1 -160h24v-31h-44h-51v31z" />
    <glyph glyph-name="Omega" unicode="&#x2126;" horiz-adv-x="698" 
d="M658 61v-61h-239v48q64 43 105.5 120.5t41.5 171.5q0 99 -57 179t-157 80q-101 0 -160 -78.5t-59 -182.5q0 -89 42.5 -169.5t103.5 -120.5v-48h-238v61h140v4q-55 47 -91 119t-36 159q0 139 85.5 228.5t213.5 89.5q131 0 211.5 -88t80.5 -222q0 -177 -128 -286v-4h141z
" />
    <glyph glyph-name="estimated" unicode="&#x212e;" horiz-adv-x="830" 
d="M781 307h-592q-5 0 -5 -5v-178q0 -13 8 -21q91 -97 225 -97q141 0 236 108h53q-51 -59 -127 -93.5t-163 -34.5q-152 0 -259.5 96.5t-107.5 232.5t107.5 232.5t258.5 96.5q152 0 259 -96.5t107 -232.5v-8zM647 330v180q0 12 -9 21q-94 94 -222 94q-130 0 -223 -96
q-9 -9 -9 -23v-176q0 -5 5 -5h454q4 0 4 5z" />
    <glyph glyph-name="onethird" unicode="&#x2153;" horiz-adv-x="733" 
d="M62 327q0 24 1 37l83 1q2 0 2 2v220q-61 -15 -85 -21q-3 13 -7 39q29 9 66 22t59 21t27 8q1 0 1 -3q0 -46 -0.5 -143.5t-0.5 -144.5l77 -1q0 -25 -1 -37h-106h-116zM204 -16q-4 2 -18 8t-22 10q89 157 166 298q81 151 193 359q33 -11 44 -17q-167 -304 -199 -364
q-61 -111 -164 -294zM480 92l11 -49q2 -4 4 -5q18 -9 43 -9q35 0 55 14q22 17 22 44t-23 43t-61 16h-39v38q115 -1 115 58q0 22 -14 33q-13 13 -47 13q-28 0 -45 -11l-3 -6l-8 -48q-28 2 -43 3q1 12 2.5 39.5t2.5 41.5q41 18 103 18q60 0 88 -21q28 -24 28 -53
q0 -57 -72 -78v-4q40 -5 60.5 -27.5t20.5 -50.5q0 -47 -42 -74q-38 -25 -107 -25q-53 0 -84 7l-6 45t-5 41q12 3 44 7z" />
    <glyph glyph-name="twothirds" unicode="&#x2154;" horiz-adv-x="733" 
d="M279 558q0 -66 -98 -145q-22 -19 -51 -38l2 -5q22 0 151 3q2 0 2 -1q0 -24 -3 -45h-151h-79q-2 5 -6 16t-6 16q60 41 94 71q24 22 37.5 35t28.5 39t15 51q0 28 -16 44q-15 16 -45 16t-47 -13q-2 -4 -2 -6l-9 -54q-22 2 -42 3q1 35 5 89q40 19 101 19t88 -25
q31 -26 31 -70zM206 -16q-4 2 -18 8t-22 10q89 157 166 298q81 151 193 359q33 -11 44 -17q-167 -304 -199 -364q-61 -111 -164 -294zM482 92l11 -49q2 -4 4 -5q16 -9 43 -9q35 0 55 14q22 17 22 44t-23 43t-61 16h-39v12v14.5v11.5q115 -1 115 58q0 21 -14 33
q-13 13 -47 13q-28 0 -45 -11l-3 -6l-8 -48q-28 2 -43 3q1 12 2.5 39.5t2.5 41.5q41 18 103 18q60 0 87 -21q28 -22 28 -53q0 -58 -72 -78v-4q41 -5 61.5 -27.5t20.5 -50.5q0 -47 -42 -74q-38 -25 -107 -25q-55 0 -84 7l-6 45t-5 41q12 3 44 7z" />
    <glyph glyph-name="oneeighth" unicode="&#x215b;" horiz-adv-x="733" 
d="M66 327q-2 17 0 37l84 1q2 0 2 2v220q-61 -15 -85 -21q-6 26 -8 39q29 9 66 22t59.5 21t26.5 8q2 0 2 -3q0 -46 -0.5 -143.5t-0.5 -144.5l77 -1q0 -25 -1 -37h-106h-116zM208 -16q-5 2 -18.5 8t-20.5 10q150 269 165 298q12 23 83.5 154t110.5 205q35 -13 44 -17
q-124 -223 -199 -364q-31 -56 -165 -294zM612 172v-4q74 -22 74 -81q0 -42 -35 -68q-35 -27 -98 -27q-61 0 -93 25q-31 21 -31 60q0 59 73 89v3q-57 27 -57 72q0 36 31 59q33 25 89 25q52 0 78 -20q29 -21 29 -55q0 -50 -60 -78zM503 243q0 -34 68 -58q43 22 43 59
q0 20 -11 31q-15 15 -41 15q-27 0 -41 -11q-18 -14 -18 -36zM626 82q0 24 -19 38.5t-64 30.5q-53 -27 -53 -68q0 -25 20 -41q19 -14 47 -14q29 0 47 12q22 15 22 42z" />
    <glyph glyph-name="threeeighths" unicode="&#x215c;" horiz-adv-x="733" 
d="M95 419l12 -49l1 -2l3 -3q16 -9 42 -9q33 0 55 15t22 43t-23 43.5t-61 15.5h-38q-1 12 -1 38q115 -1 115 58q0 21 -13 33q-14 13 -48 13q-28 0 -45 -11l-3 -6l-8 -47q-14 0 -42 2q2 26 4 81q41 18 104 18q59 0 87 -21q28 -22 28 -52q0 -58 -72 -79v-4q41 -5 61.5 -27
t20.5 -50q0 -47 -43 -75q-37 -25 -106 -25q-47 0 -84 7q-7 50 -11 86q15 3 43 7zM203 -16q-4 2 -18 8t-22 10q89 157 166 298q81 151 193 359q37 -13 44 -17q-70 -125 -199 -364q-61 -111 -164 -294zM607 172v-4q74 -23 74 -81q0 -42 -35 -68q-35 -27 -98 -27q-62 0 -94 25
q-30 21 -30 60q0 59 73 89v3q-58 26 -58 72q0 35 32 59q32 25 89 25q52 0 77 -20q29 -21 29 -55q0 -50 -59 -78zM497 243q0 -34 69 -58q43 23 43 59q0 19 -12 31q-13 15 -41 15q-25 0 -41 -11q-18 -14 -18 -36zM620 82q0 24 -19 38.5t-64 30.5q-53 -27 -53 -68q0 -25 21 -41
q17 -14 47 -14q28 0 47 12q21 16 21 42z" />
    <glyph glyph-name="fiveeighths" unicode="&#x215d;" horiz-adv-x="733" 
d="M78 486l-4 4q10 92 19 155h99h98q0 -21 -3 -44h-145q-1 -8 -6 -32.5t-7 -37.5q26 2 42 2q56 0 91.5 -26t35.5 -71q0 -56 -43 -88q-40 -29 -112 -29q-50 0 -74 7q-6 33 -13 83q31 7 43 8l12 -49q1 -3 5 -5q12 -6 35 -6q37 0 60 17q23 20 23 51t-23 49t-67 18q-42 0 -66 -6
zM200 -16q-3 1 -17.5 7.5t-22.5 10.5q89 157 166 298q34 64 101.5 189.5t91.5 169.5q35 -13 44 -17q-70 -125 -199 -364q-26 -48 -85.5 -154t-78.5 -140zM604 172v-4q74 -22 74 -81q0 -42 -35 -68q-35 -27 -98 -27q-61 0 -93 25q-31 20 -31 60q0 59 73 89v3q-57 26 -57 72
q0 36 31 59q33 25 89 25q52 0 78 -20q29 -21 29 -55q0 -50 -60 -78zM495 243q0 -34 68 -58q43 22 43 59q0 20 -11 31q-15 15 -41 15q-27 0 -41 -11q-18 -13 -18 -36zM618 82q0 24 -19 38.5t-65 30.5q-52 -27 -52 -68q0 -26 20 -41q19 -14 47 -14q27 0 47 12q22 16 22 42z
" />
    <glyph glyph-name="seveneighths" unicode="&#x215e;" horiz-adv-x="733" 
d="M267 597l-2 3q-105 1 -126 0q-10 0 -13 -12l-11 -43q-33 5 -42 7l15 93h58h167q5 -14 14 -42q-81 -127 -109 -221q-7 -24 -9 -59q-40 -2 -63 -2q0 35 11 64q21 55 110 212zM172 -16l-39 18q132 237 165 298q167 310 194 359q35 -13 44 -17q-124 -223 -199 -364
q-87 -156 -165 -294zM577 172v-4q74 -23 74 -81q0 -42 -35 -68q-35 -27 -98 -27q-62 0 -94 25q-30 21 -30 60q0 59 73 89v3q-58 26 -58 72q0 35 32 59q32 25 89 25q52 0 77 -20q29 -21 29 -55q0 -50 -59 -78zM467 243q0 -34 69 -58q43 23 43 59q0 19 -12 31q-13 15 -41 15
q-25 0 -41 -11q-18 -14 -18 -36zM590 82q0 24 -19 38.5t-64 30.5q-53 -27 -53 -68q0 -25 21 -41q17 -14 47 -14q28 0 47 12q21 16 21 42z" />
    <glyph glyph-name="partialdiff" unicode="&#x2202;" horiz-adv-x="523" 
d="M90 610l-23 47q69 50 162 50q104 0 177.5 -89.5t73.5 -249.5q0 -177 -75.5 -275t-183.5 -98q-90 0 -138.5 59t-48.5 143q0 98 62 165.5t149 67.5q56 0 101.5 -27t59.5 -57q1 -1 2 -1t1 1q0 5 0.5 17t0.5 17q0 127 -56 198t-130 71q-77 0 -134 -39zM254 373
q-61 0 -104 -50t-43 -124q0 -67 33 -106t88 -39q67 0 114 64.5t58 156.5q-16 41 -55 69.5t-91 28.5z" />
    <glyph glyph-name="Delta" unicode="&#x2206;" horiz-adv-x="613" 
d="M38 0v44l229 607h81l227 -606v-45h-537zM118 63h374l-139 370q-34 96 -46 141h-5q-21 -71 -42 -126z" />
    <glyph glyph-name="product" unicode="&#x220f;" horiz-adv-x="611" 
d="M500 588v-652h-71v652h-247v-652h-71v652h-90v62h569v-62h-90z" />
    <glyph glyph-name="summation" unicode="&#x2211;" horiz-adv-x="509" 
d="M19 -65v46l247 309l-234 309v51h441v-64h-342v-4l220 -289l-231 -291v-4h385v-63h-486z" />
    <glyph glyph-name="minus" unicode="&#x2212;" horiz-adv-x="524" 
d="M460 208h-397q0 19 2 53q65 1 203 2t195 1q0 -30 -3 -56z" />
    <glyph glyph-name="uni2215" unicode="&#x2215;" horiz-adv-x="77" 
d="M-123 -16q-3 1 -17.5 7.5t-22.5 10.5q89 157 166 298q34 64 101.5 189.5t91.5 169.5q35 -13 44 -17q-70 -125 -199 -364q-26 -48 -85.5 -154t-78.5 -140z" />
    <glyph glyph-name="uni2219" unicode="&#x2219;" horiz-adv-x="245" 
d="M124 317q27 0 40.5 -18t13.5 -38q0 -23 -15 -39.5t-39 -16.5q-25 0 -40.5 15.5t-15.5 39.5q0 21 15 39t41 18z" />
    <glyph glyph-name="radical" unicode="&#x221a;" horiz-adv-x="543" 
d="M558 807l-223 -896h-57l-155 417l-71 -31l-18 45l129 54l123 -345q12 -34 16 -52h1q9 46 11 52l183 756h61z" />
    <glyph glyph-name="infinity" unicode="&#x221e;" horiz-adv-x="715" 
d="M532 118q-32 0 -64.5 16.5t-52 33t-49.5 46.5l-9 9q-62 -61 -93 -79q-43 -26 -89 -26q-61 0 -100 40t-39 103q0 59 42 101t105 42q13 0 27 -3t24 -6t24.5 -12.5t21 -13t22 -17.5t18.5 -16.5t20 -19t18 -17.5q37 37 54 52t54 34t74 19q61 0 100 -40t39 -103
q0 -59 -42 -101t-105 -42zM533 173q38 0 63 26t25 62q0 38 -24 63t-61 25q-26 0 -55 -16t-43.5 -30t-42.5 -42q5 -4 22.5 -22t26.5 -25.5t25 -19t31.5 -16.5t32.5 -5zM179 173q26 0 55 16t45 30.5t42 41.5q-11 10 -33 32q-58 56 -106 56q-37 0 -62.5 -26t-25.5 -62
q0 -38 24 -63.5t61 -24.5z" />
    <glyph glyph-name="integral" unicode="&#x222b;" horiz-adv-x="334" 
d="M309 770l-11 -49q-13 4 -29 4q-28 0 -45 -20q-30 -37 -30 -157q0 -70 5 -231.5t5 -234.5q0 -133 -43 -185q-31 -43 -87 -43q-34 0 -51 10l11 49q18 -6 35 -6q26 0 44 21q31 36 31 154q0 74 -5.5 237.5t-5.5 233.5q0 137 50 190q34 34 84 34q25 0 42 -7z" />
    <glyph glyph-name="approxequal" unicode="&#x2248;" horiz-adv-x="524" 
d="M437 352l31 -34q-50 -59 -117 -59q-29 0 -56 9q-2 1 -41 17q-1 1 -15.5 7t-22.5 9q-21 8 -45 8q-46 0 -88 -44l-30 36q54 58 118 58q28 0 55 -9q25 -10 41 -18q5 -2 17 -7t20 -8q21 -8 46 -8q44 0 87 43zM440 205l31 -35q-51 -59 -118 -59q-27 0 -54 9q-1 0 -41 17
q-35 14 -39 16q-21 8 -46 8q-42 0 -86 -44l-30 36q50 58 117 58q27 0 54 -9q10 -3 25.5 -9.5t17.5 -7.5q32 -15 36 -16q25 -9 46 -9q46 0 87 45z" />
    <glyph glyph-name="notequal" unicode="&#x2260;" horiz-adv-x="524" 
d="M312 283l-35 -95h186q0 -17 -2 -53q-133 0 -204 -1q-15 -41 -35 -97q-38 15 -49 20q12 32 27 77q-23 0 -69.5 -0.5t-68.5 -1.5q0 32 3 56h155q5 14 34 95h-191q0 21 2 53q31 0 101 0.5t107 0.5q24 66 34 97q18 -6 51 -21q-15 -45 -27 -75q23 0 68 0.5t65 0.5
q0 -31 -3 -56h-149z" />
    <glyph glyph-name="lessequal" unicode="&#x2264;" horiz-adv-x="524" 
d="M173 344q7 -7 234 -194q-15 -24 -31 -41q-209 162 -271 210q-1 15 -1 47q122 90 273 201q14 -15 30 -42q-207 -159 -234 -181zM65 -3q0 51 3 55h396q0 -16 -2 -52q-343 0 -397 -3z" />
    <glyph glyph-name="greaterequal" unicode="&#x2265;" horiz-adv-x="524" 
d="M345 336q-156 130 -234 190q12 21 31 41q183 -138 272 -206q2 -21 0 -47q-225 -170 -272 -205q-14 15 -31 40q11 10 113.5 91t120.5 96zM60 -2q0 48 3 53q148 0 396 2q0 -36 -2 -53q-14 -1 -196.5 -1.5t-200.5 -0.5z" />
    <glyph glyph-name="lozenge" unicode="&#x25ca;" horiz-adv-x="504" 
d="M460 320l-177 -350h-61l-177 350l177 350h61zM392 319l-131 269q-1 3 -3 7.5t-4 8t-2 4.5h-2q-1 -2 -9 -20l-129 -266l131 -270q2 -3 5 -11t4 -9h2q0 1 2 4.5t4 8t3 7.5z" />
    <glyph glyph-name="Euro.fitted" unicode="&#xe000;" horiz-adv-x="615" 
d="M96 382q29 117 113 187q91 75 230 75q84 0 126 -21q1 -10 6 -124q-33 -6 -55 -7l-13 64q-7 14 -9 15q-27 18 -81 18q-101 0 -162 -64q-55 -56 -75 -143q44 0 139.5 0.5t135.5 0.5q2 -23 -1 -44h-280q-2 -22 -2 -33q0 -22 1 -33h256q0 -28 -2 -42h-248q11 -67 54 -116
q28 -32 72.5 -50t93.5 -18q81 0 175 42q10 -39 12 -51q-120 -48 -201 -48q-114 0 -191 60q-83 62 -100 181h-48q-1 15 1 42h42v18q0 28 4 48h-48q0 16 2 42q16 1 53 1z" />
    <glyph glyph-name="Euro.oldstyle" unicode="&#xe001;" horiz-adv-x="521" 
d="M69 290q20 95 100 157q79 61 192 61q73 0 110 -16q4 -39 8 -119q-23 -3 -56 -6l-11 65q-4 11 -7 12q-24 12 -63 12q-76 0 -128 -49q-49 -46 -64 -116q160 0 243 1q1 -12 -1 -38h-245q-1 -8 -1 -22q0 -13 2 -33h219q0 -13 -2 -37h-209q10 -36 39 -68q48 -50 134 -50
q58 0 146 30q7 -22 12 -49q-103 -35 -173 -35q-101 0 -165 47q-59 45 -79 125h-48q0 13 2 37q7 0 19.5 -0.5t19.5 -0.5v19q0 25 1 37h-42q0 24 1 36h46z" />
    <glyph glyph-name="cent.fitted" unicode="&#xe005;" horiz-adv-x="482" 
d="M44 297q0 89 55.5 155t147.5 80q1 35 1 102q21 5 52 7q0 -31 -2 -105q10 2 19 2q60 0 113 -25q0 -12 -11 -32.5t-21 -26.5q-64 31 -101 31q-1 -53 -3 -164t-2 -163q61 3 133 34q4 -10 13 -42q-83 -37 -146 -42q0 -19 -0.5 -55t-0.5 -51q-15 -2 -49 -4q0 30 2 108
q-85 2 -142.5 51.5t-57.5 139.5zM119 315q0 -77 38 -118q32 -33 87 -38q0 12 3 324q-58 -9 -93 -59.5t-35 -108.5z" />
    <glyph glyph-name="degree.oldstyle" unicode="&#xe006;" horiz-adv-x="314" 
d="M159 609q50 0 80 -28.5t30 -74.5q0 -44 -32.5 -75t-78.5 -31q-47 0 -79 28t-32 75q0 42 32.5 74t79.5 32zM159 568q-26 0 -41 -19t-15 -45q0 -27 16 -44.5t40 -17.5q26 0 40 18t14 45q0 28 -14 45.5t-40 17.5z" />
    <glyph glyph-name="dollar.fitted" unicode="&#xe007;" horiz-adv-x="465" 
d="M45 449q0 34 18.5 65.5t48.5 51.5q49 33 111 37q0 39 2 101q21 7 51 7q-1 -43 -3 -106q83 1 139 -29q0 -11 -10.5 -31.5t-21.5 -26.5q-62 35 -108 39q-1 -70 -5 -203q80 -25 120.5 -59t40.5 -93q0 -78 -55 -122q-48 -41 -125 -48q0 -17 -0.5 -50.5t-0.5 -50.5
q-14 -2 -48 -4q1 17 1.5 51t0.5 52q-44 -2 -96 9t-85 30q13 40 37 55q81 -46 144 -48q2 66 4 222q-80 28 -120 59.5t-40 91.5zM114 460q0 -37 23.5 -56t81.5 -38q0 22 1 61.5t1.5 71t0.5 58.5q-48 -4 -74 -26q-34 -27 -34 -71zM361 183q0 43 -25 64t-83 40q-2 -146 -4 -209
q50 6 78 29q34 28 34 76z" />
    <glyph glyph-name="florin.fitted" unicode="&#xe00a;" horiz-adv-x="468" 
d="M411 645q47 0 68 -12q0 -9 -11 -32t-20 -32q-4 1 -20 4.5t-33 6.5t-30 3q-47 0 -73 -31q-22 -25 -32 -63t-14 -124q122 0 190 1q0 -27 -3 -51h-189q-9 -219 -19 -286q-11 -82 -74 -134t-132 -52q-34 0 -57 9q0 10 9.5 30t18.5 30q45 -9 63 -9q37 0 67 32.5t36 98.5
q8 83 13 281h-120q0 18 2 48q19 0 58 0.5t57 1.5q5 0 5 7q3 89 17 127.5t55 76.5q69 69 168 69z" />
    <glyph glyph-name="florin.oldstyle" unicode="&#xe00b;" horiz-adv-x="425" 
d="M359 506q39 0 61 -10q0 -11 -9 -30.5t-18 -28.5q-36 11 -69 11q-44 0 -65 -26q-33 -39 -34 -150q23 0 75 0.5t82 0.5q0 -17 -2 -49h-156q-10 -188 -16 -229q-9 -62 -62 -108.5t-113 -46.5q-35 0 -54 8q-1 11 7.5 29t17.5 28q24 -8 51 -8q78 0 86 108q10 117 10 219h-99
q0 8 0.5 24t0.5 23q34 1 96 1q3 0 4 6q3 74 15 106t46 65q58 57 145 57z" />
    <glyph glyph-name="numbersign.oldstyle" unicode="&#xe00c;" horiz-adv-x="528" 
d="M199 494q19 2 54 2q-4 -24 -12.5 -72.5t-12.5 -72.5h115l24 144q17 1 54 1q-5 -26 -13.5 -74.5t-12.5 -70.5q19 0 53 0.5t49 0.5q0 -27 -3 -48h-108q-4 -25 -12 -71.5t-11 -66.5h110q0 -22 -3 -46h-116q-5 -30 -14.5 -86t-13.5 -77q-34 -2 -50 -1q5 30 14.5 87.5
t12.5 75.5h-115q-5 -29 -15 -84t-14 -79q-23 -2 -49 0q18 108 27 163h-104q0 20 2 48q19 0 56 -0.5t55 -0.5l21 138h-111q0 18 2 46h118q18 108 23 144zM219 304q-8 -54 -23 -138h116q4 27 12.5 80.5t9.5 57.5h-115z" />
    <glyph glyph-name="bullet.01" unicode="&#xe00d;" horiz-adv-x="1000" 
d="M616 636q1 -30 1.5 -71.5t1 -92.5t0.5 -77q-50 -2 -239 -2v241q79 4 236 2zM334 353q1 -31 1 -118.5t1 -121.5q-94 -5 -238 -3q-4 107 1 243q106 3 235 0zM901 353q0 -181 -1 -242q-118 -3 -236 0q-2 85 0 243q42 1 131 0t106 -1zM617 68q0 -21 1 -111t0 -130
q-157 -2 -238 0q-2 48 1 243q168 0 236 -2z" />
    <glyph glyph-name="bullet.02" unicode="&#xe00e;" horiz-adv-x="1000" 
d="M515 734q73 -143 134 -300q0 -1 -4 -7q-114 -4 -294 -2q43 118 137 309h27zM998 246q0 -20 -1 -30q-186 -99 -299 -144q-1 26 -1 312q200 -79 301 -138zM0 213l1 25q136 72 305 143q3 -121 1 -314q-216 96 -307 146zM351 26l4 10q197 2 296 -1q-60 -163 -129 -305h-32
q-54 100 -139 296z" />
    <glyph glyph-name="bullet.03" unicode="&#xe00f;" horiz-adv-x="1000" 
d="M335 635q1 -35 1 -118t1 -120q-60 -3 -241 -3q0 39 -0.5 123t-0.5 117q79 3 240 1zM902 635q0 -98 -2 -240q-92 -2 -239 0q-2 81 0 242q164 0 241 -2zM618 350q2 -136 2 -240q-124 -3 -241 0q-2 52 1 241q169 0 238 -1zM335 67q2 -75 0 -241q-70 -3 -238 0q-5 122 0 240
q101 3 238 1zM902 66q0 -148 -3 -241q-86 -1 -238 1q0 203 1 240q82 2 240 0z" />
    <glyph glyph-name="bullet.04" unicode="&#xe010;" horiz-adv-x="1000" 
d="M15 723q209 3 462 1q7 -230 0 -487q-66 -1 -462 -1v487zM82 650q-5 -234 0 -339q92 -4 333 3q1 75 -5 338q-78 2 -112 1.5t-111 -2t-105 -1.5zM163 567q25 1 166 1q2 -48 2 -172q-52 -2 -168 0q-2 89 0 171zM664 567q26 1 168 1q2 -46 2 -173q-107 -4 -170 0v172z
M521 226q167 1 462 -1q3 -182 0 -486q-203 -3 -462 1q-5 234 0 486zM588 154q-6 -206 -3 -340q301 -4 333 -3q3 258 0 338q-234 6 -330 5zM668 64q46 2 168 2q2 -56 2 -172h-170v50v64.5v55.5zM163 62h168q1 -17 1 -174q-112 -2 -169 -1q-2 112 0 175z" />
    <glyph glyph-name="bullet.05" unicode="&#xe011;" horiz-adv-x="916" 
d="M85 262l7 4q478 0 668 4q2 301 -1 420q34 2 74 0q-1 -193 -1 -486l-8 -5q-119 -1 -219.5 -0.5t-226 0t-220.5 -2.5q-3 -102 0 -421h-67l-7 5q1 105 1 265.5v216.5zM200 408v279q90 1 281 1q1 -46 1 -137.5v-141.5q-46 -1 -282 -1zM270 473q122 0 144 1q0 6 -1 64t-2 84
q-112 -2 -145 -3q3 -136 4 -146zM435 -223q-2 174 -2 281q186 0 282 -2q0 -27 0.5 -85.5t0.5 -106.5t-1 -87q-185 -2 -280 0zM505 -159l4 -2q12 1 62.5 2t76.5 3q0 102 -2 146q-23 0 -73 -0.5t-72 -1.5q4 -141 4 -147z" />
    <glyph glyph-name="bullet.06" unicode="&#xe012;" horiz-adv-x="1000" 
d="M759 429v-85h233v-68q-71 -1 -232 -1v-84q159 0 232 -2v-65q-68 -1 -232 -1v-82q29 0 112 -0.5t120 -0.5v-68h-236v-67.5v-92.5v-74q-11 0 -35 0.5t-32 0.5q0 29 -1.5 112t-1.5 113h-80v-225q-20 -1 -67 -1v226h-80q-1 -32 -0.5 -114t0.5 -111h-68q0 27 -0.5 110.5
t-0.5 114.5h-78q-1 -42 -2 -127t-1 -98q-33 -2 -67 0v231q-23 0 -108 0.5t-127 1.5q-1 21 -1 66q32 0 115 1t119 2q-1 30 -1 83q-24 1 -113 0.5t-119 -0.5v65q195 3 232 3v85q-31 1 -114 1h-118q-1 12 -1 67h233v84q-30 0 -112.5 0.5t-119.5 0.5q-1 12 -1 67q35 0 120 0.5
t116 0.5v228h66q1 -30 1.5 -110t0.5 -112h82v70v88v63q21 1 66 1q2 -108 2 -222h79q2 63 2 222h66q0 -162 1 -222h80q0 110 2 222h21h25.5h19.5v-227q32 -1 117 -1.5t119 -0.5q2 -42 2 -66q-138 -2 -235 -2zM686 433q-134 3 -376 3q0 -30 -0.5 -101t-0.5 -144.5t1 -153.5
q252 -4 381 -2q0 99 -2.5 240.5t-2.5 157.5z" />
    <glyph glyph-name="bullet.07" unicode="&#xe013;" horiz-adv-x="1000" 
d="M500 -216l-8 14q252 544 438 905l18 1q3 -271 1 -920q-67 0 -224 -0.5t-225 0.5zM418 -203l-9 -11q-31 -1 -359 -1v889l10 6q247 5 357 0q0 -526 1 -883zM594 -144l5 -8q195 3 277 7q4 215 13 615l-8 1q-169 -347 -287 -615z" />
    <glyph glyph-name="bullet.08" unicode="&#xe014;" horiz-adv-x="1000" 
d="M409 680l9 -9q-1 -355 -1 -886q-79 -2 -357 0l-9 6q-1 107 -1 890q328 0 359 -1zM948 -237h-18q-167 326 -439 905l3.5 7l3.5 7q68 1 226 0.5t225 -0.5q2 -647 -1 -919zM605 616l-5 -7q113 -272 281 -612l8 1q-2 99 -7.5 325.5t-6.5 289.5q-55 3 -270 3z" />
    <glyph glyph-name="bullet.09" unicode="&#xe015;" horiz-adv-x="1000" 
d="M508 -205l-6 -14q-60 -1 -139 -1t-174.5 0.5t-138.5 0.5q-2 647 1 920l18 -1q160 -311 439 -905zM591 -218l-10 8q1 357 1 890q44 0 179 0.5t181 -0.5l7 -6q1 -216 1 -891q-34 0 -168.5 -1t-190.5 0zM397 -156l5 8q-93 219 -281 613h-8q1 -88 3.5 -307.5t4.5 -307.5
q109 -6 276 -6z" />
    <glyph glyph-name="bullet.10" unicode="&#xe016;" horiz-adv-x="1000" 
d="M502 681l7 -13q-279 -596 -439 -905l-18 -1q-1 78 -1 919h451zM582 671l9 9q56 -1 190.5 0t168.5 1q0 -204 -0.5 -500.5t-0.5 -391.5l-9 -7q-291 0 -358 2v887zM401 606l-3 8q-197 3 -273 0q-5 -125 -10 -617l8 -2q207 444 278 611z" />
    <glyph glyph-name="bullet.11" unicode="&#xe017;" horiz-adv-x="860" 
d="M235 -315l-6 4q24 69 69 180q-140 0 -201 1v703q386 2 665 1q3 -304 2 -703h-63h-74.5h-61.5q10 -30 33 -90.5t33 -89.5l-6 -7q-221 -2 -390 1zM431 219l9 1q5 -14 102 -277q5 0 61.5 1t84.5 2q4 276 4 558q-299 -2 -520 -6q-4 -540 -4 -554q141 -3 158 -3
q83 224 105 278z" />
    <glyph glyph-name="bullet.12" unicode="&#xe018;" horiz-adv-x="860" 
d="M658 754l4 -7q-22 -78 -50 -183h148q2 -412 0 -688q-390 -2 -659 0q0 60 -0.5 193t-0.5 255.5t1 238.5q50 1 144 1q-12 34 -32 96.5t-29 88.5l5 5q310 2 469 0zM424 183l10 -1q108 384 138 502q-110 6 -288 4l-4 -6q131 -458 144 -499z" />
    <glyph glyph-name="bullet.13" unicode="&#xe019;" horiz-adv-x="1000" 
d="M89 23l-6 5q-2 259 0 389l4 6q26 -11 86 -35t81 -33q0 148 1 219q88 0 231 0.5t246 0.5t185 -1q2 -199 2 -703q-302 -3 -663 -2q-1 77 -1 219q-87 -36 -166 -65zM583 222l1 -9q-114 -48 -256 -102q0 -50 2 -166q191 -3 518 -3q0 45 -1.5 253.5t-3.5 304.5q-63 0 -236 1.5
t-279 1.5q0 -28 -0.5 -88.5t-0.5 -88.5q72 -28 256 -104z" />
    <glyph glyph-name="bullet.14" unicode="&#xe01a;" horiz-adv-x="1000" 
d="M911 -7l-7 -3q-65 21 -164 48q1 -2 0.5 -79t-0.5 -79q-491 0 -650 2q-3 482 -1 680h650q1 -55 1 -151q31 10 85 29t80 28l6 -5q0 -39 0.5 -140t0.5 -186t-1 -144zM361 228l-1 -10q282 -83 483 -139q4 178 0 288l-5 6q-47 -15 -219.5 -66t-257.5 -79z" />
    <glyph glyph-name="bullet.15" unicode="&#xe01b;" horiz-adv-x="1000" 
d="M0 56v676h1000v-670l-7 1q-35 44 -148 167l-7 -1q-64 -65 -150 -163l-5 -1q-67 96 -161 215h-6q-1 -1 -172 -207l-8 -1q-89 107 -154 176l-10 -1q-73 -83 -165 -191h-7zM0 -268v155q781 -3 1000 1v-156h-1000z" />
    <glyph glyph-name="bullet.16" unicode="&#xe01c;" horiz-adv-x="394" 
d="M207 395h-21q-56 92 -168 297l5 8q291 0 344 -1q-61 -127 -160 -304zM194 334q40 0 66 -29t26 -70q0 -45 -25 -75t-66 -30q-42 0 -70.5 28t-28.5 70q0 46 28.5 76t69.5 30zM184 71l20 -1q57 -93 168 -297l-5 -8q-231 -2 -344 1q85 172 161 305z" />
    <glyph glyph-name="bullet.17" unicode="&#xe01d;" horiz-adv-x="1000" 
d="M660 218v22q69 42 290 169l7 -5q2 -233 0 -348q-157 81 -297 162zM340 241v-19q-171 -105 -291 -171l-7 5q-2 233 0 348q151 -77 298 -163zM590 230q0 -42 -24 -69t-61 -27q-45 0 -70 27t-25 67q0 41 25.5 71t63.5 30q39 0 65 -28t26 -71z" />
    <glyph glyph-name="bullet.18" unicode="&#xe01e;" horiz-adv-x="574" 
d="M0 315v33q160 2 251 1q64 -43 114.5 -88.5t112.5 -111.5q67 0 96 1v-33q-152 -2 -251 -1q-41 23 -122.5 94t-111.5 106q-12 0 -43 -0.5t-46 -0.5z" />
    <glyph glyph-name="bullet.19" unicode="&#xe01f;" horiz-adv-x="574" 
d="M574 348v-33q-56 2 -89 2q-30 -35 -111.5 -106.5t-122.5 -94.5q-98 -1 -251 1v32h96q62 66 112.5 111.5t114.5 88.5q91 1 251 -1z" />
    <glyph glyph-name="bullet.20" unicode="&#xe020;" horiz-adv-x="982" 
d="M48 93l4 3q119 -74 146 -93l-1 -3q-25 -1 -78.5 -0.5t-75.5 0.5q-6 48 5 93zM144 385h3q8 -24 22.5 -70.5t16.5 -53.5q-39 -8 -107 -19q4 28 23.5 73.5t41.5 69.5zM410 538l3 -3q-27 -83 -40 -117q-62 29 -117 59q20 21 68 40.5t86 20.5zM717 473l-2 -4q-34 -19 -103 -52
q-20 48 -47 119q42 -3 85.5 -22t66.5 -41zM833 378l3 3q29 -34 46.5 -79.5t22.5 -77.5q-16 4 -35 9.5t-40 12.5t-33 10q22 80 36 122zM902 156q-75 -48 -177 -106h-5q-12 107 -73 178q-54 62 -152 62q-59 0 -99.5 -16.5t-74.5 -56.5q-60 -71 -69 -177l-5 1q-111 78 -184 133
l1 3q188 34 203 37v2q-58 170 -69 206l2 5q71 -31 203 -96h1q48 132 79 209h6q43 -93 90 -210h2q78 40 195 97l4 -5q-37 -122 -63 -207v-1q145 -41 185 -53v-5zM937 4l-3 -4h-163v4q82 46 156 86q7 -20 10 -86zM322 0l-3 6q0 46 14.5 88t35.5 66q50 56 122 56q81 0 122 -65
q36 -60 39 -149q-33 -2 -178 -2h-152z" />
    <glyph glyph-name="bullet.21" unicode="&#xe021;" horiz-adv-x="886" 
d="M825 96q3 -25 -1.5 -56t-12.5 -39q-73 -1 -301 -1q-349 2 -440 3q-15 23 -15 93q60 -15 301 -22l1 2q-185 175 -268 286q2 22 16.5 46t30.5 32q37 -57 131.5 -164.5t132.5 -138.5h2q0 83 -11 464q14 11 42 18.5t50 3.5q-2 -56 -5 -243t-1 -251l2 -1q52 55 130.5 154
t114.5 157q11 1 30 -24.5t23 -50.5q-32 -51 -109.5 -138.5t-140.5 -149.5l1 -2q65 1 174 8.5t123 13.5z" />
    <glyph glyph-name="bullet.22" unicode="&#xe022;" horiz-adv-x="1000" 
d="M500 484l4 6q242 4 492 2l3 -4q-60 -141 -231 -514h-7q-172 321 -261 510zM255 490l7 1q107 -234 228 -514l-3 -4q-277 -3 -489 0l-5 5q103 211 262 512zM592 434l-3 -3q10 -20 74.5 -144t93.5 -180h4q97 199 152 324l-1 3q-119 6 -320 0zM251 356h-4q-45 -87 -164 -323
l3 -3q101 -3 316 1l1 3q-63 142 -152 322z" />
    <glyph glyph-name="bullet.23" unicode="&#xe023;" horiz-adv-x="1000" 
d="M762 84h-9q-116 185 -244 411l5 9q112 4 476 1l4 -10q-169 -307 -232 -411zM490 -33l-5 -10q-125 -2 -472 1l-6 10q105 190 241 408l8 1q84 -138 234 -410z" />
    <glyph glyph-name="bullet.24" unicode="&#xe024;" horiz-adv-x="672" 
d="M501 -48l-12 1q-166 227 -331 439q-106 -137 -158 -205v99q90 124 155 215l12 -1q291 -386 329 -436h9q19 25 167 222v-99q-15 -21 -74.5 -103t-96.5 -132zM508 271h-11q-16 24 -44.5 66.5t-52 77.5t-45.5 69l2 12q190 2 292 1l4 -12q-57 -87 -145 -214zM306 -26l-3 -11
q-126 -3 -292 -1l-3 11q82 127 140 214l11 1q60 -86 147 -214z" />
    <glyph glyph-name="bullet.25" unicode="&#xe025;" horiz-adv-x="1000" 
d="M743 -24l-6 -5q-83 0 -246 0.5t-245 1.5l-6 4q-1 243 1 741l6 2q557 -260 694 -327l1 -8q-127 -267 -199 -409zM705 30l5 2q63 137 147 332l-2 7q-231 107 -549 247l-4 -4q0 -98 2 -578q58 0 125 -1t148 -2.5t128 -2.5zM674 121l-3 -3q-79 11 -321 50l-2 5
q111 154 214 280l3 1q52 -150 109 -333zM421 199q87 -16 193 -28l1 2q-27 76 -71 186h-3q-109 -141 -121 -157z" />
    <glyph glyph-name="bullet.26" unicode="&#xe026;" horiz-adv-x="1000" 
d="M16 -27l-2 6q226 487 327 694l8 1q235 -112 407 -199l5 -6q0 -83 -0.5 -246t-1.5 -245l-4 -6q-242 -1 -739 1zM116 38l4 -4q99 -1 577 2q0 65 2 198.5t3 202.5l-2 5q-141 65 -330 147l-7 -2q-115 -246 -247 -549zM553 79q-68 49 -282 222l-1 3q139 51 328 117l3 -3
q-22 -193 -43 -337zM366 284v-3q109 -89 159 -129l3 1q13 105 20 208l-2 1q-33 -13 -180 -78z" />
    <glyph glyph-name="bullet.27" unicode="&#xe027;" horiz-adv-x="1000" 
d="M244 -11l-5 6q0 83 0.5 246t1.5 245l4 6q243 1 739 -1l2 -6q-226 -487 -327 -694l-8 -1q-184 87 -407 199zM298 27l2 -5q141 -65 330 -147l7 2q124 266 247 549l-4 4q-99 1 -577 -2q0 -65 -2 -198t-3 -203zM402 47l-3 3q19 164 43 333l5 2q124 -88 279 -222l1 -3
q-120 -46 -325 -113zM632 180v3q-71 62 -156 129l-3 -1q-11 -81 -22 -205l2 -1q97 38 179 75z" />
    <glyph glyph-name="bullet.28" unicode="&#xe028;" horiz-adv-x="1000" 
d="M257 488l6 5q83 0 246 -0.5t245 -1.5l6 -4q1 -243 -1 -741l-6 -2q-557 260 -694 327l-1 8q94 198 199 409zM295 433l-5 -2q-62 -133 -147 -331l2 -7q261 -120 549 -247l4 4q1 100 -2 578q-65 0 -198 2t-203 3zM324 342l3 3q91 -11 324 -49l2 -6q-43 -61 -219 -282l-3 -1
q-76 228 -107 335zM448 99h3q82 102 130 163l-1 3q-77 13 -197 28l-1 -2q46 -139 66 -192z" />
    <glyph glyph-name="bullet.29" unicode="&#xe029;" horiz-adv-x="1000" 
d="M775 566l-1 -13q-18 -22 -213 -258q117 -119 252 -241h9q38 48 107.5 139t70.5 93v-99q-169 -229 -171 -232l-15 1q-110 107 -349 331q148 175 218 264q-45 35 -132 101t-105 80h99q47 -34 123.5 -89t106.5 -77zM478 525l1 -13q-62 -70 -194 -232l1 -12
q165 -159 325 -305h-99q-51 48 -146 134.5t-133 121.5q-2 53 0 105q145 173 149 179l-1 9q-22 19 -148 123q-2 42 0 83q164 -130 245 -193zM710 310q15 18 31.5 38t36.5 44.5t31 37.5q65 -60 99 -92q-15 -18 -48 -59.5t-51 -64.5q-15 14 -32 30.5t-36.5 35.5t-30.5 30z" />
    <glyph glyph-name="bullet.30" unicode="&#xe02a;" horiz-adv-x="1000" 
d="M446 732h99q-170 -135 -228 -181q91 -114 218 -264q-293 -277 -349 -331l-15 -1q-34 45 -89 121t-82 111v99q24 -31 84 -110t94 -122h9q135 121 252 241q-200 243 -213 258l-1 13q21 15 98 73t123 93zM714 268l1 12q-132 162 -194 232l1 13q76 59 245 194q1 -41 0 -83
q-14 -12 -67 -56t-81 -68l-1 -9q4 -6 149 -179q2 -52 0 -105q-38 -35 -133 -121.5t-146 -134.5h-99q164 148 325 305zM290 310q-2 -2 -40.5 -39.5t-58.5 -56.5q-33 42 -99 124q34 32 99 92q45 -54 99 -120z" />
    <glyph glyph-name="bullet.31" unicode="&#xe02b;" horiz-adv-x="1000" 
d="M545 -268h-99q18 14 105 80t132 101q-70 89 -218 264q299 283 349 331l15 1q74 -95 171 -223v-99q-177 224 -178 225h-9q-130 -119 -252 -243q30 -36 100.5 -121.5t112.5 -136.5l1 -13q-136 -97 -230 -166zM286 196l-1 -12q132 -162 194 -232l-1 -13q-81 -62 -245 -194
q-1 41 0 83q14 12 67 56t81 68l1 9q-4 6 -149 179q-2 53 0 105q38 35 133 121.5t146 134.5h99q-162 -147 -325 -305zM710 154q48 48 99 96q30 -36 99 -124q-70 -66 -99 -92q-11 13 -31 37.5t-36.5 44.5t-31.5 38z" />
    <glyph glyph-name="bullet.32" unicode="&#xe02c;" horiz-adv-x="1000" 
d="M545 -268h-99q-71 55 -221 166l1 13q45 53 117 141t96 117q-121 124 -252 243h-9q-37 -46 -101 -127.5t-77 -97.5v99q113 149 171 223l15 -1q66 -63 184 -175t165 -156q-127 -150 -218 -264q58 -46 228 -181zM715 184l-1 12q-160 157 -325 305h99q51 -48 146 -134.5
t133 -121.5q2 -52 0 -105q-145 -173 -149 -179l1 -9q28 -24 81 -68t67 -56q1 -42 0 -83q-149 122 -245 194l-1 13q62 70 194 232zM290 154l-99 -120q-29 26 -99 92q33 42 99 124q51 -48 99 -96z" />
    <glyph glyph-name="bullet.33" unicode="&#xe02d;" horiz-adv-x="1000" 
d="M889 353l1 -15q-67 -133 -212 -379q-49 0 -138.5 -1t-164.5 -1t-147 2q-5 441 0 744l11 4q383 -195 650 -354zM552 467l-7 2q-137 -151 -254 -298l2 -6q162 -49 353 -92l4 5q-41 184 -98 389z" />
    <glyph glyph-name="bullet.34" unicode="&#xe02e;" horiz-adv-x="1000" 
d="M379 621l15 1q154 -78 379 -212q0 -49 1 -138.5t1 -164.5t-2 -147q-440 -5 -744 0l-4 11q195 383 354 650zM258 299l-2 -7q122 -122 282 -267l7 2q48 165 94 370l-6 5q-194 -49 -375 -103z" />
    <glyph glyph-name="bullet.35" unicode="&#xe02f;" horiz-adv-x="1000" 
d="M621 -157l-15 -1q-117 60 -379 212q0 49 -1 138.5t-1 164.5t2 147q441 5 744 0l4 -11q-190 -374 -354 -650zM735 180l2 7q-150 138 -298 254l-6 -2q-31 -146 -63 -369l6 -4q134 38 359 114z" />
    <glyph glyph-name="bullet.36" unicode="&#xe030;" horiz-adv-x="1000" 
d="M111 111l-1 15q74 143 212 379q49 0 138.5 1t164.5 1t147 -2q5 -440 0 -744l-11 -4q-374 190 -650 354zM433 -10l7 -2q113 112 268 281l-2 6q-127 43 -361 107l-4 -5q35 -162 92 -387z" />
    <glyph glyph-name="sterling.fitted" unicode="&#xe031;" horiz-adv-x="524" 
d="M347 644q57 0 92 -15q10 -115 11 -142q-17 -2 -53 -6l-17 94q-2 10 -9 13q-20 7 -51 7q-47 0 -78 -32q-33 -33 -33 -103q0 -23 13 -131q48 0 180 2q2 -24 -2 -51h-172q1 -12 1 -35q0 -105 -61 -187q-9 -10 8 -10q195 0 220 7q13 2 19 21l33 98q16 -3 51 -12
q-6 -29 -20 -86.5t-18 -76.5q-13 0 -129.5 0.5t-194.5 0.5q-20 0 -59.5 -0.5t-60.5 -0.5q0 33 1 48l69 3q10 0 16 6q52 55 52 165q0 17 -4 59h-101q0 17 2 47q14 0 43.5 0.5t44.5 0.5q4 0 4 5q-13 104 -13 116q0 92 61 144q60 51 155 51z" />
    <glyph glyph-name="sterling.oldstyle" unicode="&#xe032;" horiz-adv-x="501" 
d="M393 67l27 75q34 -6 49 -11q-18 -76 -32 -132q-21 0 -122 0.5t-165 0.5q-19 0 -59 -0.5t-63 -0.5q0 32 1 47l66 1q5 0 13 5q40 41 40 121q0 24 -3 39h-91q0 31 1 46q27 1 80 1q4 0 4 5q-11 64 -11 86q0 69 55 114q51 42 145 42q60 0 91 -12q4 -38 10 -118q-9 -1 -26 -2.5
t-25 -2.5l-13 71q-1 8 -9 10q-18 8 -49 8q-49 0 -71 -22q-32 -32 -32 -81q0 -17 10 -97q28 0 86.5 0.5t93.5 0.5q0 -33 -2 -48q-120 0 -172 -1q0 -2 0.5 -9.5t0.5 -11.5q0 -74 -48 -137q-5 -8 6 -8q167 0 199 5q10 3 15 16z" />
    <glyph glyph-name="yen.fitted" unicode="&#xe033;" horiz-adv-x="524" 
d="M232 53v90q-107 0 -154 -1q-1 16 1 44h153v61h-155q0 29 1 43h139q-20 36 -74.5 136t-83.5 155q-4 4 -7 4l-41 3q0 31 1 45h82q26 0 71.5 0.5t63.5 0.5q0 -32 -1 -46l-87 -3q90 -182 136 -276h5q89 180 131 271q1 1 0 3t-3 2l-80 2q-1 15 1 46h116q13 0 39.5 0.5
t35.5 0.5q0 -31 -1 -46l-42 -3q-35 -68 -159 -294q23 0 69 0.5t67 0.5q1 -14 -1 -45h-44.5h-59.5h-50l-1 -61h153q1 -13 -1 -42q-104 0 -152 -1v-95l95 -3q1 -15 -1 -46q-17 0 -61 0.5t-66 0.5q-20 0 -62.5 -0.5t-62.5 -0.5q-1 16 1 46l83 3q6 0 6 5z" />
    <glyph glyph-name="yen.oldstyle" unicode="&#xe034;" horiz-adv-x="470" 
d="M242 247h4q54 87 117 201q2 4 -4 4l-62 2q0 7 0.5 21.5t0.5 20.5h104q11 0 33.5 0.5t31.5 0.5q0 -28 -1 -43l-39 -2q-104 -163 -145 -224q41 1 123 1q2 -19 0 -39q-20 0 -69 0.5t-71 0.5l-1 -45h139q1 -11 -1 -37h-138v-64l87 -2q1 -16 -1 -43h-116q-17 0 -55.5 -0.5
t-59.5 -0.5v44l78 1q5 0 5 5v60q-19 0 -67.5 -0.5t-72.5 -0.5q-1 15 1 38h139v45h-142q0 25 1 37h126q-70 105 -143 220q-3 4 -6 4l-39 2q0 29 1 42h73h117q0 -27 -1 -42l-66 -2q60 -107 119 -205z" />
    <glyph glyph-name="uniF634" unicode="&#xf634;" horiz-adv-x="333" 
d="M165 -57q23 0 41.5 -20t18.5 -46q0 -84 -92 -136q-20 25 -23 30q55 34 55 74q0 24 -41 34q-4 27 9 45.5t32 18.5z" />
    <glyph glyph-name="space_uni0326" unicode="&#xf6c3;" horiz-adv-x="333" 
d="M165 -57q23 0 40.5 -20t17.5 -45q0 -80 -90 -128q-20 22 -22 26q54 33 54 73q0 25 -40 37q-4 24 8.5 40.5t31.5 16.5z" />
    <glyph glyph-name="acute.cap" unicode="&#xf6c9;" horiz-adv-x="333" 
d="M359 850q14 -16 37 -54q-29 -16 -89.5 -50.5t-78.5 -44.5q-15 20 -23 34q46 34 154 115z" />
    <glyph glyph-name="caron.cap" unicode="&#xf6ca;" horiz-adv-x="333" 
d="M273 771q78 52 110 73q15 -13 26 -31q-20 -17 -62.5 -52.5t-56.5 -47.5q-24 0 -35 1q-12 10 -54 44.5t-64 52.5q10 15 25 32q15 -9 33.5 -21t42 -27.5t35.5 -23.5z" />
    <glyph glyph-name="dieresis.cap" unicode="&#xf6cb;" horiz-adv-x="333" 
d="M192 806q21 0 31.5 -14t10.5 -31q0 -16 -11.5 -29t-30.5 -13t-31.5 12t-12.5 31q0 17 11.5 30.5t32.5 13.5zM361 806q21 0 32 -13.5t11 -30.5q0 -18 -12 -30.5t-29 -12.5q-21 0 -33.5 13t-12.5 29q0 17 11 31t33 14z" />
    <glyph glyph-name="grave.cap" unicode="&#xf6ce;" horiz-adv-x="333" 
d="M197 850q25 -18 78.5 -58t75.5 -56q-7 -13 -23 -35q-29 16 -90 51t-79 45q19 31 38 53z" />
    <glyph glyph-name="hungarumlaut.cap" unicode="&#xf6cf;" horiz-adv-x="333" 
d="M264 862q19 -18 36 -43q-89 -64 -144 -102q-4 5 -12.5 15.5t-12.5 15.5q22 19 67.5 58t65.5 56zM386 858q16 -15 36 -42q-78 -55 -143 -104q-15 17 -25 31q109 95 132 115z" />
    <glyph glyph-name="macron.cap" unicode="&#xf6d0;" horiz-adv-x="333" 
d="M390 785v-49q-33 0 -110.5 0.5t-115.5 0.5v46q72 0 226 2z" />
    <glyph glyph-name="R_p" unicode="&#xf6dd;" horiz-adv-x="1050" 
d="M123 585l-69 2q0 31 1 47q26 0 91.5 0.5t98.5 0.5q76 0 131 -15q51 -13 86.5 -54t35.5 -91q0 -62 -37.5 -108t-98.5 -69v-5q21 -9 41.5 -33t30 -40.5t39.5 -74.5q8 -14 12 -22q24 -46 35 -59.5t20 -13.5l86 -1v311h-64q0 7 0.5 20.5t0.5 19.5q8 2 41 10t58 14t29 6
q2 0 2 -3q1 -6 2.5 -16.5t2.5 -19t1 -15.5l5 -1q67 36 94 45.5t56 9.5q71 0 114.5 -59.5t42.5 -131.5q0 -69 -24 -123q-29 -63 -79 -97q-43 -29 -106 -29q-51 0 -97 23l-3 -2q-2 -130 -1 -202l93 -2q0 -16 -2 -44q-86 0 -129 -1q-70 0 -100 -1q0 30 1 44l58 4q3 0 3 5v188
q-62 -2 -91 -2q-10 0 -34 -0.5t-31 -0.5q-19 25 -66.5 117.5t-61.5 113.5q-18 23 -35.5 31.5t-52.5 8.5q-49 0 -53 -1v-219l83 -4q1 -15 -1 -46h-120q-76 0 -109 -1q0 8 0.5 24t0.5 23l64 3q4 0 4 4zM203 584l-2 -265q5 -2 48 -2q86 0 126.5 42t40.5 96q0 65 -43.5 99.5
t-117.5 34.5q-42 0 -52 -5zM826 369q-56 0 -122 -47q-2 -150 -2 -233q0 -17 31 -34t66 -17q48 0 82 34q48 50 48 142q0 65 -22 105q-29 50 -81 50z" />
    <glyph glyph-name="cent.inferior" unicode="&#xf6df;" 
d="M167 -126l1 60q-52 2 -87 28.5t-35 74.5q0 50 33.5 86t90.5 42v57q18 3 40 3l-1 -57h5q39 0 74 -16q0 -11 -7.5 -25t-15.5 -19q-31 21 -57 22l-3 -157q30 1 76 20q3 -7 10 -32q-48 -23 -86 -26v-59q-7 0 -19 -1t-19 -1zM168 -27l2 155q-29 -3 -48.5 -27t-19.5 -54
q0 -42 29 -62q11 -8 37 -12z" />
    <glyph glyph-name="cent.superior" unicode="&#xf6e0;" 
d="M167 414l1 60q-51 2 -86.5 28.5t-35.5 74.5q0 50 33.5 86t90.5 42v57q12 2 40 2l-1 -56h5q39 0 74 -16q0 -11 -7.5 -25t-15.5 -19q-34 21 -57 21l-3 -157q32 1 76 21q4 -10 10 -32q-48 -23 -86 -26v-60q-7 0 -19 -0.5t-19 -0.5zM168 513l2 155q-29 -3 -48.5 -27
t-19.5 -54q0 -44 29 -62q11 -8 37 -12z" />
    <glyph glyph-name="comma.inferior" unicode="&#xf6e1;" horiz-adv-x="229" 
d="M166 -95q0 -79 -90 -131q-10 11 -23 28q54 34 54 74q0 26 -41 37q-3 24 9.5 41.5t31.5 17.5q23 0 41 -20.5t18 -46.5z" />
    <glyph glyph-name="comma.superior" unicode="&#xf6e2;" horiz-adv-x="229" 
d="M166 444q0 -79 -90 -130q-10 11 -23 28q54 34 54 73q0 27 -41 38q-3 24 9.5 41.5t31.5 17.5q23 0 41 -20.5t18 -47.5z" />
    <glyph glyph-name="dollar.inferior" unicode="&#xf6e3;" 
d="M191 164l-1 -89q98 -22 98 -81q0 -40 -30 -65q-32 -24 -79 -25l-1 -54q-6 -1 -18 -1.5t-18 -0.5l1 55q-66 0 -109 25q2 9 9.5 23t14.5 19q42 -29 85 -30l2 97q-47 12 -72.5 30.5t-25.5 50.5q0 37 36 60q26 19 72 22l1 55q18 3 38 3l-2 -57q57 -3 87 -19q0 -8 -8 -23
t-15 -19q-34 23 -65 24zM153 83l1 81q-25 0 -39 -12q-13 -13 -13 -28t11.5 -24.5t39.5 -16.5zM182 29l-2 -89q21 1 37 11q17 12 17 34q0 30 -52 44z" />
    <glyph glyph-name="dollar.superior" unicode="&#xf6e4;" 
d="M191 704l-1 -89q98 -24 98 -81q0 -40 -30 -65q-31 -23 -79 -26l-1 -53q-22 -2 -36 -2l1 55q-65 0 -109 24q1 9 9 23t15 20q42 -29 85 -30l2 97q-98 22 -98 81q0 37 36 60q29 19 72 22l1 55q18 3 38 3l-2 -57q53 -3 87 -19q0 -9 -7.5 -23.5t-15.5 -19.5q-33 24 -65 25z
M153 623l1 81q-26 0 -39 -13q-13 -11 -13 -27t11.5 -25t39.5 -16zM182 569l-2 -89q23 1 37 11q17 12 17 34q0 30 -52 44z" />
    <glyph glyph-name="hyphen.inferior" unicode="&#xf6e5;" horiz-adv-x="256" 
d="M34 73q63 0 93 1q64 0 96 1q0 -20 -2 -48h-95h-93q0 30 1 46z" />
    <glyph glyph-name="hyphen.superior" unicode="&#xf6e6;" horiz-adv-x="256" 
d="M34 613h93q34 1 96 1q0 -19 -2 -47h-95h-93q0 30 1 46z" />
    <glyph glyph-name="period.inferior" unicode="&#xf6e7;" horiz-adv-x="229" 
d="M114 -29q22 0 32.5 -14t10.5 -30q0 -18 -12 -31t-31 -13t-31.5 12t-12.5 31q0 17 12 31t32 14z" />
    <glyph glyph-name="period.superior" unicode="&#xf6e8;" horiz-adv-x="229" 
d="M114 511q22 0 32.5 -14t10.5 -31t-12 -30t-31 -13t-31.5 12t-12.5 31q0 17 12 31t32 14z" />
    <glyph glyph-name="b.superior" unicode="&#xf6ea;" horiz-adv-x="389" 
d="M51 324q5 48 5 86v380l-56 2v35q15 2 43 6.5t49 8.5t25 4q3 0 3 -2q0 -32 -0.5 -112.5t-0.5 -120.5l2 -1q47 24 67 30.5t43 6.5q34 0 62 -24.5t38 -55.5q21 -54 13 -102q-9 -75 -59 -114q-35 -30 -98 -30q-48 0 -80 22l-17 -25q-21 2 -39 6zM210 598q-44 0 -91 -33
q-1 -54 -1 -169q0 -13 22 -24.5t49 -11.5q36 0 61 26q35 33 35 97q0 56 -23 88q-22 27 -52 27z" />
    <glyph glyph-name="d.superior" unicode="&#xf6eb;" horiz-adv-x="408" 
d="M276 353h-4q-65 -33 -100 -33q-57 0 -92 36q-43 41 -43 113q0 75 49 130q41 47 112 47q35 0 70 -13l2 1q0 28 -0.5 79t-0.5 76l-62 2v36q17 2 47 6.5t52 8t26 3.5q2 0 2 -3q0 -64 -1 -226t-1 -234q0 -15 9 -15l52 1v-36q-51 -12 -95 -12q-12 9 -22 33zM200 603
q-43 0 -65 -28q-30 -35 -30 -100q0 -54 24 -84q23 -27 58 -27q40 0 78 27q4 2 4 10v185q-30 17 -69 17z" />
    <glyph glyph-name="e.superior" unicode="&#xf6ec;" horiz-adv-x="350" 
d="M37 470q0 95 63 144q39 33 97 33q57 0 88 -39q29 -37 29 -105q0 -4 -9.5 -13t-13.5 -9q-48 -2 -187 -2q-2 -56 23 -85q27 -29 75 -29q40 0 97 24q6 -15 10 -37q-61 -31 -121 -31q-72 0 -111.5 41t-39.5 108zM189 607q-34 0 -52 -20q-28 -31 -31 -70q63 0 135 2q9 1 9 9
q0 36 -18 59q-17 20 -43 20z" />
    <glyph glyph-name="i.superior" unicode="&#xf6ed;" horiz-adv-x="209" 
d="M106 798q20 0 30 -12.5t10 -28.5q0 -19 -12 -31t-30 -12t-30.5 12.5t-12.5 29.5t12.5 29.5t32.5 12.5zM23 327v36l52 3q3 0 3 3v222l-60 2q0 24 1 35q15 2 44 6.5t51 8.5t26 4q1 0 1 -3q0 -41 -0.5 -140t-0.5 -138l54 -2q0 -25 -1 -37h-87h-83z" />
    <glyph glyph-name="l.superior" unicode="&#xf6ee;" horiz-adv-x="201" 
d="M11 327q0 25 1 37l52 2q2 0 2 4q1 127 1 421l-62 1q0 25 1 36q16 1 45 5.5t51.5 8t25.5 3.5t3 -3q-1 -73 -2 -243t-1 -233l60 -2v-37h-91h-86z" />
    <glyph glyph-name="m.superior" unicode="&#xf6ef;" horiz-adv-x="614" 
d="M29 327q0 26 1 38l46 1q3 2 3 4v221l-59 1v35q15 2 42 6.5t48 8.5t23 4t2 -2q2 -29 4 -40l3 -1q46 29 67.5 36.5t43.5 7.5q50 0 79 -50h2q48 32 70 40.5t47 8.5q45 0 79 -49q15 -24 15 -56q0 -27 -1 -87t-1 -88l50 -1q0 -26 -1 -38h-82q-13 0 -37 -0.5t-35 -0.5v38l42 2
q2 0 2 4q1 47 1 141q0 39 -9 58q-13 29 -49 29q-34 0 -82 -37q1 -63 -1 -194l50 -2q0 -25 -1 -38h-84h-69v37l42 3q2 0 2 2q0 25 0.5 75t0.5 71q0 42 -9 60q-14 24 -47 24q-36 0 -86 -38q0 -31 -0.5 -97t-0.5 -97l52 -2q0 -26 -1 -38h-83h-79z" />
    <glyph glyph-name="r.superior" unicode="&#xf6f1;" horiz-adv-x="289" 
d="M77 592l-57 1v34q15 2 42 7t47 8.5t23 3.5q1 0 1 -2q0 -7 0.5 -22.5t1 -37.5t0.5 -37h3q30 59 52.5 79.5t47.5 20.5q27 0 45 -8q0 -12 -7 -31.5t-14 -26.5q-2 0 -9 2t-15 3t-14 1q-13 0 -25 -12q-22 -17 -48 -68q-13 -23 -13 -67q0 -13 -0.5 -38t-0.5 -36l73 -2
q0 -25 -1 -37h-101h-81q0 24 1 36l46 3q2 0 2 2q1 71 1 224z" />
    <glyph glyph-name="s.superior" unicode="&#xf6f2;" horiz-adv-x="314" 
d="M75 431l10 -48q1 -6 6 -9q22 -15 50 -15q33 0 52 11q21 11 21 38q0 26 -15 35t-69 25q-45 13 -64.5 33t-19.5 51q0 48 47 75q34 20 91 20q50 0 75 -14q6 -54 8 -85q-1 0 -41 -6l-11 47q-1 6 -5 8q-13 10 -42 10q-33 0 -50 -17q-12 -12 -12 -30q0 -21 13.5 -30t61.5 -22
q47 -14 70.5 -33t23.5 -58q0 -49 -47 -78q-30 -18 -92 -18q-57 0 -92 13q-2 15 -5.5 45t-5.5 45q14 3 42 7z" />
    <glyph glyph-name="t.superior" unicode="&#xf6f3;" horiz-adv-x="283" 
d="M73 397q0 22 0.5 65t0.5 50q0 12 0.5 43t0.5 39h-51q0 28 1 41q8 0 24 0.5t23 0.5q5 2 5 6q2 40 2 67q44 26 58 26q2 0 2 -2q0 -36 -2 -96h121q0 -15 -2 -43h-119q-1 -7 -1 -79v-106q0 -22 13.5 -33t33.5 -11q31 0 74 12q3 -10 7 -37q-57 -19 -110 -19q-40 0 -60 18
q-21 18 -21 58z" />
    <glyph glyph-name="breve.sc" unicode="&#xf6f4;" horiz-adv-x="333" 
d="M166 564q-44 0 -76 28t-41 69q9 3 40 13q28 -58 79 -58t76 53q24 -4 41 -9q-8 -34 -41.5 -65t-77.5 -31z" />
    <glyph glyph-name="caron.sc" unicode="&#xf6f5;" horiz-adv-x="333" 
d="M167 629q15 15 47.5 47t46.5 45q10 -8 29 -27q-17 -20 -54.5 -64.5t-50.5 -59.5h-37q-5 6 -44 53t-60 71q14 15 30 27l46 -46t47 -46z" />
    <glyph glyph-name="circumflex.sc" unicode="&#xf6f6;" horiz-adv-x="333" 
d="M167 647q-15 -14 -47 -46.5t-46 -45.5q-15 11 -30 26q14 17 50.5 60.5t54.5 63.5h37q16 -18 52.5 -62.5t51.5 -61.5q-1 -1 -12 -11t-17 -15q-14 13 -46.5 45t-47.5 47z" />
    <glyph glyph-name="dotaccent.sc" unicode="&#xf6f7;" horiz-adv-x="333" 
d="M170 682q26 0 38 -16t12 -36q0 -23 -15 -38.5t-38 -15.5t-38.5 15.5t-15.5 37.5t15.5 37.5t41.5 15.5z" />
    <glyph glyph-name="hungarumlaut.sc" unicode="&#xf6f8;" horiz-adv-x="333" 
d="M204 699q13 -14 32 -46q-9 -5 -151 -86q-5 6 -22 33q105 73 141 99zM357 695q10 -11 31 -46q-74 -42 -150 -87q-8 11 -22 33q22 15 71 50z" />
    <glyph glyph-name="lslash.sc" unicode="&#xf6f9;" horiz-adv-x="482" 
d="M197 62q0 -11 5 -13.5t30 -2.5q102 0 132 5q10 1 15 16l31 85q21 -4 51 -11q-17 -80 -33 -141h-264h-104q0 28 1 44l56 2q3 0 3 4l1 137q-9 -4 -31.5 -15.5t-38.5 -20.5q-12 21 -20 42q20 11 48.5 25.5t41.5 21.5v209l-61 3q-1 17 1 44h104h111q0 -6 -0.5 -21t-0.5 -23
l-74 -2q-3 0 -3 -3v-170q18 9 123 63q9 -15 20 -46q-26 -12 -48 -23.5t-49 -25l-47 -23.5v-160z" />
    <glyph glyph-name="oe.sc" unicode="&#xf6fa;" horiz-adv-x="832" 
d="M529 233l-1 -172q0 -10 7 -13t38 -3q100 0 126 6q9 1 15 16l26 68q34 -6 50 -10q-10 -55 -28 -125h-255h-53v61q-61 -71 -170 -71q-101 0 -165 61q-75 70 -75 191q0 70 31 129.5t82 93.5q62 41 148 41q96 0 149 -61l1 51h45h178q17 0 42 0.5t38 0.5q3 -41 7 -122
q-17 -3 -51 -7l-14 65q-2 13 -20 14q-40 4 -127 4h-23l-1 -174q84 0 127 2q17 0 20 15l3 35q26 2 50 0q0 -13 -0.5 -38t-0.5 -38v-74q-17 -1 -51 -1l-2 37q-2 16 -21 17q-37 1 -125 1zM302 38q50 0 90.5 24t60.5 71v236q-18 41 -56.5 65.5t-90.5 24.5q-67 0 -111 -41
q-66 -62 -66 -167q0 -107 52 -162q48 -51 121 -51z" />
    <glyph glyph-name="ogonek.sc" unicode="&#xf6fb;" horiz-adv-x="333" 
d="M262 5h42q-62 -48 -62 -99q0 -22 12 -34t32 -12q18 0 37 7q6 -15 9 -32q-29 -17 -63 -17q-33 0 -58.5 20t-25.5 53q0 60 77 114z" />
    <glyph glyph-name="ring.sc" unicode="&#xf6fc;" horiz-adv-x="333" 
d="M168 736q44 0 70 -23.5t26 -60.5q0 -36 -27.5 -61t-69.5 -25q-41 0 -69.5 23t-28.5 62q0 33 28.5 59t70.5 26zM168 700q-23 0 -37.5 -14.5t-14.5 -35.5t15 -34.5t37 -13.5q24 0 37 14t13 35q0 22 -13 35.5t-37 13.5z" />
    <glyph glyph-name="scaron.sc" unicode="&#xf6fd;" horiz-adv-x="446" 
d="M99 145l15 -80q1 -7 7 -10q26 -17 75 -17q68 0 97 29q24 23 24 58q0 45 -42 70q-16 8 -81 35q-62 25 -95 56.5t-33 80.5q0 61 53 101q51 38 146 38q71 0 109 -19q4 -38 10 -120q-26 -3 -54 -6l-14 73q-3 7 -5 9q-22 15 -59 15q-54 0 -82 -22q-29 -24 -29 -57
q0 -36 22 -52.5t94 -44.5q69 -27 102 -58.5t33 -83.5q0 -65 -48 -105q-51 -45 -159 -45q-76 0 -129 20q-2 22 -5.5 65.5t-5.5 62.5q33 6 54 7zM235 629q15 15 47.5 47t46.5 45q10 -8 29 -27q-17 -20 -54.5 -64.5t-50.5 -59.5h-37q-5 6 -44 53t-60 71q12 14 29 27
q17 -15 50.5 -49t43.5 -43z" />
    <glyph glyph-name="tilde.sc" unicode="&#xf6fe;" horiz-adv-x="333" 
d="M225 569q-24 0 -63 29q-4 3 -10.5 8t-10.5 7t-9.5 5t-10.5 4.5t-11 1.5q-23 0 -33 -50q-25 0 -37 1q8 99 73 99q11 0 21.5 -3.5t14.5 -6t16.5 -11.5t13.5 -9q4 -2 9.5 -6.5t9 -7t8 -5.5t9.5 -4t10 -1q25 0 32 51h36q-4 -102 -68 -102z" />
    <glyph glyph-name="zcaron.sc" unicode="&#xf6ff;" horiz-adv-x="505" 
d="M417 156q24 -2 55 -10q-15 -72 -35 -147q-2 0 -94.5 0.5t-144.5 0.5h-150l-7 17.5l-7 17.5q79 94 328 408l-1 4q-169 1 -207 -3q-12 -3 -17 -18l-26 -81q-23 3 -54 8q11 67 26 144q6 0 33 -0.5t43 -0.5h287q9 -19 14 -43q-263 -327 -326 -401l1 -2q204 -1 233 7
q16 3 22 20zM258 629q31 30 93 92q11 -8 30 -27q-17 -20 -54.5 -64.5t-50.5 -59.5h-37q-5 6 -44 53t-60 71q12 14 29 27q14 -14 47 -46t47 -46z" />
    <glyph glyph-name="exclam.sc" unicode="&#xf721;" horiz-adv-x="266" 
d="M179 506q3 0 3 -2q-2 -40 -10.5 -168.5t-11.5 -185.5q-15 -3 -52 -6q-1 21 -5 81.5t-5 82.5q-2 26 -7 93t-6 91q42 14 94 14zM135 94q25 0 38.5 -16.5t13.5 -37.5q0 -19 -15 -34t-37 -15q-23 0 -38.5 14t-15.5 35t15 37.5t39 16.5z" />
    <glyph glyph-name="dollar.oldstyle" unicode="&#xf724;" horiz-adv-x="414" 
d="M361 425q-1 -12 -11 -30.5t-20 -25.5q-51 33 -91 35l-4 -148q136 -30 136 -123q0 -58 -39 -92q-42 -37 -111 -41l-1 -79q-14 -2 -44 -4l1 82q-94 0 -151 32q5 28 32 55q58 -39 120 -41l3 161q-66 16 -102 44t-36 77q0 52 49 90q38 27 102 32l1 80q25 5 47 5l-2 -84
q72 0 121 -25zM108 334q0 -50 83 -68l3 138q-41 -2 -63 -22q-23 -21 -23 -48zM307 119q0 31 -20 49t-62 29l-3 -152q34 1 58 18q27 22 27 56z" />
    <glyph glyph-name="ampersand.sc" unicode="&#xf726;" horiz-adv-x="632" 
d="M424 303h96h78q2 -21 0 -43l-47 -2q-26 -99 -85 -158q7 -8 22.5 -24t21.5 -22q9 -10 29 -10l61 -1q1 -16 -1 -44q-73 -4 -126 -5q-7 8 -56 63q-81 -67 -193 -67q-79 0 -125 32q-59 39 -59 105q0 47 32.5 86t87.5 61v3q-72 49 -72 109q0 53 45 87q44 33 113 33
q67 0 104 -28q40 -29 40 -76q0 -84 -112 -129v-4q19 -12 41.5 -30.5t38 -33.5t40.5 -39t35 -33q17 19 32 55.5t16 63.5q0 6 -3 6l-55 2q0 7 0.5 21.5t0.5 21.5zM160 391q0 -28 18 -48t56 -45q86 33 86 96q0 28 -20 48t-58 20t-60 -19t-22 -52zM243 39q88 0 142 50
q-95 100 -183 159q-83 -38 -83 -111q0 -45 37 -72q32 -26 87 -26z" />
    <glyph glyph-name="zero.oldstyle" unicode="&#xf730;" horiz-adv-x="539" 
d="M261 -10q-83 0 -143 50q-74 60 -74 170q0 51 21.5 100.5t59.5 81.5q64 55 155 55q80 0 136 -44q79 -62 79 -173q0 -125 -85 -191q-60 -49 -149 -49zM264 46q60 0 103 38q51 49 51 139q0 85 -55 134q-38 34 -92 34q-52 0 -92 -37q-57 -52 -57 -141q0 -82 51 -130
q40 -37 91 -37z" />
    <glyph glyph-name="one.oldstyle" unicode="&#xf731;" horiz-adv-x="429" 
d="M54 45l143 3q4 0 4 5v302q-27 -7 -76 -21.5t-68 -19.5q-4 14 -12 44q35 13 96 37t97 38t39 14t3 -4q-2 -232 -2 -394l129 -4q1 -16 -1 -45h-169q-30 0 -91 -0.5t-93 -0.5q-1 15 1 46z" />
    <glyph glyph-name="two.oldstyle" unicode="&#xf732;" horiz-adv-x="440" 
d="M134 59l1 -5q22 0 127.5 0.5t143.5 0.5q0 -39 -3 -55h-239h-126q-9 27 -13 51q85 42 137 73q71 43 104.5 84t33.5 89q0 39 -22 63q-29 30 -77 30q-76 0 -133 -71q-5 3 -36 32q78 96 195 96q74 0 119 -45q38 -39 38 -95q0 -64 -40 -114t-124 -96q-37 -19 -86 -38z" />
    <glyph glyph-name="three.oldstyle" unicode="&#xf733;" horiz-adv-x="428" 
d="M243 163v-6q69 -3 108 -44t39 -96q0 -81 -62 -132q-67 -59 -186 -59q-84 0 -138 28q8 27 17 47q54 -23 117 -23q86 0 132 42q38 35 38 90t-41.5 84t-114.5 29h-53q0 8 -0.5 24.5t-0.5 23.5q90 1 138 37.5t48 88.5q0 41 -22 66q-26 28 -73 28q-41 0 -76 -19.5t-58 -48.5
q-17 16 -33 33q25 34 72 62.5t119 28.5q70 0 115 -43q35 -37 35 -91q0 -55 -34.5 -94.5t-85.5 -55.5z" />
    <glyph glyph-name="four.oldstyle" unicode="&#xf734;" horiz-adv-x="496" 
d="M309 -180q1 56 1 183q-15 0 -135 -0.5t-134 -0.5q-16 38 -23 58q10 13 56 77t76 104q115 148 160 200q51 0 76 -2q-1 -65 -2 -195t-1 -189q23 0 59 -0.5t46 -0.5q0 -34 -2 -50h-103q-1 -29 -1.5 -89t-0.5 -91q-29 -4 -72 -4zM313 363h-5q-5 -7 -117 -159
q-48 -64 -99 -140q-4 -7 3 -7q25 0 117 -1t98 -1z" />
    <glyph glyph-name="five.oldstyle" unicode="&#xf735;" horiz-adv-x="439" 
d="M60 161l-7 6q11 86 37 269q12 0 67.5 -0.5t74.5 -0.5h153q0 -2 -1 -23.5t-2 -33.5q-40 0 -121 -0.5t-118 -0.5q-14 -80 -26 -156q19 1 71 1q100 0 154.5 -50.5t54.5 -123.5q0 -102 -76 -165q-71 -58 -189 -58q-68 0 -116 24q8 29 15 47q48 -18 104 -18q88 0 136 42
q47 44 47 114q0 61 -43 96t-125 35q-6 0 -90 -4z" />
    <glyph glyph-name="six.oldstyle" unicode="&#xf736;" horiz-adv-x="494" 
d="M127 315l6 -1q58 70 150 70q73 0 118 -47q23 -23 36 -58.5t13 -68.5q0 -107 -68 -171q-52 -49 -141 -49q-84 0 -138 56q-26 28 -42 74.5t-16 95.5q0 181 124 307q73 73 189 108q15 -24 21 -44q-93 -30 -153 -92q-70 -72 -99 -180zM249 38q50 0 80 30q42 42 42 123
q0 59 -32 103q-27 36 -78 36q-89 0 -136 -87q-1 -11 -1 -33q2 -83 41 -132q33 -40 84 -40z" />
    <glyph glyph-name="seven.oldstyle" unicode="&#xf737;" horiz-adv-x="429" 
d="M320 372l-2 5q-190 0 -304 -3q2 35 6 62q30 0 112.5 -0.5t125.5 -0.5h133q9 -23 16 -52q-25 -46 -53.5 -104t-60.5 -127.5t-52.5 -116t-53 -120.5t-39.5 -89q-54 18 -61 21q29 63 106 239.5t127 285.5z" />
    <glyph glyph-name="eight.oldstyle" unicode="&#xf738;" horiz-adv-x="501" 
d="M319 328v-5q69 -20 104.5 -62.5t35.5 -95.5q0 -80 -63 -129q-57 -46 -154 -46q-87 0 -140 40q-60 44 -60 115q0 55 36.5 101t102.5 69v5q-108 42 -108 137q0 56 45 99q51 53 145 53q85 0 132 -45q38 -38 38 -90q0 -99 -114 -146zM145 467q0 -46 28.5 -72t91.5 -49
q97 41 97 121q0 40 -24 66q-27 31 -83 31q-58 0 -87 -35q-23 -28 -23 -62zM383 152q0 54 -36 85t-114 56q-49 -16 -82 -54.5t-33 -86.5q0 -53 36 -84q35 -32 94 -32q65 0 100 32q35 33 35 84z" />
    <glyph glyph-name="nine.oldstyle" unicode="&#xf739;" horiz-adv-x="489" 
d="M365 122l-6 3q-53 -70 -143 -70q-75 0 -121 44q-56 53 -56 137q0 97 69 158q61 53 141 53q81 0 132 -54q63 -68 63 -191q0 -93 -35 -173t-90 -130q-78 -69 -185 -93q-11 18 -22 48q98 23 157 81q71 68 96 187zM237 399q-47 0 -79 -34q-40 -43 -40 -119q0 -67 35 -105
q29 -34 77 -34q35 0 72 21.5t62 59.5v28q0 89 -36 136q-37 47 -91 47z" />
    <glyph glyph-name="question.sc" unicode="&#xf73f;" horiz-adv-x="411" 
d="M370 386q0 -52 -34 -90t-102 -74q-21 -10 -21 -26q0 -19 16 -58q-19 -8 -54 -15q-12 14 -25 46.5t-14 52.5q84 45 117 76.5t33 78.5q0 39 -24.5 59t-65.5 20q-49 0 -79 -23q-2 -1 -5 -9l-14 -69q-20 1 -55 5q6 79 8 110q63 36 157 36q77 0 119.5 -33.5t42.5 -86.5z
M200 87q24 0 38 -14.5t14 -35.5q0 -18 -15 -32t-36 -14q-23 0 -38.5 13.5t-15.5 32.5t15 34.5t38 15.5z" />
    <glyph glyph-name="grave.sc" unicode="&#xf760;" horiz-adv-x="333" 
d="M104 703q9 -6 70 -45t89 -57q-5 -11 -21 -36q-153 76 -171 85q14 26 33 53z" />
    <glyph glyph-name="a.sc" unicode="&#xf761;" horiz-adv-x="532" 
d="M2 43l44 3q4 2 5 4q148 354 191 453q7 0 27 0.5t35 0.5q23 -58 86.5 -221t93.5 -237l49 -2q0 -30 -1 -44h-81h-116v43l66 3q3 0 1 5q-12 35 -36 95q-1 3 -6 3h-203q-12 -31 -39 -103l76 -2q0 -8 -0.5 -22.5t-0.5 -21.5h-120h-72q0 28 1 43zM267 419h-6q-8 -22 -40 -102
t-46 -119q-2 -4 1 -4h173q-37 102 -82 225z" />
    <glyph glyph-name="b.sc" unicode="&#xf762;" horiz-adv-x="517" 
d="M47 0q0 28 1 43l59 3q5 0 5 5v399l-64 2q0 30 1 44q25 0 86 0.5t85 0.5q112 0 158 -20q28 -13 46 -38.5t18 -54.5q0 -41 -27.5 -71t-71.5 -44v-6q56 -6 93 -39.5t37 -79.5q0 -65 -55 -104.5t-147 -39.5h-114h-110zM189 450l-1 -169q7 -1 41 -1q58 0 97 23t39 65
q0 40 -32 62.5t-95 22.5q-36 0 -49 -3zM188 234l-1 -162q0 -17 15.5 -22.5t55.5 -5.5q58 0 96.5 23t38.5 73q0 41 -37 68t-118 27q-41 0 -50 -1z" />
    <glyph glyph-name="c.sc" unicode="&#xf763;" horiz-adv-x="518" 
d="M407 345l-13 85q-2 10 -7 12q-24 12 -63 12q-77 0 -128 -47q-68 -66 -68 -169q0 -91 49 -144q47 -50 135 -50q59 0 145 30q7 -22 12 -49q-103 -35 -173 -35q-102 0 -165 47q-40 30 -63.5 77.5t-23.5 105.5q0 142 107 227q76 59 192 59q73 0 110 -16q6 -68 9 -139
q-20 -3 -55 -6z" />
    <glyph glyph-name="d.sc" unicode="&#xf764;" horiz-adv-x="592" 
d="M46 -1q0 29 1 45l57 2q5 0 5 4v399l-63 2q0 9 0.5 23.5t0.5 21.5q24 0 85.5 0.5t95.5 0.5q138 0 208 -40q51 -28 81.5 -80t30.5 -114q0 -67 -26.5 -123.5t-75.5 -90.5q-71 -50 -192 -50q-19 0 -58 0.5t-48 0.5q-14 0 -48 -0.5t-54 -0.5zM187 449l-2 -377q0 -16 11 -22
t49 -5q105 0 157 45q28 25 45.5 66.5t17.5 83.5q0 59 -16 98t-54 70q-56 44 -162 44q-19 0 -46 -3z" />
    <glyph glyph-name="e.sc" unicode="&#xf765;" horiz-adv-x="489" 
d="M46 0q0 28 1 44l58 2q3 0 3 3v401l-61 2v44h105h183q18 0 43 0.5t38 0.5q4 -58 6 -122q-17 -3 -51 -7l-13 64q-3 13 -20 14q-40 4 -129 4h-23l-1 -172q86 0 129 1q19 0 20 16l3 35h50q0 -13 -0.5 -39.5t-0.5 -38.5v-73q-32 -2 -51 -2l-2 37q-1 10 -5.5 13.5t-15.5 3.5
q-37 1 -127 1l-1 -170q0 -10 7 -13t38 -3q100 0 128 6q9 1 15 16l25 66q17 -2 50 -9q-9 -51 -28 -125h-265h-108z" />
    </font>
</defs>
</svg>
