<svg xmlns="http://www.w3.org/2000/svg" width="155" height="37" viewBox="0 0 155 37">
  <path fill="#000000" fill-rule="evenodd" d="M21.5778424,35.7961886 C23.2800388,35.7961886 24.3814599,35.9463824 25.3326873,36.1466408 C26.2338501,36.2968346 26.9347545,36.497093 27.8359173,36.497093 C30.1388889,36.497093 32.9425065,31.4906331 32.9425065,27.5855943 C32.9425065,25.6831395 32.0914083,23.2800388 29.8385013,23.2800388 C26.6343669,23.2800388 29.5381137,30.2390181 21.0271318,30.2390181 C17.4725452,30.2390181 16.87177,28.4867571 16.87177,24.8821059 L16.87177,8.96156331 C16.87177,4.25549096 20.8268734,6.45833333 20.8268734,3.55458656 C20.8268734,1.85239018 20.3262274,0.150193798 10.3133075,0.150193798 C7.86014212,0.150193798 1.14352972e-14,0.350452196 1.14352972e-14,4.00516796 C1.14352972e-14,6.85885013 4.40568475,4.65600775 4.50581395,8.86143411 C4.60594315,11.6650517 4.85626615,14.4686693 4.85626615,17.4725452 C4.85626615,20.4263566 4.85626615,23.630491 4.75613695,27.2852067 C4.60594315,33.0927003 0.700904393,30.4893411 0.700904393,33.5933463 C0.700904393,35.8963178 3.25419897,35.7961886 4.85626615,35.7961886 L21.5778424,35.7961886 Z M52.5678295,36.497093 C42.004199,36.497093 33.7936047,28.7871447 33.7936047,18.123385 C33.7936047,7.50968992 42.254522,0 53.1686047,0 C66.9864341,0 72.2932817,12.1656977 72.2932817,18.624031 C72.2932817,29.3879199 62.7810078,36.497093 52.5678295,36.497093 Z M59.4266796,23.6805556 C59.4266796,19.124677 56.7231912,7.45962532 50.8656331,7.45962532 C48.0620155,7.45962532 46.6602067,10.3633721 46.6602067,12.8165375 C46.6602067,17.0720284 49.6640827,29.0374677 55.0710594,29.0374677 C58.125,29.0374677 59.4266796,26.3840439 59.4266796,23.6805556 Z M87.7131783,15.1695736 C87.7131783,9.8627261 90.5167959,6.25807494 94.872416,6.25807494 C101.681202,6.25807494 101.681202,13.2170543 106.637597,13.2170543 C109.341085,13.2170543 110.5927,10.7138243 110.5927,8.26065891 C110.5927,5.70736434 108.74031,0.600775194 105.636305,0.600775194 C104.735142,0.600775194 103.433463,1.35174419 102.5323,1.35174419 C101.23062,1.35174419 98.8275194,0 94.4218346,0 C83.7080103,0 74.746447,7.50968992 74.746447,18.0733204 C74.746447,29.1375969 84.0083979,36.497093 94.622093,36.497093 C101.731266,36.497093 108.790375,32.9925711 110.742894,25.6831395 C111.093346,24.3814599 111.193475,24.131137 112.495155,23.9809432 C113.696705,23.7806848 114.798127,22.879522 114.798127,21.5778424 C114.798127,20.125969 114.247416,17.4725452 104.835271,17.4725452 C102.281977,17.4725452 94.7222222,17.7228682 94.7222222,21.377584 C94.7222222,25.9835271 99.9790052,21.9282946 99.9790052,26.0836563 C99.9790052,27.8859819 98.6773256,29.1876615 96.9250646,29.1876615 C93.7209302,29.1876615 87.7131783,25.4828811 87.7131783,15.1695736 Z M135.274548,36.497093 C124.710917,36.497093 116.500323,28.7871447 116.500323,18.123385 C116.500323,7.50968992 124.96124,0 135.875323,0 C149.693152,0 155,12.1656977 155,18.624031 C155,29.3879199 145.487726,36.497093 135.274548,36.497093 Z M142.133398,23.6805556 C142.133398,19.124677 139.42991,7.45962532 133.572351,7.45962532 C130.768734,7.45962532 129.366925,10.3633721 129.366925,12.8165375 C129.366925,17.0720284 132.370801,29.0374677 137.777778,29.0374677 C140.831718,29.0374677 142.133398,26.3840439 142.133398,23.6805556 Z"/>
</svg>
