<svg class="symbols" xmlns="http://www.w3.org/2000/svg" xmlns:xlink="http://www.w3.org/1999/xlink"><symbol viewBox="0 0 155 37" id="general--logo" xmlns="http://www.w3.org/2000/svg"><path fill-rule="evenodd" d="M21.578 35.796c1.702 0 2.803.15 3.755.35.9.15 1.602.351 2.503.351 2.303 0 5.107-5.006 5.107-8.911 0-1.903-.852-4.306-3.104-4.306-3.205 0-.3 6.959-8.812 6.959-3.554 0-4.155-1.752-4.155-5.357V8.962c0-4.707 3.955-2.504 3.955-5.407 0-1.703-.5-3.405-10.514-3.405C7.86.15 0 .35 0 4.005c0 2.854 4.406.651 4.506 4.856.1 2.804.35 5.608.35 8.612 0 2.953 0 6.157-.1 9.812-.15 5.808-4.055 3.204-4.055 6.308 0 2.303 2.553 2.203 4.155 2.203h16.722zm30.99.701c-10.564 0-18.774-7.71-18.774-18.374C33.794 7.51 42.254 0 53.169 0c13.817 0 19.124 12.166 19.124 18.624 0 10.764-9.512 17.873-19.725 17.873zm6.859-12.816c0-4.556-2.704-16.221-8.561-16.221-2.804 0-4.206 2.903-4.206 5.357 0 4.255 3.004 16.22 8.411 16.22 3.054 0 4.356-2.653 4.356-5.356zm28.286-8.511c0-5.307 2.804-8.912 7.16-8.912 6.808 0 6.808 6.96 11.765 6.96 2.703 0 3.955-2.504 3.955-4.957 0-2.554-1.853-7.66-4.957-7.66-.9 0-2.203.75-3.104.75-1.301 0-3.704-1.351-8.11-1.351-10.714 0-19.676 7.51-19.676 18.073 0 11.065 9.262 18.424 19.876 18.424 7.11 0 14.168-3.504 16.12-10.814.351-1.302.451-1.552 1.753-1.702 1.202-.2 2.303-1.101 2.303-2.403 0-1.452-.55-4.105-9.963-4.105-2.553 0-10.113.25-10.113 3.905 0 4.606 5.257.55 5.257 4.706 0 1.802-1.302 3.104-3.054 3.104-3.204 0-9.212-3.705-9.212-14.018zm47.562 21.327c-10.564 0-18.775-7.71-18.775-18.374C116.5 7.51 124.961 0 135.875 0 149.693 0 155 12.166 155 18.624c0 10.764-9.512 17.873-19.725 17.873zm6.858-12.816c0-4.556-2.703-16.221-8.56-16.221-2.804 0-4.206 2.903-4.206 5.357 0 4.255 3.004 16.22 8.41 16.22 3.055 0 4.356-2.653 4.356-5.356z"/></symbol></svg>