<svg xmlns="http://www.w3.org/2000/svg" width="500" height="500" viewBox="0 0 500 500">
  <g fill="none" fill-rule="evenodd">
    <path fill="#F49B8B" fill-rule="nonzero" stroke="#EB592E" stroke-width=".222" d="M349.53993,421.406279 C303.780117,395.672149 299.196393,339.500482 299.196393,339.500482 L209.937658,339.500482 C209.937658,339.500482 212.214035,362.890826 171.022461,414.39076 L177.882561,463.546907 L262.557572,503.34375 L347.248068,482.281354 L349.53993,421.406279 L349.53993,421.406279 Z"/>
    <g fill-rule="nonzero" stroke="#EB592E" stroke-width=".222" transform="translate(125.778)">
      <path fill="#F49B8B" d="M16.502899,117.252615 C39.0343804,126.469393 28.3803191,170.890461 29.8979034,189.466544 C31.3225744,207.029098 31.8026266,229.279223 39.6692881,245.400665 C45.6776831,257.689702 64.5545737,268.205064 76.5713638,269.107738 C98.0343419,270.67554 118.026192,260.128506 139.287858,259.669251 C157.096246,259.305014 173.170251,269.693684 190.994124,268.854356 C206.046083,268.125882 222.909851,261.807163 232.603808,249.597308 C244.26443,234.885304 240.114302,216.499258 237.853411,199.380122 C235.17441,179.26791 232.278611,154.705672 236.630052,134.76766 C239.618764,121.100858 252.611144,111.868243 265.386726,121.655131 L265.789351,121.750149 C260.32295,87.4326971 249.870201,51.2940601 236.072572,37.2155113 C215.476785,16.1531156 148.656619,2.28043984 148.656619,2.28043984 C148.656619,2.28043984 21.9073574,-11.4180356 6.32888989,100.766936 C5.30684331,108.11502 4.45513783,115.25723 3.69634568,122.225241 L3.91314343,122.225241 C3.91314343,122.225241 7.92390197,113.736937 16.502899,117.252615 L16.502899,117.252615 Z"/>
      <path fill="#743713" d="M265.402212,121.639295 C252.62663,111.836571 239.63425,121.069185 236.645538,134.751824 C232.294097,154.689836 235.189896,179.26791 237.868896,199.364286 C240.129787,216.483421 244.279916,234.885304 232.619294,249.581472 C222.925337,261.791327 206.061568,268.110045 191.009609,268.838519 C173.185736,269.693684 157.111731,259.289177 139.303344,259.653414 C118.041678,260.11267 98.0498275,270.659704 76.5868493,269.091902 C64.5700593,268.189227 45.6931687,257.673866 39.6847737,245.384829 C31.8026266,229.263386 31.3225744,207.029098 29.913389,189.450707 C28.3958046,170.874624 39.0498659,126.453557 16.5183846,117.236779 C7.92390197,113.736937 3.91314343,122.225241 3.91314343,122.225241 L3.69634568,122.225241 C-6.83383119,221.66192 10.4170762,282.806213 29.6501345,311.232529 C50.2459216,341.65423 91.3445825,395.529622 173.851615,360.388677 C201.307503,348.701423 217.644763,332.294925 231.070738,311.232529 C263.218749,260.793634 269.985936,196.529573 269.985936,168.451657 C269.985936,155.259946 268.514808,138.726757 265.804836,121.734313 L265.402212,121.639295 L265.402212,121.639295 Z"/>
    </g>
    <path fill="#F49B8B" fill-rule="nonzero" stroke="#EB592E" stroke-width=".222" d="M396.337274 158.062987C396.337274 158.062987 396.337274 152.076832 414.6412 153.818835 414.6412 153.818835 436.398403 155.576674 423.235682 194.201624 423.235682 194.201624 413.66561 222.437903 392.481371 215.992493M126.408579 158.522242C126.408579 158.522242 126.486007 152.076832 108.182082 153.834671 108.182082 153.834671 86.4403636 155.59251 99.6030847 194.21746 99.6030847 194.21746 105.673422 222.881322 126.842175 216.451748"/>
    <ellipse cx="224.153" cy="165.886" fill="#000000" fill-rule="nonzero" rx="7.356" ry="7.522"/>
    <ellipse cx="301.597" cy="165.902" fill="#000000" fill-rule="nonzero" rx="7.371" ry="7.538"/>
    <path stroke="#B73518" stroke-width=".222" d="M232.685938,221.709429 C232.685938,221.709429 226.971768,231.052898 234.9778,231.052898 C242.983831,231.052898 240.691969,229.310895 246.421624,231.052898 C252.135794,232.810737 254.427656,238.084254 259.01138,236.912362 C263.579618,235.740469 270.439719,230.482788 272.747066,231.052898 C275.023443,231.654681 282.471994,233.396683 284.175405,233.396683 C285.894302,233.396683 291.608471,228.709113 288.186164,223.451432"/>
    <path fill="#FFFFFF" fill-rule="nonzero" d="M227.142109,288.380622 C227.142109,288.380622 260.312166,296.758071 293.095085,288.380622 C293.095085,288.380622 263.192479,339.928064 227.142109,288.380622 L227.142109,288.380622 Z"/>
    <path fill="#000000" fill-rule="nonzero" d="M498.495476,665.128288 C497.581828,649.2919 496.761093,539.260677 496.048758,536.014218 C490.179733,509.013177 463.776863,464.845491 443.243018,455.850423 C422.709173,446.855355 349.338617,412.759612 349.338617,412.759612 C229.046832,559.800472 173.283352,400.217193 173.283352,400.217193 C173.283352,400.217193 149.807251,408.958879 94.0592563,429.957929 C38.3112611,450.972815 17.7774162,467.157604 6.03936614,506.162627 C3.1125964,515.854496 1.20787323,633.455512 0,665.128288 L498.495476,665.128288 L498.495476,665.128288 Z"/>
  </g>
</svg>
