<?xml version="1.0" encoding="utf-8"?>
<!-- Generator: Adobe Illustrator 15.0.2, SVG Export Plug-In . SVG Version: 6.00 Build 0)  -->
<!DOCTYPE svg PUBLIC "-//W3C//DTD SVG 1.1//EN" "http://www.w3.org/Graphics/SVG/1.1/DTD/svg11.dtd">
<svg version="1.1" id="Layer_1" xmlns="http://www.w3.org/2000/svg" xmlns:xlink="http://www.w3.org/1999/xlink" x="0px" y="0px"
	 width="400px" height="400px" viewBox="0 0 400 400" enable-background="new 0 0 400 400" xml:space="preserve">
<g>
	<path fill="#751800" d="M12.859,0H120v61.06H0V12.859C0,5.757,5.756,0,12.859,0"/>
	<path fill-rule="evenodd" clip-rule="evenodd" fill="#DD9526" d="M47.63,41.404h-2.41c-0.209-1.617-0.97-2.425-2.283-2.425
		c-0.861,0-1.508,0.169-1.942,0.512c-0.426,0.331-0.638,0.831-0.638,1.502c0,0.688,1.176,1.661,3.53,2.919
		c1.91,1.031,3.009,1.886,3.303,2.566c0.292,0.673,0.44,1.39,0.44,2.156c0,1.341-0.477,2.493-1.433,3.445
		c-0.946,0.947-2.081,1.417-3.402,1.417H40.37c-3.223,0-4.835-1.611-4.835-4.833h2.426c0.187,1.614,0.945,2.422,2.269,2.422
		c0.857,0,1.5-0.169,1.926-0.51c0.434-0.341,0.653-0.845,0.653-1.518c0-0.679-1.172-1.652-3.516-2.921
		c-1.92-1.021-3.026-1.869-3.319-2.55c-0.293-0.681-0.44-1.399-0.44-2.156c0-1.352,0.479-2.501,1.432-3.447
		c0.955-0.954,2.09-1.429,3.403-1.431h2.425C45.818,36.555,47.433,38.171,47.63,41.404"/>
	<path fill-rule="evenodd" clip-rule="evenodd" fill="#DD9526" d="M64.15,46.239h-9.684v2.427c0,0.651,0.238,1.215,0.709,1.701
		c0.472,0.472,1.046,0.709,1.715,0.709h2.424c1.609,0,2.41-0.805,2.41-2.41h2.425c-0.38,3.222-1.989,4.833-4.835,4.833h-4.849
		c-1.323,0-2.462-0.471-3.419-1.417c-0.944-0.953-1.416-2.094-1.416-3.416v-7.261c0-1.332,0.476-2.473,1.431-3.418
		c0.956-0.954,2.088-1.429,3.403-1.431h4.849c1.325,0,2.457,0.477,3.404,1.431c0.955,0.956,1.431,2.095,1.431,3.418V46.239z
		 M54.466,43.815h4.849v-2.411c0-0.662-0.24-1.229-0.724-1.7c-0.472-0.484-1.038-0.725-1.701-0.725
		c-0.662,0-1.231,0.241-1.715,0.725c-0.472,0.472-0.709,1.039-0.709,1.7V43.815z"/>
	<rect x="66.139" y="31.72" fill-rule="evenodd" clip-rule="evenodd" fill="#DD9526" width="4.835" height="21.778"/>
	<path fill-rule="evenodd" clip-rule="evenodd" fill="#DD9526" d="M87.49,46.239h-9.681v2.427c0,0.651,0.234,1.215,0.707,1.701
		c0.473,0.472,1.047,0.709,1.716,0.709h2.425c1.607,0,2.411-0.805,2.411-2.41h2.422c-0.377,3.222-1.989,4.833-4.833,4.833h-4.848
		c-1.326,0-2.463-0.471-3.418-1.417c-0.947-0.953-1.419-2.094-1.419-3.416v-7.261c0-1.332,0.48-2.473,1.433-3.418
		c0.956-0.954,2.086-1.429,3.404-1.431h4.848c1.323,0,2.458,0.477,3.404,1.431c0.953,0.956,1.429,2.095,1.429,3.418V46.239z
		 M77.809,43.815h4.848v-2.411c0-0.662-0.24-1.229-0.723-1.7c-0.475-0.484-1.039-0.725-1.702-0.725
		c-0.662,0-1.233,0.241-1.716,0.725c-0.472,0.472-0.707,1.039-0.707,1.7V43.815z"/>
	<path fill-rule="evenodd" clip-rule="evenodd" fill="#DD9526" d="M101.573,41.404h-2.412c-0.188-1.617-0.997-2.425-2.424-2.425
		c-0.66,0-1.231,0.241-1.715,0.725c-0.472,0.472-0.708,1.039-0.708,1.7v7.261c0,0.651,0.236,1.215,0.708,1.701
		c0.471,0.472,1.046,0.709,1.715,0.709c1.428,0,2.236-0.805,2.424-2.41h2.412c-0.198,3.222-1.812,4.833-4.836,4.833h-2.423
		c-1.323,0-2.463-0.471-3.418-1.417c-0.944-0.953-1.416-2.094-1.416-3.416v-7.261c0-1.332,0.475-2.473,1.431-3.418
		c0.954-0.954,2.089-1.429,3.404-1.431h2.423C99.782,36.555,101.392,38.171,101.573,41.404"/>
	<path fill-rule="evenodd" clip-rule="evenodd" fill="#DD9526" d="M105.127,31.72h4.834v4.835h2.426v2.426h-2.426v9.683
		c0,0.784,0.257,1.385,0.766,1.799c0.52,0.407,0.997,0.611,1.432,0.611h0.228V53.5h-2.426c-1.332,0-2.471-0.472-3.417-1.419
		c-0.946-0.953-1.417-2.093-1.417-3.417v-9.683h-2.424v-2.426h2.424V31.72z"/>
	<path fill-rule="evenodd" clip-rule="evenodd" fill="#FFFFFF" d="M35.93,27.945V6.168h4.835v7.259
		c0.094-0.813,0.344-1.417,0.75-1.814c0.405-0.407,0.964-0.609,1.672-0.611h2.423c1.326,0,2.458,0.479,3.406,1.433
		c0.954,0.956,1.431,2.093,1.431,3.417v7.258c0,1.316-0.478,2.448-1.431,3.403c-0.949,0.957-2.081,1.432-3.406,1.432H35.93z
		 M40.766,25.522h2.423c0.672,0,1.243-0.236,1.716-0.711c0.471-0.482,0.707-1.047,0.707-1.701v-7.258
		c0-0.663-0.24-1.229-0.722-1.703c-0.473-0.482-1.04-0.722-1.702-0.722c-0.661,0-1.232,0.24-1.714,0.722
		c-0.473,0.475-0.709,1.041-0.709,1.703V25.522z"/>
	<path fill-rule="evenodd" clip-rule="evenodd" fill="#FFFFFF" d="M57.796,11.002h4.849c1.324,0,2.456,0.477,3.401,1.43
		c0.957,0.955,1.433,2.095,1.433,3.42v7.258c0,1.314-0.476,2.448-1.433,3.405c-0.945,0.954-2.078,1.431-3.401,1.431h-4.849
		c-1.324,0-2.462-0.472-3.418-1.418c-0.944-0.956-1.417-2.094-1.417-3.417v-7.258c0-1.333,0.478-2.473,1.432-3.42
		C55.349,11.479,56.48,11.004,57.796,11.002 M57.796,15.853v7.258c0,0.653,0.235,1.218,0.708,1.702
		c0.473,0.473,1.045,0.711,1.715,0.711c0.671,0,1.244-0.238,1.717-0.711c0.471-0.483,0.707-1.048,0.708-1.702v-7.258
		c0-0.664-0.243-1.229-0.723-1.704c-0.471-0.482-1.039-0.722-1.702-0.722c-0.664,0-1.231,0.24-1.715,0.722
		C58.031,14.624,57.796,15.189,57.796,15.853"/>
	<path fill-rule="evenodd" clip-rule="evenodd" fill="#FFFFFF" d="M84.51,11.002v16.943h-4.834v-2.423
		c-0.188,1.614-0.998,2.423-2.425,2.423h-2.422c-1.325,0-2.463-0.473-3.418-1.418c-0.944-0.955-1.417-2.093-1.417-3.417V11.002
		h4.835V23.11c0,0.653,0.234,1.218,0.707,1.702c0.473,0.473,1.046,0.711,1.715,0.711c0.672,0,1.244-0.238,1.718-0.711
		c0.472-0.483,0.707-1.048,0.707-1.702V11.002H84.51z"/>
	<path fill-rule="evenodd" clip-rule="evenodd" fill="#FFFFFF" d="M88.184,11.002h4.837v14.521h2.422
		c0.67,0,1.242-0.238,1.716-0.711c0.472-0.483,0.706-1.048,0.706-1.702V11.002h4.838v14.521h2.424c0.66,0,1.229-0.238,1.699-0.711
		c0.474-0.483,0.711-1.048,0.711-1.702V11.002h4.849v8.678c0,2.249-0.813,4.191-2.439,5.827c-1.616,1.626-3.558,2.439-5.829,2.439
		h-6.254v-0.765c-0.926,0.511-2.067,0.765-3.428,0.765h-6.253V11.002z"/>
</g>
</svg>
